<svg width="163" height="148" viewBox="0 0 163 148" fill="none" xmlns="http://www.w3.org/2000/svg">
<path fill-rule="evenodd" clip-rule="evenodd" d="M12.4022 85.022C5.04034 81.2608 0 73.6035 0 64.769C0 57.4079 3.49937 50.864 8.92532 46.7103C7.35692 42.8036 6.49391 38.5377 6.49391 34.0702C6.49391 15.3224 21.692 0.12439 40.4397 0.12439C54.7324 0.12439 66.962 8.95759 71.9672 21.4627C73.0613 21.406 74.1628 21.3774 75.2711 21.3774C86.4825 21.3774 97.0086 24.3118 106.123 29.4546C110.847 19.4468 121.031 12.522 132.831 12.522C149.134 12.522 162.349 25.7377 162.349 42.0401C162.349 52.29 157.125 61.3197 149.194 66.6117C153.002 71.5828 155.265 77.8002 155.265 84.5462C155.265 99.0985 144.735 111.191 130.878 113.62C120.331 133.547 99.3868 147.124 75.2711 147.124C40.8044 147.124 12.8153 119.391 12.4022 85.022Z" fill="#77A5D5"/>
</svg>
