<svg id="marwd24h46618484" viewBox="0 0 150 108.6956" xmlns="http://www.w3.org/2000/svg" xmlns:xlink="http://www.w3.org/1999/xlink"><g id="marwd24h46618484_translate"><g transform="matrix(1,0,0,1,0,0)"><g id="marwd24h46618484" opacity="1" style="mix-blend-mode:normal"><g><defs><clipPath id="marwd24h46618484_clipPath" x="-50%" y="-50%" width="200%" height="200%"><path id="marwd24h46618484_fill_path" d="M0.01,0h149.98c0.00552,0 0.01,0.00448 0.01,0.01v108.6756c0,0.00552 -0.00448,0.01 -0.01,0.01h-149.98c-0.00552,0 -0.01,-0.00448 -0.01,-0.01v-108.6756c0,-0.00552 0.00448,-0.01 0.01,-0.01z" fill="white" clip-rule="nonzero"></path></clipPath></defs><g clip-path="url(#marwd24h46618484_clipPath)"><g id="marwd24j19599148_translate"><g transform="matrix(1,0,0,1,2,5)"><g id="marwd24j19599148" opacity="1" style="mix-blend-mode:normal"><g><defs><clipPath id="marwd24j19599148_clipPath" x="-50%" y="-50%" width="200%" height="200%"><path id="marwd24j19599148_fill_path" d="M0.01,0h93.98c0.00552,0 0.01,0.00448 0.01,0.01v89.98c0,0.00552 -0.00448,0.01 -0.01,0.01h-93.98c-0.00552,0 -0.01,-0.00448 -0.01,-0.01v-89.98c0,-0.00552 0.00448,-0.01 0.01,-0.01z" fill="white" clip-rule="nonzero"></path></clipPath></defs><g clip-path="url(#marwd24j19599148_clipPath)"><g id="marwd24j15497754_translate"><g transform="matrix(1,0,0,1,-0.004100000000001103,0.00009999999999621423)"><g id="marwd24j15497754" opacity="1" style="mix-blend-mode:normal"><g><g><path id="marwd24j15497754_fill_path" d="M77.42187,33.72258c7.49913,8.82891 4.02224,24.80279 -2.11264,33.58456c-4.2085,6.02515 -9.95912,11.40366 -17.52537,12.42749c-0.85244,1.90454 -0.42286,3.93874 -0.53529,5.93758c-0.0302,0.52539 -0.11075,1.69741 -0.20975,2.14366c-0.33393,1.51555 -1.73005,1.1636 -2.72177,1.30506c-3.76718,0.54055 -6.79939,0.37216 -10.57328,0.48835c-5.37306,0.16671 -10.70249,0.52707 -16.07387,0.33679c-1.99686,-0.07073 -5.06766,0.72746 -5.28244,-2.09651c-0.14431,-1.89612 0.42958,-4.56517 0.50677,-6.54885c0.04531,-1.16024 0.12753,-7.79497 -0.2517,-8.3372c-0.12585,-0.18523 -0.31715,-0.1465 -0.50173,-0.17008c-2.70331,-0.34184 -5.84459,0.25259 -8.70899,-0.17176c-10.76122,-1.59806 -6.93363,-11.11402 -7.82299,-18.71871c-0.96151,-8.22774 -7.04102,-15.94189 -5.29587,-24.68492c1.09072,-5.45934 6.84134,-9.60015 10.07491,-13.93462c2.54054,-3.40662 4.35953,-7.3824 7.38166,-10.41519c7.46724,-7.49018 13.47963,-4.31089 22.63497,-3.53123c2.83587,0.2408 5.86305,0.1785 8.71738,0.33174c5.1717,0.27953 9.86515,0.07915 13.47796,4.4675c3.58092,4.34962 3.10604,10.40845 4.44007,15.55458c1.53204,5.91737 6.70877,7.70404 10.38198,12.03009zM53.05517,47.07456c0.29869,0.21218 1.12932,-1.04067 1.30719,-1.29158c2.07573,-2.91659 3.77557,-6.88733 7.1266,-8.65378c3.82927,-2.01905 9.1436,-0.9649 8.31129,4.30416c-0.31883,2.02242 -5.15156,9.04614 -6.42183,11.54848c-3.12282,6.15313 -5.7523,13.9683 -6.14328,20.90615c-0.08558,1.51386 -0.08054,1.82876 1.55889,1.56438c6.69535,-1.08446 13.99647,-10.30236 16.45646,-16.2753c2.01364,-4.8868 3.04395,-12.15639 1.8559,-17.32104c-1.89785,-8.25637 -10.36689,-9.56142 -13.27995,-16.94046c-2.1311,-5.39872 -0.9011,-15.75497 -7.12324,-18.24215c-4.09943,-1.63848 -11.44754,-0.89923 -16.13261,-1.29832c-4.58942,-0.39067 -11.87543,-2.42825 -15.98326,-0.56412c-5.55764,2.52086 -9.23253,11.03319 -13.26988,15.73308c-4.80421,5.59406 -8.70227,7.29989 -6.81617,15.81054c1.35082,6.09419 4.7438,11.76739 5.15659,18.19837c0.21814,3.39988 -0.46817,7.85559 0.03356,11.0635c0.09565,0.61127 0.59738,1.5526 1.04206,1.98032c1.63944,1.57617 8.64187,1.91632 10.90218,1.67552c1.04038,-0.11114 0.94977,-0.64663 0.91788,-1.59469c-0.18123,-5.49807 -1.65454,-11.79265 -2.32408,-17.34292c-0.46314,-3.84781 -0.71484,-7.71414 -1.02863,-11.57879c-0.35239,-4.3412 -1.89618,-12.89563 1.84416,-15.97725c1.26524,-1.04236 2.61773,-1.01373 4.11789,-1.24949c0.14263,-3.48576 0.46146,-9.89148 5.18176,-9.94368c0.78532,-0.00842 1.62937,0.2307 2.4063,0.33174c1.32397,-2.30532 2.90803,-3.34768 5.64322,-3.01426c1.71327,0.20881 2.93991,2.06788 3.93834,3.29211c0.33393,0.16334 0.76183,-0.30648 1.12429,-0.38899c5.38481,-1.24443 6.97726,6.13628 7.56457,9.98409c1.09408,7.16854 0.63094,14.48696 1.52701,21.67235c0.14767,1.17708 0.1074,2.42824 0.50509,3.61374zM55.66283,50.03156c-1.26356,1.10803 -2.66975,1.43809 -4.34946,1.22928c-2.23178,-0.27785 -2.37274,-3.60701 -2.61437,-5.44756c-0.98668,-7.51544 -0.33225,-15.47207 -1.36256,-23.01276c-0.24835,-1.82034 -0.86587,-5.49639 -2.01532,-6.88901c-0.63933,-0.77461 -1.5354,-0.48161 -1.65957,0.46982c-0.22318,1.71257 0.40608,3.51439 0.51012,5.22359c0.10739,1.7614 -0.07551,3.61542 -0.00503,5.38525c0.16109,4.08356 0.5806,8.16712 0.17284,12.26584c-0.30205,3.0311 -3.55911,2.83576 -3.94506,0.0943c-0.36413,-7.11803 0.40776,-14.35898 -0.5957,-21.42985c-0.22318,-1.5728 -1.90624,-7.60132 -3.75879,-3.80739c-1.0924,2.23628 -0.9011,8.68241 -0.75344,11.36156c0.19801,3.60869 0.83734,7.30494 1.01018,10.92542c0.0839,1.76982 0.53865,5.20338 -2.18815,4.54833c-1.67803,-0.40246 -1.18973,-2.20428 -1.33068,-3.37125c-0.56214,-4.61737 -1.16455,-9.64731 -1.3441,-14.28825c-0.09229,-2.40467 0.0839,-4.83123 0.00671,-7.23758c-0.0688,-0.60622 -0.85244,-0.43783 -1.31725,-0.39236c-0.75176,1.57954 -0.96319,3.34599 -1.03703,5.09393c-0.26177,6.15986 1.07226,12.37529 1.18805,18.49642c0.02685,1.43472 0.33728,4.49444 -1.74851,4.44729c-2.08579,-0.04715 -1.63776,-1.80182 -1.77872,-3.0934c-0.30876,-2.79703 -0.60074,-5.62774 -0.83398,-8.41129c-0.17619,-2.09988 -0.07048,-4.21491 -0.53697,-6.26932c-1.58574,-0.60117 -2.3526,0.26775 -2.60934,1.77319c-0.59738,3.5026 0.13257,9.39135 0.46482,13.07245c0.81385,9.02593 2.6966,18.24552 3.17987,27.24282c0.18794,3.49418 -0.43964,7.97515 -0.00671,11.27231c0.07216,0.55065 0.19969,0.68368 0.75344,0.75609c3.70509,0.48834 8.40358,-0.85207 12.24796,-0.33679c4.18333,-0.72915 9.30637,0.37889 13.40748,-0.16671c1.19644,-0.15997 0.58731,-1.01205 0.57221,-1.76646c-0.2215,-11.0012 2.66639,-20.18542 8.02267,-29.62897c0.67121,-1.18213 4.48706,-6.81997 4.49042,-7.53733c0,-0.18018 -0.13928,-0.38225 -0.27017,-0.50687c-0.23828,-0.14314 -0.63765,-0.11451 -0.91284,-0.07409c-4.01217,0.5877 -6.24732,7.55249 -9.04795,10.00767zM42.62955,83.44435c-5.24385,0.05052 -10.53636,0.20881 -15.80203,0.11788c-0.64436,0.08083 -0.74169,2.39962 -0.4279,2.61853c2.63283,0.10272 5.32607,0.11283 7.97736,0.08083c5.39991,-0.06567 11.19415,-0.19702 16.59071,-0.50518c0.46817,-0.02694 2.26031,-0.18355 2.43986,-0.41088l0.12753,-1.67384l-0.2517,-0.25259c-3.55072,-0.07073 -7.10311,-0.00842 -10.65215,0.02526z" fill-rule="nonzero" fill="rgb(66, 43, 85)" fill-opacity="1" style="mix-blend-mode:normal"></path></g></g></g></g></g><g id="marwd24r02114868_translate"><g transform="matrix(1,0,0,1,49.3153,8.2118)"><g id="marwd24r02114868" opacity="1" style="mix-blend-mode:normal"><g><g><g id="marwd24r45004887_translate"><g transform="matrix(1,0,0,1,0,0)"><g id="marwd24r45004887" opacity="1" style="mix-blend-mode:normal"><g><g><path id="marwd24r45004887_fill_path" d="M24.22947,3.49918c-0.344,0.36036 -0.87593,0.52539 -1.35752,0.57086c-3.68664,0.34858 -7.86662,-0.09262 -11.56332,-0.18355c-2.88789,-0.07073 -6.4235,0.11619 -9.22246,-0.16334c-2.84762,-0.28459 -2.60263,-3.2719 -0.33729,-3.52954c5.40662,-0.61127 11.91068,0.46308 17.43476,-0.00674c1.49848,0.4614 3.40975,-0.25091 4.75218,0.61127c0.886,0.56917 0.98836,1.96853 0.29366,2.69936z" fill-rule="nonzero" fill="rgb(66, 43, 85)" fill-opacity="1" style="mix-blend-mode:normal"></path></g></g></g></g></g><g id="marwd24t89361798_translate"><g transform="matrix(1,0,0,1,0.3163999999999998,9.5862)"><g id="marwd24t89361798" opacity="1" style="mix-blend-mode:normal"><g><g><path id="marwd24t89361798_fill_path" d="M18.2195,1.08833c1.3676,1.00026 0.5269,3.10856 -1.20315,3.30895c-2.08076,0.2408 -4.78407,-0.41425 -6.86315,-0.51192c-2.01028,-0.0943 -4.02728,-0.06568 -6.03253,-0.1684c-0.91788,-0.04715 -2.40797,0.20713 -3.1698,-0.18355c-1.40283,-0.71904 -1.1914,-2.70778 0.22654,-3.26011c1.64447,-0.64158 5.09954,0.04041 6.95041,0.0943c2.74358,0.07915 5.64322,-0.15997 8.36667,0.18018c0.344,0.0421 1.4817,0.36205 1.72501,0.54055z" fill-rule="nonzero" fill="rgb(66, 43, 85)" fill-opacity="1" style="mix-blend-mode:normal"></path></g></g></g></g></g></g></g></g></g></g><g id="marwd24u79309461_translate"><g transform="matrix(1,0,0,1,4.0137,4.035800000000002)"><g id="marwd24u79309461" opacity="1" style="mix-blend-mode:normal"><g><g><path id="marwd24u79309461_fill_path" d="M49.03726,43.03877c-0.39769,-1.1855 -0.3591,-2.43666 -0.50508,-3.61374c-0.89607,-7.1837 -0.43293,-14.5038 -1.52701,-21.67234c-0.58731,-3.84781 -2.17977,-11.22853 -7.56457,-9.9841c-0.36245,0.0842 -0.79203,0.55402 -1.12428,0.38899c-0.99843,-1.22423 -2.22507,-3.0833 -3.93834,-3.29211c-2.73519,-0.33342 -4.31925,0.70894 -5.64322,3.01426c-0.77693,-0.10104 -1.62098,-0.34184 -2.4063,-0.33174c-4.7203,0.05389 -5.03913,6.45792 -5.18177,9.94368c-1.50016,0.23575 -2.85098,0.20712 -4.11789,1.24949c-3.74033,3.08161 -2.19654,11.63604 -1.84416,15.97725c0.31379,3.86465 0.5655,7.73098 1.02863,11.57879c0.66953,5.55027 2.14285,11.84486 2.32407,17.34293c0.03188,0.94806 0.1225,1.48355 -0.91788,1.59469c-2.25863,0.24249 -9.26106,-0.09935 -10.90217,-1.67552c-0.44636,-0.42772 -0.94641,-1.36905 -1.04206,-1.98032c-0.50173,-3.20791 0.18458,-7.66362 -0.03356,-11.0635c-0.4128,-6.43098 -3.80578,-12.10418 -5.15659,-18.19837c-1.88611,-8.51065 2.01028,-10.2148 6.81617,-15.81054c4.03735,-4.70157 7.71223,-13.21221 13.26988,-15.73308c4.10782,-1.86244 11.39384,0.17345 15.98326,0.56412c4.68507,0.39909 12.03317,-0.33847 16.1326,1.29832c6.22214,2.48718 4.99215,12.84343 7.12325,18.24215c2.91306,7.37904 11.38209,8.68409 13.27994,16.94046c1.18805,5.16465 0.15774,12.43424 -1.8559,17.32104c-2.46167,5.97126 -9.76111,15.19085 -16.45646,16.2753c-1.63944,0.26606 -1.64279,-0.05052 -1.55889,-1.56438c0.3893,-6.93784 3.02046,-14.75302 6.14327,-20.90615c1.27027,-2.50234 6.10133,-9.52607 6.42183,-11.54848c0.8323,-5.26906 -4.48202,-6.3232 -8.31129,-4.30416c-3.35271,1.76814 -5.05255,5.73719 -7.1266,8.65378c-0.17787,0.25091 -1.0085,1.50376 -1.30719,1.29159z" fill-rule="nonzero" fill="rgb(33, 169, 171)" fill-opacity="1" style="mix-blend-mode:normal"></path></g></g></g></g></g><g id="marwd24w86171610_translate"><g transform="matrix(1,0,0,1,22.5298,12.881099999999996)"><g id="marwd24w86171610" opacity="1" style="mix-blend-mode:normal"><g><g><g id="marwd24w61348998_translate"><g transform="matrix(1,0,0,1,0,0)"><g id="marwd24w61348998" opacity="1" style="mix-blend-mode:normal"><g><g><path id="marwd24w61348998_fill_path" d="M33.12876,37.15053c2.80231,-2.45519 5.03745,-9.41997 9.04795,-10.00767c0.2752,-0.04041 0.67289,-0.06904 0.91285,0.07409c0.13089,0.12461 0.27017,0.325 0.27017,0.50687c-0.00336,0.71736 -3.8192,6.3552 -4.49042,7.53733c-5.35628,9.44355 -8.24417,18.62777 -8.02267,29.62897c0.0151,0.75441 0.62423,1.60648 -0.57221,1.76645c-4.10111,0.5456 -9.22414,-0.56243 -13.40748,0.16671c-3.84437,-0.51529 -8.54286,0.82682 -12.24796,0.33679c-0.55543,-0.07409 -0.68128,-0.20713 -0.75343,-0.75609c-0.43293,-3.29548 0.19297,-7.77813 0.00671,-11.27231c-0.48327,-8.99899 -2.36602,-18.21689 -3.17987,-27.24282c-0.33225,-3.6811 -1.0622,-9.57153 -0.46482,-13.07245c0.25674,-1.50544 1.0236,-2.37436 2.60934,-1.77319c0.46649,2.05441 0.36245,4.16944 0.53697,6.26932c0.23325,2.78356 0.52522,5.61427 0.83398,8.4113c0.14263,1.29327 -0.27855,3.04794 1.77872,3.0934c2.05727,0.04547 1.77536,-3.01257 1.74851,-4.44729c-0.11578,-6.12113 -1.44814,-12.33825 -1.18805,-18.49642c0.07383,-1.74793 0.28694,-3.51439 1.03703,-5.09393c0.46481,-0.04547 1.24845,-0.21386 1.31725,0.39236c0.07719,2.40635 -0.10068,4.83291 -0.00671,7.23758c0.17955,4.64095 0.78364,9.67088 1.3441,14.28825c0.14263,1.16697 -0.34735,2.96879 1.33068,3.37125c2.7268,0.65337 2.27373,-2.78019 2.18815,-4.54833c-0.17284,-3.62048 -0.81217,-7.31673 -1.01018,-10.92542c-0.14599,-2.67915 -0.33896,-9.12528 0.75344,-11.36156c1.85255,-3.79561 3.53561,2.23291 3.75879,3.80739c1.00346,7.07088 0.23157,14.31183 0.5957,21.42985c0.38595,2.74146 3.64301,2.9368 3.94505,-0.0943c0.40776,-4.09703 -0.01175,-8.18228 -0.17284,-12.26584c-0.07048,-1.77151 0.11243,-3.62384 0.00503,-5.38525c-0.10404,-1.7092 -0.7333,-3.50934 -0.51012,-5.22359c0.12417,-0.95311 1.02024,-1.24443 1.65957,-0.46982c1.14945,1.39262 1.76697,5.07035 2.01532,6.88901c1.03031,7.54069 0.37588,15.49901 1.36256,23.01276c0.24164,1.84055 0.38259,5.1697 2.61437,5.44756c1.67971,0.20881 3.0859,-0.12125 4.34946,-1.22928zM17.24786,59.80293c-1.45653,0.06231 -3.30069,0.15997 -4.73876,0.28964c-2.74694,0.24922 -3.05066,3.29547 -0.5118,3.53459c2.2838,0.21386 6.04931,0.03368 8.38345,-0.17681c0.67289,-0.06062 2.34421,-0.23239 2.89125,-0.4614c1.16791,-0.48834 1.16288,-2.63874 0,-3.10856c-0.85915,-0.34521 -4.83945,-0.12966 -6.02414,-0.07915z" fill-rule="nonzero" fill="rgb(237, 229, 44)" fill-opacity="1" style="mix-blend-mode:normal"></path></g></g></g></g></g><g id="marwd25075814931_translate"><g transform="matrix(1,0,0,1,3.6910999999999987,70.50489999999999)"><g id="marwd25075814931" opacity="1" style="mix-blend-mode:normal"><g><g><path id="marwd25075814931_fill_path" d="M16.40432,0.05838c3.54904,-0.03368 7.10143,-0.09767 10.65215,-0.02526l0.2517,0.25259l-0.12753,1.67384c-0.17787,0.22902 -1.97168,0.38394 -2.43986,0.41088c-5.39655,0.30816 -11.18912,0.43783 -16.59071,0.50518c-2.65129,0.03199 -5.34453,0.02357 -7.97737,-0.08083c-0.31379,-0.21891 -0.21647,-2.53602 0.4279,-2.61853c5.26566,0.09262 10.55818,-0.06736 15.80203,-0.11788z" fill-rule="nonzero" fill="rgb(237, 229, 44)" fill-opacity="1" style="mix-blend-mode:normal"></path></g></g></g></g></g><g id="marwd25188240648_translate"><g transform="matrix(1,0,0,1,10.2593,59.6895)"><g id="marwd25188240648" opacity="1" style="mix-blend-mode:normal"><g><g><path id="marwd25188240648_fill_path" d="M6.98861,0.11356c1.18301,-0.05052 5.16498,-0.26775 6.02414,0.07915c1.16288,0.46814 1.16791,2.61853 0,3.10856c-0.54704,0.22902 -2.21836,0.40078 -2.89125,0.4614c-2.33414,0.21049 -6.09965,0.39068 -8.38345,0.17682c-2.53886,-0.23744 -2.23514,-3.28538 0.5118,-3.5346c1.43807,-0.12966 3.28055,-0.22733 4.73876,-0.28963z" fill-rule="nonzero" fill="rgb(66, 43, 85)" fill-opacity="1" style="mix-blend-mode:normal"></path></g></g></g></g></g></g></g></g></g></g></g></g></g></g></g></g></g></g></g></g><animateTransform href="#marwd24j19599148_translate" attributeName="transform" type="translate" values="0 0;0 0;40 0;0 0;40 0;40 0" dur="3s" repeatCount="indefinite" calcMode="spline" keyTimes="0;0.01;0.33;0.82;0.99;1" keySplines="0.5 0.35 0.15 1;0.5 0.35 0.15 1;0.5 0.35 0.15 1;0.5 0.35 0.15 1;0.5 0.35 0.15 1" additive="sum" fill="freeze"></animateTransform><animateTransform href="#marwd24r02114868_translate" attributeName="transform" type="translate" values="0 0;0 0;29.9996 0.0043;-0.0004 0.0043;19.9996 0.0043;19.9996 0.0043" dur="3s" repeatCount="indefinite" calcMode="spline" keyTimes="0;0.18;0.59;0.91;0.99;1" keySplines="0.5 0.35 0.15 1;0.5 0.35 0.15 1;0.5 0.35 0.15 1;0.5 0.35 0.15 1;0.5 0.35 0.15 1" additive="sum" fill="freeze"></animateTransform></svg>