<svg width="533" height="244" viewBox="0 0 533 244" fill="none" xmlns="http://www.w3.org/2000/svg">
<path d="M29.2412 240.085V243.377L27.0571 243.362L26.7898 238.438C22.9009 236.61 20.4092 234.828 19.819 230.266L12.7423 229.103L13.2871 243.377H11.093L10.4524 228.363C3.90024 223.364 -1.12357 214.915 0.218131 206.451C0.727573 203.244 4.29367 198.058 4.48534 195.838C4.59126 194.624 3.86493 193.562 3.93554 192.595C4.42481 185.853 6.21542 179.409 11.6327 175.023C18.5732 169.404 34.0632 165.925 40.7112 173.467C42.0075 174.938 43.1424 178.512 43.8032 179.167C44.7262 180.083 46.9052 179.343 49.0438 181.624C52.8016 185.637 51.8987 191.699 50.1888 196.477C49.4474 198.556 46.7841 202.549 46.4664 204.759C46.3151 205.817 47.0061 207.896 46.8497 209.613C46.5673 212.745 43.9595 216.637 42.1235 219.169C40.1816 221.848 32.0608 230.05 31.5211 232.25C31.0923 234.012 35.7227 235.865 33.917 239.526C32.8224 241.751 29.6245 239.662 29.2412 240.08V240.085ZM43.1626 188.638C43.3542 188.366 44.1714 188.275 44.3782 187.943C44.8876 187.142 43.6771 184.136 43.213 183.049C42.4413 181.226 40.5498 177.44 39.3695 175.909C35.0821 170.351 28.4846 170.884 22.3461 172.551C11.9252 175.381 6.69964 181.74 6.13472 192.605C6.0641 193.934 6.93671 194.982 6.57859 196.865C6.00358 199.871 2.73508 203.898 2.32651 207.478C0.96464 219.401 18.1596 220.418 26.1845 218.102C32.9082 216.159 34.7089 213.571 38.8701 208.777C39.2232 208.369 40.1463 208.304 40.2219 208.203C40.3682 208.007 38.6079 204.8 38.5524 203.576C38.4565 201.547 40.1715 200.082 40.0151 199.438C39.3745 196.804 33.7757 194.549 35.6571 190.264C37.014 187.177 42.1487 190.923 42.4362 190.687C42.522 190.616 42.6481 189.368 43.1626 188.643V188.638ZM46.8295 182.45C46.3705 182.047 45.6341 182.228 45.7552 183.24C45.9973 185.224 47.2734 187.585 47.3995 189.876C47.5004 191.784 46.078 194.216 47.9342 195.067C48.6756 192.333 49.4877 189.478 49.0085 186.588C48.9177 186.05 47.0111 182.606 46.8295 182.445V182.45ZM45.1902 192.323L44.9229 190.682C44.3378 191.18 43.9192 191.513 44.0957 192.323H45.1902ZM45.1852 202.202C48.5041 196.754 42.3404 192.454 37.4931 191.774L43.8637 201.059L45.1852 202.202ZM44.0856 210.434C44.8473 208.636 44.5749 207.156 43.9444 205.364C43.1676 203.153 40.6759 199.543 40.9029 204.004L44.0856 210.429V210.434ZM26.5023 226.364C33.8463 224.703 43.9494 218.555 41.3366 209.895C33.8363 221.334 16.7624 225.085 5.04018 218.127C6.38187 222.11 9.97319 225.8 14.084 226.938C15.2795 227.271 19.7585 227.945 20.384 227.407C20.5101 227.296 20.7824 225.096 21.307 224.209C23.3599 220.725 26.1997 223.303 26.5023 226.364ZM27.5817 236.238C28.5754 233.459 27.4455 233.106 25.7104 231.248L23.1935 225.262C21.4936 230.473 21.9829 234.214 27.5817 236.238ZM31.9902 227.462C28.6763 227.351 25.0799 229.577 29.7809 231.294L31.9902 227.462ZM31.9902 237.879C32.0759 237.809 31.1579 236.152 30.9057 235.946C29.2361 234.591 29.1504 238.267 31.9902 237.879Z" fill="#BFF2F3"/>
<path d="M18.3108 208.314C18.9918 207.226 22.4519 207.045 22.9765 209.88C23.9349 215.061 16.268 211.577 18.3108 208.314Z" fill="#BFF2F3"/>
<path d="M13.9175 182.359C11.8546 179.121 18.0637 175.542 18.2907 179.972C18.4571 183.175 14.6741 183.547 13.9175 182.359Z" fill="#BFF2F3"/>
<path d="M24.9741 175.441C26.2351 174.172 29.6045 174.731 28.8832 177.38C27.5062 182.414 22.1949 178.235 24.9741 175.441Z" fill="#BFF2F3"/>
<path d="M24.6915 184.735C27.9449 184.272 28.8578 188.461 25.5338 188.94C22.2805 189.403 21.3675 185.214 24.6915 184.735Z" fill="#BFF2F3"/>
<path d="M30.7091 195.128C33.4732 194.876 32.8881 202.353 29.206 199.221C27.1834 197.499 28.8126 195.304 30.7091 195.128Z" fill="#BFF2F3"/>
<path d="M34.8653 185.048C33.4479 183.718 35.0166 181.73 37.2158 181.84C41.7352 182.067 37.6899 187.696 34.8653 185.048Z" fill="#BFF2F3"/>
<path d="M33.6396 207.146C34.5273 212.886 27.1883 211.275 29.3169 207.77C29.6094 207.287 33.3874 206.894 33.6396 207.146Z" fill="#BFF2F3"/>
<path d="M11.4965 200.696C12.1018 201.3 12.5356 203.022 11.663 203.601C4.33407 205.031 8.31881 197.529 11.4965 200.696Z" fill="#BFF2F3"/>
<path d="M13.9126 196.089C12.7172 195.334 13.1964 192.293 15.7587 192.273C19.7939 192.242 16.591 197.786 13.9126 196.089Z" fill="#BFF2F3"/>
<path d="M20.8279 198.446C23.7484 197.61 25.307 202.821 21.292 202.212C18.9415 201.859 18.7145 199.05 20.8279 198.446Z" fill="#BFF2F3"/>
<path d="M8.17762 208.345C11.0224 207.514 12.0716 210.243 10.5634 211.29C8.20788 212.931 5.15123 209.226 8.17762 208.345Z" fill="#BFF2F3"/>
<path d="M8.39453 188.975C6.71993 186.548 11.31 185.158 12.7324 187.671C12.8131 189.765 9.07043 189.957 8.39453 188.975Z" fill="#BFF2F3"/>
<path d="M36.2422 174.349C38.5321 176.579 34.4213 177.999 33.3267 176.438C31.7984 174.248 34.8248 172.969 36.2422 174.349Z" fill="#BFF2F3"/>
<path d="M116.032 237.537C112.027 243.891 113.989 212.926 113.278 213.108C106.07 214.87 98.3626 213.974 92.0979 209.83C88.204 213.203 93.3589 245.125 86.8774 243.302C87.1548 237.708 88.1283 232.135 88.5167 226.551C88.7689 222.941 88.3452 209.644 90.1257 207.428C90.6907 206.723 92.446 207.202 92.3854 205.706C91.644 195.989 92.6578 185.043 91.8457 175.487C91.4725 171.121 88.8597 168.367 85.0616 166.333C79.0592 163.186 76.0833 167.26 71.1301 163.856C66.2223 165.93 58.3335 158.675 57.6677 154.078C57.6929 152.402 59.0296 152.084 59.1456 151.379C59.3272 150.257 58.3033 147.442 58.2478 145.881C57.9855 130.293 57.4609 111.281 62.0863 96.3929C62.2779 94.4897 61.4406 93.0698 61.5768 91.5644C61.7634 89.4648 63.8617 88.1809 64.2047 87.0027C64.9563 84.4097 63.317 76.1524 66.9033 75.4476C96.0726 71.8375 78.4741 82.2095 87.1447 87.9443C88.7437 91.5342 86.3074 92.9238 91.4422 96.2821C99.3058 101.423 106.907 98.8751 109.732 110.964C111.593 118.914 111.482 143.233 110.468 151.828C110.317 156.767 106.473 158.358 102.282 159.294C112.571 165.865 108.415 195.662 112.728 207.212C115.346 209.241 114.387 206.452 116.032 211.728V237.527V237.537ZM82.3832 78.0154C81.899 77.3759 80.9255 77.3608 79.3316 77.3709C78.1564 77.3709 76.6936 77.3709 75.2107 77.3709C72.956 77.4061 70.7468 77.2853 68.6283 77.4364C64.9109 77.8341 66.5754 85.2103 65.2286 87.7479C65.0017 88.3571 64.6183 89.0217 64.5477 89.636C64.5376 91.791 67.9827 91.6198 69.5816 91.5291C73.9396 90.9803 81.2282 91.9168 85.2381 90.8746C86.716 90.0338 83.9519 87.8939 83.5988 86.8466C82.2672 84.3795 83.7653 80.6537 82.4185 78.0607L82.3832 78.0103V78.0154ZM85.7072 93.7445C85.3642 93.3719 85.0061 93.3921 84.3252 93.3518C83.5837 93.3065 82.8674 93.3065 81.9494 93.2914C78.4136 93.3115 75.7 93.241 72.9359 93.4273C70.4492 93.6942 67.8313 94.1977 65.2236 93.6942C64.4317 93.6589 64.3964 94.4091 64.4014 95.0184C64.3913 98.2105 63.0295 101.181 62.3788 104.257C61.8341 114.77 54.2731 156.092 68.139 156.183C69.1377 154.486 68.6535 146.319 73.4705 147.462C77.2636 148.791 75.2813 155.735 77.0971 158.438C77.6469 159.078 78.6608 158.962 78.8323 158.227C79.5283 155.644 79.1803 144.728 83.5383 144.522C89.3944 144.789 85.2835 153.071 85.687 157.265C85.793 158.156 86.7564 158.504 87.5785 158.474C93.1673 158.393 88.7487 146.793 94.403 146.747C97.9237 147.12 97.8834 152.89 97.9338 155.493C97.8783 156.399 98.7711 156.656 99.5479 156.636C103.225 156.706 105.984 156.817 107.386 153.977C109.923 147.946 109.091 112.278 105.752 107.51C101.333 99.9073 90.1913 101.523 85.7576 93.7898L85.7123 93.7395L85.7072 93.7445ZM102.287 211.864C104.597 212.096 107.023 212.131 109.363 211.849C109.989 211.768 110.74 211.597 111.119 211.119C111.558 210.595 111.285 209.608 111.063 208.914C106.847 195.158 110.029 173.563 102.453 162.612C101.495 160.976 99.4016 160.855 97.8884 160.045C95.1748 158.106 95.7599 154.219 95.1041 150.967C95.0083 150.508 94.9226 149.944 94.5897 149.683C94.2769 149.466 93.8785 149.995 93.5758 150.861C92.1685 154.848 93.4648 159.385 89.2582 160.216C87.6441 160.432 84.7741 160.744 83.7754 159.254C83.6745 159.073 83.5938 158.861 83.5433 158.625C83.1348 156.359 83.7703 152.16 84.0881 149.446C84.4866 147.482 83.7148 146.032 82.7514 148.223C81.213 152.25 81.7426 160.941 77.9092 161.001C74.9635 160.986 74.0304 158.01 73.7782 155.402C73.4453 153.967 73.7177 149.728 72.2196 149.889C70.7972 150.609 70.7821 154.003 70.6661 155.629C70.6055 157.789 70.6005 159.229 71.3773 160.573C73.7832 164.516 79.0693 161.666 82.6606 162.804C85.8686 163.72 89.7222 166.399 91.8457 168.846C97.2983 178.221 93.8331 196.08 94.2063 206.96C94.2769 207.846 94.5644 208.586 95.205 209.16C96.9048 210.52 99.8959 211.522 102.196 211.859L102.287 211.869V211.864ZM68.6132 158.866C64.3661 158.076 63.5087 157.185 59.9274 154.642C60.9211 156.883 71.2159 167.043 68.6132 158.866Z" fill="#BFF2F3"/>
<path d="M88.8748 103.512C93.2782 102.435 99.2654 103.694 102.408 107.238C107.2 112.993 108.909 128.002 103.951 130.792C100.436 132 97.4849 127.942 95.326 125.45C92.0374 121.18 87.2809 115.118 85.9594 110.103C85.1473 106.881 86.0502 104.378 88.7941 103.538L88.8748 103.512ZM103.159 127.796C105.606 125.183 104.582 115.204 102.791 111.986C101.525 109.338 99.1948 107.304 96.4761 106.211C93.6413 105.124 90.7764 104.892 88.9555 106.156C86.61 108.276 89.4246 112.067 90.6603 114.338C92.3551 116.895 99.9917 130.238 103.114 127.831L103.154 127.796H103.159Z" fill="#BFF2F3"/>
<path d="M64.6485 144.008C64.482 146.546 65.7884 149.839 66.6762 152.271C66.9536 153.263 67.4983 153.872 66.5299 154.129C63.8768 154.838 60.3409 143.46 64.6132 143.978L64.6485 144.008Z" fill="#BFF2F3"/>
<path d="M76.053 126.371C74.1262 128.405 72.6735 120.903 73.309 119.79C75.9874 118.421 76.3304 126.079 76.053 126.371Z" fill="#BFF2F3"/>
<path d="M69.3645 122.076C69.642 122.237 72.1438 127.509 71.6495 128.018C69.8538 129.301 64.255 119.941 69.3645 122.076Z" fill="#BFF2F3"/>
<path d="M85.6818 120.898C87.8961 120.863 85.0362 127.242 83.4877 126.925C81.1372 126.442 84.8344 120.913 85.6818 120.898Z" fill="#BFF2F3"/>
<path d="M80.9961 125.822C77.2787 127.021 79.4123 120.188 81.2685 119.791C82.701 120.093 81.2534 125.651 80.9961 125.822Z" fill="#BFF2F3"/>
<path d="M86.509 127.469C85.1824 126.2 91.3663 121.029 91.442 123.899C91.4672 124.886 87.7044 128.612 86.509 127.469Z" fill="#BFF2F3"/>
<path d="M70.111 79.6768C70.5044 79.9638 70.449 80.9507 70.5045 81.721C70.57 83.2517 70.6154 85.8547 70.5045 87.2192C70.4742 87.5767 70.4187 87.8032 70.1917 87.919C69.7731 88.1003 68.9257 88.1406 68.6836 87.6522C68.275 85.7742 66.9787 77.965 70.0606 79.6315L70.106 79.6718L70.111 79.6768Z" fill="#BFF2F3"/>
<path d="M187.161 44.3718C185.541 46.1894 179.554 48.7371 177.819 50.5396C176.709 51.6875 177.31 54.4467 174.419 54.4567C170.697 54.4769 155.197 42.675 151.03 40.4042L149.376 40.9782L171.333 99.6252C175.766 100.441 182.838 110.47 182.384 114.478C182.273 115.46 181.229 116.477 181.365 117.187C181.466 117.711 184.326 120.213 184.992 121.799C188.991 131.285 188.164 141.445 189.37 151.42L219.205 235.77C219.008 236.409 210.817 240.573 210.201 237.723C203.675 220.292 197.723 202.655 191.332 185.174C191.165 184.711 191.458 183.537 190.374 183.97C190.01 184.111 189.183 185.043 189.067 185.461L195.584 243.252H193.39L186.777 186.709C181.612 189.141 175.998 190.34 170.278 190.551C170.525 195.888 170.47 201.421 170.838 206.743C171.489 216.174 174.954 231.415 172.896 240.095C172.412 242.139 172.235 243.866 169.734 243.252C172.947 233.917 169.925 224.471 169.184 214.981C168.568 207.086 168.397 199.251 168.104 191.357C167.721 181.01 168.72 166.907 167.544 157.331C167.121 153.892 161.905 146.571 160.286 142.618C155.57 131.129 158.43 127.594 158.218 116.719C158.122 111.618 155.737 107.052 155.958 101.327C156.059 98.7692 158.077 92.3094 157.9 91.1514C156.952 85.0742 151.666 72.1495 149.391 65.6595C147.137 59.2248 141.361 47.574 140.282 41.8191C139.419 37.2272 142.178 35.7217 142.178 34.9262C142.178 33.7531 125.014 23.3207 122.835 21.5031C120.469 19.2424 123.98 18.1196 125.049 16.1358C125.977 14.4139 127.727 6.14149 128.549 5.62793L130.698 5.80919L187.347 42.0809C188.205 42.67 187.736 43.7374 187.166 44.3718H187.161ZM140.009 14.3585C139.939 14.2628 138.31 13.7392 137.83 14.0312C137.124 14.4592 135.601 18.1448 134.794 18.17C132.857 18.2354 134.91 12.9236 136.161 12.415C132.907 8.91071 132.721 14.9124 130.396 16.5235C126.794 14.3938 135.122 9.56525 129.573 8.30148L127.44 16.2013L176.699 48.2638L184.578 43.1533C182.101 40.6509 178.606 47.1259 176.614 46.7231C173.295 46.0585 180.724 41.4716 180.719 40.9581L178.878 39.6289L172.76 45.0767C172.044 44.4473 171.761 44.4171 172.19 43.4302C172.71 42.242 177.083 38.2493 176.876 37.9522C172.704 35.1024 173.411 39.0599 170.576 40.7164C165.224 43.8381 170.283 36.5374 172.462 35.475C169.925 31.2104 166.657 40.9933 164.775 39.0398C163.792 38.0177 167.343 33.6725 168.619 33.5416C166.354 28.6124 163.988 37.8515 161.754 37.3933C159.217 35.9987 165.355 30.853 164.77 30.2639C162.379 28.1089 160.044 36.5827 158.173 34.6443C157.209 33.6473 160.675 29.1914 161.466 28.3305C158.834 26.7042 159.63 27.6608 158.632 29.3274C158.228 30.0021 156.16 33.5517 155.691 33.5366C153.124 32.0664 156.211 29.2569 157.093 27.258C157.376 26.6236 157.895 25.2088 156.791 25.3196C155.686 25.4303 153.315 33.1036 151.57 31.3464C150.38 30.1481 154.627 25.1937 154.314 23.9601C154.138 23.2703 152.645 22.7971 152.14 23.1344C151.908 23.2905 150.839 27.2228 149.654 28.119C149.134 28.5117 147.873 28.2348 147.717 28.0535C147.268 27.5249 150.294 23.0287 150.471 21.7397C150.622 20.6169 149.739 20.6572 149.104 20.9341C148.307 21.2815 146.103 27.6004 144.413 25.8583C143.041 24.4435 149.084 19.5546 145.785 18.1851C144.993 18.1901 142.607 24.9973 140.564 23.1143C139.525 22.1576 143.838 17.6916 143.853 17.3543C143.868 17.017 143.046 16.3372 142.198 16.7904C141.84 16.9817 137.281 24.8966 137.82 19.5697C137.936 18.4267 140.801 15.4461 140.004 14.3585H140.009ZM125.175 20.3702L145.265 34.0904C146.456 35.6563 140.156 39.216 142.763 40.9883C145.023 42.529 149.089 37.3229 150.526 37.6451L173.421 51.5818C175.448 51.9091 175.892 50.0663 173.991 49.3463L126.027 18.7389C125.533 19.046 124.832 19.8718 125.18 20.3702H125.175ZM170.278 104.363L147.843 43.5863L146.92 42.4585L143.328 43.4403L159.287 89.0014C167.045 87.0076 165.234 98.4973 164.785 103.265L170.278 104.363ZM166.152 120.837C167.499 120.45 172.508 120.837 174.404 120.837C175.832 120.837 182.979 125.102 183.483 124.674C182.318 120.389 177.733 117.388 173.733 116.019C171.524 115.259 167.232 115.047 165.708 114.146C164.654 113.522 164.659 113.255 164.78 112.056C167.176 111.895 169.532 112.409 171.832 112.973C172.856 113.225 182.515 117.439 180.109 113.214C179.711 112.52 166.853 105.581 166.051 105.581C165.068 105.581 164.185 107.208 163.096 106.322C160.599 102.112 164.861 96.0403 162.042 91.9972C161.845 91.7102 161.245 90.9701 160.922 91.4534C159.641 92.3497 158.188 100.672 158.158 102.47C158.087 106.407 160.029 110.662 160.367 114.524C160.912 120.716 159.091 127.146 159.968 133.586C161.345 143.726 169.769 150.599 170.304 161.147C170.475 164.48 169.729 167.511 169.703 170.482C169.648 176.433 169.789 182.4 169.723 188.346C174.036 188.069 178.878 187.465 182.919 185.864C184.815 185.113 189.622 182.757 189.521 180.446L178.52 148.816C178.218 148.545 171.302 152.472 170.828 150.181C170.52 148.701 176.972 146.536 177.97 148.268L171.872 130.751C170.727 129.946 166.899 133.118 166.425 130.968C166.057 129.311 171.65 128.032 172.76 127.957C176.15 127.73 179.04 129.241 182.374 129.049C182.293 128.46 182.52 127.72 182.394 127.207C182.268 126.693 175.625 123.737 174.48 123.481C171.701 122.856 168.094 123.511 166.233 122.927C164.957 122.524 165.199 121.089 166.147 120.817L166.152 120.837ZM173.718 106.976C174.152 107.434 177.098 108.748 177.97 109.04C176.583 106.634 174.828 104.569 172.755 102.727C172.19 103.532 173.264 106.488 173.723 106.981L173.718 106.976ZM212.098 236.666C213.172 236.127 216.491 235.438 216.259 233.897L180.089 132.181C179.11 130.52 176.301 131.063 174.687 130.167L212.098 236.666ZM186.227 141.692C186.348 137.845 186.066 133.853 184.86 130.172L182.51 132.07L186.227 141.697V141.692Z" fill="#BFF2F3"/>
<path d="M174.127 144.436C172.836 145.674 166.43 140.342 165.32 139.23C164.649 138.555 162.768 136.601 163.681 135.655C164.594 134.708 170.112 140.327 171.1 141.143C171.675 141.616 175.464 143.147 174.127 144.431V144.436Z" fill="#BFF2F3"/>
<path d="M273.851 192.937C272.403 194.337 269.942 197.035 270.32 199.075L274.214 243.261C271.49 243.785 271.939 242.496 271.541 240.165C270.648 234.949 270.27 228.574 269.821 223.217C269.105 214.733 268.968 206.169 268.166 197.695C263.082 198.053 258.033 197.468 253.034 197.141C251.839 197.061 252.349 197.197 252.222 197.967C249.751 212.89 249.978 228.172 250.008 243.261H247.814L247.239 227.044C248.101 216.999 248.581 206.939 250.054 196.965C249.902 196.295 244.586 195.485 244.495 191.391C244.414 187.786 248.626 187.842 246.714 191.104C255.602 192.559 264.731 192.549 273.674 191.658L273.377 186.17C273.639 185.349 276.091 185.017 276.63 185.208C277.866 185.646 281.518 191.658 277.861 190.505C277.079 190.258 276.499 188.305 275.596 187.827C275.601 189.09 276.282 190.581 275.808 191.87C275.455 192.826 274.26 192.539 273.856 192.932L273.851 192.937ZM257.438 195.505H267.067L250.85 193.833L249.746 194.402L257.438 195.505Z" fill="#BFF2F3"/>
<path d="M290.723 113.712C291.53 113.159 295.116 110.42 295.404 110.435C297.23 110.52 295.454 113.652 294.577 114.256C298.728 113.088 302.032 115.51 296.231 116.461L299.807 118.652C298.763 121.632 294.99 118.068 292.937 117.826C293.553 118.697 294.935 119.447 295.389 120.333C295.767 121.063 296.514 123.732 297.068 124.658C297.931 126.103 301.023 125.675 300.08 128.535L297.053 127.453C297.956 130.378 296.463 129.381 296.236 129.643C295.651 130.328 299.979 131.687 299.53 133.741C299.323 134.678 298.728 134.386 298.072 134.119C296.519 133.485 295.338 132.095 293.482 131.279C293.321 131.073 293.043 130.907 292.932 130.73C292.196 129.593 292.236 127.669 291.833 125.791C292.383 125.771 292.937 125.816 293.482 125.791C293.674 125.57 292.816 121.29 292.579 120.842C292.075 119.875 290.859 119.498 290.325 118.234C289.225 115.641 290.844 114.689 290.728 113.712H290.723ZM294.299 125.791V126.34C294.657 126.159 294.657 125.972 294.299 125.791ZM295.394 126.35C294.849 126.733 295.691 127.105 295.954 127.428C296.498 127.065 295.696 126.703 295.394 126.35Z" fill="#BFF2F3"/>
<path d="M292.922 130.731C293.069 130.761 293.27 131.189 293.472 131.279C294.425 132.498 299.535 137.14 299.51 137.593C299.479 138.127 298.425 138.53 297.689 138.328C296.811 138.092 295.923 136.324 295.404 136.339C294.768 136.36 294.486 138.026 292.62 136.798C289.265 134.592 292.438 133.736 291.268 130.731C291.797 130.786 292.433 130.63 292.917 130.731H292.922Z" fill="#BFF2F3"/>
<path d="M291.823 125.791C288.196 125.912 290.193 124.779 289.578 124.21C289.099 123.767 286.723 125.021 286.864 121.95L285.498 123.037C283.959 122.297 285.104 119.261 284.595 118.722C284.242 118.345 282.844 119.1 282.461 117.292C281.684 113.582 283.203 114.719 283.934 114.115C284.363 113.763 284.464 113.023 284.933 112.625C285.8 111.89 289.326 109.226 290.133 109C292.66 108.295 291.934 111.462 289.624 111.527C289.336 112.479 290.658 113.164 290.718 113.712C287.782 115.731 288.796 116.451 284.67 114.815C283.873 117.499 286.184 118.506 288.438 118.727C288.847 119.382 288.948 122.327 289.109 122.468C290.426 123.641 290.612 120.187 291.823 125.791Z" fill="#BFF2F3"/>
<path d="M252.676 109.8C252.207 110.072 250.336 109.528 249.837 109.226C247.814 107.998 249.812 105.657 249.746 103.844C248.954 106.442 242.518 111.915 245.156 106.392C245.746 105.153 248.868 100.148 250.235 100.576C251.955 101.11 252.298 104.504 251.94 106.029L255.577 100.053L259.925 100.808C260.823 101.468 260.187 101.457 260.015 102.001C259.572 103.406 256.732 110.213 255.249 109.876C252.777 109.317 257.04 104.086 256.898 102.751C255.733 103.592 253.257 109.468 252.676 109.805V109.8ZM257.438 101.639V102.188C257.796 102.006 257.796 101.82 257.438 101.639Z" fill="#BFF2F3"/>
<path d="M296.771 150.493L293.477 149.949C293.497 150.911 295.005 150.684 295.676 151.319C298.274 153.781 293.462 153.7 291.828 152.139C292.05 153.755 291.828 154.027 290.178 153.796C291.096 155.2 294.632 155.588 295.419 157.068C296.957 159.948 292.367 157.597 292.13 157.597C291.586 157.597 291.823 159.319 290.541 159.223C288.171 159.047 286.854 154.194 287.969 153.489L289.613 153.524C287.762 153.096 286.103 149.556 287.096 148.283C287.606 147.633 288.695 147.97 289.19 147.703C289.79 147.381 289.492 146.571 290.385 146.636C291.333 146.707 298.602 148.71 296.771 150.493Z" fill="#BFF2F3"/>
<path d="M286.32 108.23C287.434 109.388 284.151 112.499 283.298 113.189C282.738 113.647 281.593 113.617 281.452 113.788C281.25 114.025 280.62 118.803 280.232 119.89C280.05 120.404 279.223 120.303 279.152 120.671C278.814 122.473 281.074 123.954 278.34 124.669C277.765 124.664 276.393 121.215 276.418 120.535C276.474 119.221 278.022 119.447 278.113 118.853C278.285 117.796 276.66 116.195 278.073 115.107C278.204 115.007 279.52 115.928 279.677 113.405C279.692 113.189 278.007 113.431 278.718 111.356C278.94 110.717 283.954 105.032 284.403 104.932L285.77 105.762C286.199 107.374 282.844 109.403 281.931 110.697C283.016 110.833 285.22 107.082 286.32 108.224V108.23ZM281.366 113.164V112.071L280.272 112.897L281.366 113.164Z" fill="#BFF2F3"/>
<path d="M252.762 126.34L250.296 136.491C250.528 137.18 250.386 139.184 250.649 139.466C250.891 139.723 252.127 139.214 252.253 139.809C252.49 140.916 251.935 144.788 250.301 144.451C248.646 143.751 250.275 141.41 250.023 141.163C249.943 141.087 248.888 141.203 248.384 140.876C246.951 139.955 249.176 137.347 249.297 136.395C249.403 135.564 248.752 134.592 248.888 133.762C249.035 132.876 250.533 124.105 252.772 126.335L252.762 126.34Z" fill="#BFF2F3"/>
<path d="M231.86 114.267C221.611 114.518 226.221 111.538 233.262 112.036C234.331 112.112 235.133 112.978 235.441 112.983C235.809 112.983 238.573 110.269 239.007 112.353C239.385 114.176 229.978 119.266 231.86 114.267Z" fill="#BFF2F3"/>
<path d="M241.206 127.992C240.873 132.422 237.408 131.395 234.578 132.075C232.526 132.568 229.393 134.285 228.168 134.477C227.522 134.577 226.422 134.431 226.372 133.757C226.236 132.06 232.869 130.021 234.377 129.678C235.512 129.422 236.894 129.87 238.079 129.527C239.047 129.245 239.612 127.503 241.211 127.992H241.206Z" fill="#BFF2F3"/>
<path d="M272.57 111.517C272.646 110.621 272.192 106.568 273.397 106.588C273.801 106.593 274.638 107.912 274.759 108.512C274.966 109.559 274.038 112.182 275.591 112.071C276.181 105.43 281.599 104.121 277.962 111.704C277.649 112.353 276.782 112.454 276.59 112.776C276.086 113.622 276.494 115.213 275.047 115.898C273.095 113.859 275.712 112.469 272.57 111.517C272.474 112.62 271.839 114.12 272 114.997C272.071 115.384 273.004 115.309 273.11 115.732C273.543 117.489 273.554 121.597 270.921 120.847C270.663 120.595 271.158 116.759 270.91 115.732C270.774 115.178 269.74 115.852 269.846 114.085C269.977 111.915 270.472 110.883 272.57 111.517Z" fill="#BFF2F3"/>
<path d="M264.313 110.425L261.569 112.615C260.838 108.99 263.017 109.589 264.56 108.194C265.412 107.424 266.946 103.527 268.434 103.834C270.815 104.328 266.673 108.647 266.386 109.483C265.962 110.722 266.941 112.605 265.135 113.713C263.092 113.426 263.95 111.855 264.313 110.425Z" fill="#BFF2F3"/>
<path d="M239.557 133.48C240.223 134.139 238.447 136.46 237.509 136.692C236.47 136.949 235.512 136.244 234.458 136.335C232.778 136.476 230.241 138.323 228.571 138.721C226.902 139.119 226.08 137.548 227.598 136.627C228.506 136.073 232.036 134.628 233.065 134.386C234.75 133.993 235.461 134.537 236.44 134.406C236.97 134.336 238.846 132.775 239.557 133.48Z" fill="#BFF2F3"/>
<path d="M287.419 142.26C287.192 139.859 287.732 136.727 289.457 139.949C289.745 140.488 289.558 141.606 290.133 142.024C290.39 142.21 291.52 141.681 292.357 141.938C292.968 142.125 297.27 143.987 297.346 144.249C298.491 148.474 292.509 144.108 291.409 143.972C290.012 143.801 289.427 145.76 287.969 143.907C287.979 142.89 287.833 142.96 287.419 142.26Z" fill="#BFF2F3"/>
<path d="M287.969 143.907C287.934 147.89 285.049 145.654 285.21 142.815L283.566 144.738C281.906 145.533 281.8 138.193 284.66 139.522C284.141 142.276 286.178 140.181 287.414 142.261C287.5 143.192 287.334 143.107 287.964 143.907H287.969Z" fill="#BFF2F3"/>
<path d="M236.137 121.512C238.538 121.245 239.436 122.645 237.217 123.722C236.773 123.939 228.178 126.29 227.684 126.315C227.028 126.35 225.812 126.119 225.822 125.514C225.843 124.095 234.609 121.683 236.137 121.512Z" fill="#BFF2F3"/>
<path d="M258.815 110.42L258.265 109.871C258.386 109.74 258.79 108.098 259.627 107.112C260.868 105.652 263.39 103.099 264.863 101.906C266.512 100.571 267.491 101.266 266.648 103.134C266.103 104.342 259.93 110.49 258.815 110.42Z" fill="#BFF2F3"/>
<path d="M258.265 109.871L258.815 110.42C259.138 114.09 255.556 114.347 256.691 110.757C256.989 109.816 258.149 110.002 258.265 109.871Z" fill="#BFF2F3"/>
<path d="M233.388 118.254C234.276 118.159 237.958 117.937 236.541 119.76C236.258 120.127 228.652 121.754 227.567 121.824C224.803 122 224.274 120.57 227.003 119.578C228.364 119.085 231.87 118.42 233.383 118.254H233.388Z" fill="#BFF2F3"/>
<path d="M242.715 155.296C243.053 154.672 243.335 149.506 245.327 149.949C247.179 150.357 245.1 153.916 244.707 154.807C243.804 156.862 242.679 158.896 240.934 160.366C237.787 158.448 242.16 156.323 242.715 155.296Z" fill="#BFF2F3"/>
<path d="M237.358 125.791C237.434 126.803 237.555 127.463 236.42 127.866C235.532 128.183 227.26 129.96 226.912 129.628C226.382 129.124 227.043 128.027 227.845 127.543C228.995 126.843 236.707 125.177 237.358 125.791Z" fill="#BFF2F3"/>
<path d="M251.113 120.852C252.106 121.859 248.656 128.651 247.738 129.829C246.593 131.305 244.899 131.048 245.514 129.27C246.16 127.413 247.506 126.295 248.238 124.84C248.535 124.251 249.368 119.08 251.108 120.852H251.113Z" fill="#BFF2F3"/>
<path d="M279.324 184.67C279.389 184.549 279.929 184.524 280.055 184.297C280.328 183.814 280.211 183.149 280.62 182.832C282.955 181.019 289.497 187.348 280.832 184.796C281.488 185.395 284.892 188.899 282.739 189.463C281.089 189.896 278.729 185.803 279.324 184.67Z" fill="#BFF2F3"/>
<path d="M249.943 115.872C249.741 116.064 248.656 115.741 248.439 115.958C248.313 116.084 248.233 118.546 247.854 119.523C246.467 123.092 244.218 120.489 246.271 116.819C246.674 116.099 247.703 116.013 247.824 115.53C247.986 114.87 247.3 109.659 249.468 111.245C250.205 111.779 250.245 115.585 249.943 115.877V115.872Z" fill="#BFF2F3"/>
<path d="M235.159 138.419C235.683 138.912 235.033 140.02 234.231 140.503C233.923 140.69 227.996 142.986 227.487 143.117C226.498 143.368 226.478 143.358 225.812 142.522C225.383 140.488 234.387 137.689 235.159 138.414V138.419Z" fill="#BFF2F3"/>
<path d="M279.541 165.482C279.445 165.265 278.572 165.235 278.305 164.278C277.71 162.138 278.214 159.082 279.984 161.484C280.469 162.144 280.363 163.664 280.776 164.535C281.109 165.235 284.403 169.238 282.184 169.706C280.353 170.089 279.939 166.388 279.536 165.487L279.541 165.482Z" fill="#BFF2F3"/>
<path d="M290.743 139.486C290.4 138.978 290.925 137.437 291.56 137.316C291.969 137.236 299.197 139.819 298.97 140.876C298.551 142.83 290.985 139.844 290.743 139.486Z" fill="#BFF2F3"/>
<path d="M232.198 151.636C233.312 151.459 233.877 152.819 233.257 153.806C233.065 154.108 227.537 157.622 227.179 157.612C226.513 157.597 226.15 156.283 226.619 155.417C226.826 155.029 231.865 151.686 232.198 151.636Z" fill="#BFF2F3"/>
<path d="M226.362 152.139C224.904 150.74 231.532 147.653 232.39 147.442C233.373 147.195 233.398 147.195 234.059 148.036C234.397 149.622 227.088 152.839 226.362 152.144V152.139Z" fill="#BFF2F3"/>
<path d="M234.609 142.261C236.006 143.645 229.555 146.747 228.581 146.963C227.769 147.145 227.436 146.253 226.917 145.825C226.897 145.015 233.807 141.47 234.604 142.261H234.609Z" fill="#BFF2F3"/>
<path d="M243.961 185.078C244.717 185.803 241.186 193.889 239.567 192.207C239.189 191.814 241.524 185.349 241.842 185.153C242.321 184.861 243.325 185.158 243.961 185.078Z" fill="#BFF2F3"/>
<path d="M271.198 103.834C274.199 103.104 270.472 111.834 268.999 111.517C266.931 111.069 270.547 103.995 271.198 103.834Z" fill="#BFF2F3"/>
<path d="M287.969 183.426C286.527 184.756 280.58 178.789 281.921 177.395C283.031 176.242 288.832 182.631 287.969 183.426Z" fill="#BFF2F3"/>
<path d="M237.151 105.541C238.7 105.118 244.344 106.714 243.955 108.491C243.259 110.39 236.738 107.046 236.526 106.578C236.006 106.221 236.838 105.626 237.146 105.541H237.151Z" fill="#BFF2F3"/>
<path d="M293.472 160.93C294.254 165.451 286.098 160.698 286.325 159.561C286.738 157.486 292.272 161.152 293.472 160.93Z" fill="#BFF2F3"/>
<path d="M237.787 190.984C237.716 191.064 236.601 191.658 236.531 191.648C234.463 191.492 237.529 184.161 239.275 184.529C240.112 185.189 240.122 185.214 239.87 186.196C239.769 186.578 237.958 190.787 237.782 190.979L237.787 190.984Z" fill="#BFF2F3"/>
<path d="M276.383 147.779C276.63 148.011 277.957 154.068 276.686 154.329C275.046 154.667 274.27 149.697 274.214 148.564C274.143 147.134 276.302 147.698 276.388 147.779H276.383Z" fill="#BFF2F3"/>
<path d="M288.519 180.133C287.677 180.969 283.651 177.007 283.283 176.302C282.784 175.335 283.192 175.249 283.853 174.645C285.538 174.086 289.19 179.464 288.519 180.133Z" fill="#BFF2F3"/>
<path d="M232.405 109.871C231.144 106.241 238.815 108.129 239.007 109.06C239.527 111.573 233.529 109.665 232.405 109.871Z" fill="#BFF2F3"/>
<path d="M260.464 182.883C260.888 183.311 259.809 187.792 259.309 188.592C258.785 189.433 257.584 189.428 257.165 188.92C256.797 188.466 258.608 181.025 260.464 182.883Z" fill="#BFF2F3"/>
<path d="M284.675 171.907C285.795 170.451 290.92 174.449 290.718 175.461C290.194 178.125 283.924 172.878 284.675 171.907Z" fill="#BFF2F3"/>
<path d="M263.213 182.882C263.395 183.059 263.223 187.147 263.067 187.958C262.936 188.632 262.845 189.75 261.851 189.463C259.884 188.501 261.085 180.793 263.213 182.882Z" fill="#BFF2F3"/>
<path d="M276.408 157.078C276.701 157.315 277.927 164.147 275.601 163.664C274.466 163.427 274.406 157.32 274.774 157.083C275.223 157.149 276.257 156.962 276.408 157.083V157.078Z" fill="#BFF2F3"/>
<path d="M230.76 185.073C229.736 184.01 233.676 179.066 234.331 179.046C236.99 178.975 232.183 186.548 230.76 185.073Z" fill="#BFF2F3"/>
<path d="M268.167 174.096C268.424 174.343 268.696 181.08 266.8 180.682C264.903 180.284 265.977 171.992 268.167 174.096Z" fill="#BFF2F3"/>
<path d="M235.083 188.839C234.654 189.136 233.58 188.829 232.964 188.914C232.289 187.585 235.083 182.913 235.986 182.887C237.701 182.847 235.345 188.652 235.083 188.834V188.839Z" fill="#BFF2F3"/>
<path d="M230.624 161.57C234.564 161.061 231.204 164.354 227.865 164.908C225.863 165.24 225.762 163.589 227.29 162.672C227.684 162.436 230.135 161.63 230.624 161.57Z" fill="#BFF2F3"/>
<path d="M287.707 163.664C288.766 163.941 293.164 166.066 292.917 167.224C292.347 169.882 284.398 164.303 287.707 163.664Z" fill="#BFF2F3"/>
<path d="M263.758 133.474C260.48 134.909 262.376 127.674 262.669 127.438C262.886 127.261 263.94 127.428 264.328 127.694C265.524 128.51 263.849 132.045 263.753 133.474H263.758Z" fill="#BFF2F3"/>
<path d="M253.862 160.376C254.073 161.474 253.897 167.375 251.945 166.957C250.013 166.036 252.52 158.795 253.862 160.376Z" fill="#BFF2F3"/>
<path d="M276.418 129.633C276.106 128.112 275.778 126.547 275.864 124.971C278.048 123.022 278.966 129.286 278.618 129.633C277.947 129.547 276.999 129.784 276.413 129.633C276.585 130.459 278.648 134.608 276.146 134.023C275.521 133.877 271.99 127.846 275.036 127.987C275.697 128.41 275.546 129.411 276.418 129.633Z" fill="#BFF2F3"/>
<path d="M255.511 181.236C255.895 181.614 255.617 187.711 253.594 187.268C251.92 186.9 253.564 179.313 255.511 181.236Z" fill="#BFF2F3"/>
<path d="M262.119 160.92C261.887 159.818 262.21 154.496 264.036 154.888C265.473 155.195 264.812 161.978 262.119 160.92Z" fill="#BFF2F3"/>
<path d="M270.653 158.73C272.242 158.393 273.967 164.409 272.287 164.762C270.699 165.099 268.974 159.082 270.653 158.73Z" fill="#BFF2F3"/>
<path d="M253.862 114.815C254.8 115.787 251.375 121.708 250.018 120.298C249.08 119.326 252.505 113.405 253.862 114.815Z" fill="#BFF2F3"/>
<path d="M282.476 147.754C283.858 146.737 287.041 153.363 284.938 153.786C283.46 154.083 281.452 148.509 282.476 147.754Z" fill="#BFF2F3"/>
<path d="M269.261 143.358L269.826 149.073C269.871 149.606 268.726 149.491 268.444 149.405C267.929 149.244 265.75 142.109 269.261 143.358Z" fill="#BFF2F3"/>
<path d="M256.071 174.101C256.525 173.789 258.094 174.232 258.245 174.962C258.305 175.259 257.009 180.395 255.799 180.138C254.2 179.796 255.814 174.283 256.071 174.106V174.101Z" fill="#BFF2F3"/>
<path d="M253.322 169.157C253.781 168.85 255.304 169.248 255.466 170.023C255.577 170.557 254.366 175.471 253.045 175.194C251.612 174.892 253.06 169.333 253.317 169.162L253.322 169.157Z" fill="#BFF2F3"/>
<path d="M240.112 169.157C240.349 167.622 240.313 165.89 241.277 164.556C244.349 160.311 243.118 168.332 242.25 169.097C241.993 169.324 240.677 169.147 240.112 169.157C240.006 169.857 240.899 169.837 239.562 171.62C235.613 176.891 235.017 170.648 239.007 168.896C239.602 168.634 239.935 169.163 240.107 169.157H240.112Z" fill="#BFF2F3"/>
<path d="M263.768 143.358C266.88 142.2 266.401 149.123 265.13 149.39C263.042 149.828 263.904 144.395 263.768 143.358Z" fill="#BFF2F3"/>
<path d="M284.67 127.991C282.844 129.764 280.918 122.347 282.754 121.955C284.59 121.562 284.897 126.939 284.67 127.991Z" fill="#BFF2F3"/>
<path d="M248.823 164.666C248.298 164.983 246.513 165.225 246.709 163.941C246.866 162.909 248.429 159.002 249.731 159.274C251.38 159.621 249.07 164.515 248.823 164.661V164.666Z" fill="#BFF2F3"/>
<path d="M279.036 174.792C281.558 177.274 281.19 182.787 278.164 178.12C276.59 175.698 276.968 172.757 279.036 174.792Z" fill="#BFF2F3"/>
<path d="M280.812 148.851C281.074 149.032 282.854 154.359 281.094 154.873C280.322 154.858 278.512 150.336 278.643 149.707C278.794 148.977 280.358 148.534 280.812 148.851Z" fill="#BFF2F3"/>
<path d="M274.724 173.034C275.319 173.397 275.45 177.767 275.324 178.714C272.393 180.29 273.211 174.862 273.12 172.994C273.604 173.069 274.421 172.848 274.724 173.034Z" fill="#BFF2F3"/>
<path d="M272.565 171.902C269.236 172.788 269.942 168.87 269.821 166.418C272.721 165.885 272.191 169.903 272.565 171.902Z" fill="#BFF2F3"/>
<path d="M284.6 161.559C284.907 162.013 285.881 167.445 283.853 166.962C282.819 166.715 281.593 161.675 283.293 160.935C283.54 161.428 284.458 161.353 284.6 161.559Z" fill="#BFF2F3"/>
<path d="M268.161 166.957H265.967V172.45H268.161V166.957Z" fill="#BFF2F3"/>
<path d="M257.72 140.061L259.38 140.327L259.859 140.927C259.223 149.154 256.036 146.601 257.72 140.061Z" fill="#BFF2F3"/>
<path d="M261.569 140.061C261.71 138.807 261.912 133.757 264.035 134.577C265.629 135.197 263.929 141.017 261.569 140.061Z" fill="#BFF2F3"/>
<path d="M267.062 181.785C268 182.49 267.723 188.32 266.245 188.36C264.767 188.401 265.024 180.259 267.062 181.785Z" fill="#BFF2F3"/>
<path d="M259.909 119.754C260.827 120.353 259.329 125.192 257.993 125.781C256.263 125.791 257.625 118.269 259.909 119.754Z" fill="#BFF2F3"/>
<path d="M267.899 159.827C269.891 159.409 269.69 165.597 268.434 165.859C266.441 166.277 266.643 160.089 267.899 159.827Z" fill="#BFF2F3"/>
<path d="M251.94 152.149C253.428 152.099 252.959 158.629 250.846 158.176C249.211 157.824 250.815 152.189 251.94 152.149Z" fill="#BFF2F3"/>
<path d="M257.71 166.962L256.056 166.695L255.577 166.096L256.621 161.474C260.495 161.212 257.599 164.721 257.71 166.962Z" fill="#BFF2F3"/>
<path d="M280.267 140.609C278.638 142.225 275.667 135.569 277.801 135.126C279.379 134.799 280.686 140.191 280.267 140.609Z" fill="#BFF2F3"/>
<path d="M239.895 177.445C243.411 176.372 240.268 182.797 238.195 182.329C236.621 181.971 239.259 177.641 239.895 177.445Z" fill="#BFF2F3"/>
<path d="M280.272 126.889C281.901 125.273 284.872 131.929 282.738 132.372C281.16 132.699 279.853 127.307 280.272 126.889Z" fill="#BFF2F3"/>
<path d="M251.663 167.511C251.94 167.798 251.4 173.759 249.196 172.994C247.567 172.425 250.054 165.844 251.663 167.511Z" fill="#BFF2F3"/>
<path d="M251.113 183.432C251.743 184.086 250.17 190.747 248.369 188.915C247.537 188.069 249.378 181.624 251.113 183.432Z" fill="#BFF2F3"/>
<path d="M234.059 175.748C235.209 176.855 229.595 181.639 229.116 179.302C228.914 178.326 232.581 174.882 234.059 175.748Z" fill="#BFF2F3"/>
<path d="M243.411 147.2C244.031 147.809 242.483 153.005 240.944 152.688C238.901 152.265 241.928 145.745 243.411 147.2Z" fill="#BFF2F3"/>
<path d="M269.271 179.584C269.291 178.577 268.913 173.215 271.188 174.101C272.429 174.585 271.843 180.632 269.271 179.584Z" fill="#BFF2F3"/>
<path d="M263.213 173.004C263.057 173.15 261.983 173.039 261.549 172.742C260.358 171.926 262.099 168.89 261.569 167.511C264.732 166.121 263.541 172.702 263.213 173.004Z" fill="#BFF2F3"/>
<path d="M265.412 114.266C266.018 114.805 263.652 120.207 261.569 119.2C261.967 117.015 262.734 113.41 265.412 114.266Z" fill="#BFF2F3"/>
<path d="M235.991 160.935C238.13 161.006 235.149 166.368 233.242 165.859C230.977 165.25 235.209 160.91 235.991 160.935Z" fill="#BFF2F3"/>
<path d="M246.714 157.079C246.487 155.951 247.642 151.283 249.181 151.596C251.259 152.018 248.238 158.644 246.714 157.079Z" fill="#BFF2F3"/>
<path d="M283.303 154.888C285.064 154.521 286.794 159.994 284.938 160.371C283.611 160.638 281.745 155.216 283.303 154.888Z" fill="#BFF2F3"/>
<path d="M272.565 135.126C273.14 135.72 271.606 142.346 269.821 140.614C268.999 139.814 270.814 133.304 272.565 135.126Z" fill="#BFF2F3"/>
<path d="M261.019 142.261C261.438 141.923 262.966 142.346 263.173 143.152C263.319 143.731 262.512 147.603 261.831 147.744C259.587 148.212 260.782 142.447 261.019 142.256V142.261Z" fill="#BFF2F3"/>
<path d="M243.965 147.195C243.34 146.535 244.919 141.384 246.432 141.712C248.278 142.115 245.534 148.846 243.965 147.195Z" fill="#BFF2F3"/>
<path d="M291.268 172.45C289.079 172.053 285.462 171.292 286.325 168.614C286.864 168.009 292.277 170.371 291.268 172.45Z" fill="#BFF2F3"/>
<path d="M266.517 134.572V128.812C270.714 126.97 267.834 136.093 266.517 134.572Z" fill="#BFF2F3"/>
<path d="M273.664 149.395C270.946 150.493 270.784 144.451 271.47 143.912C273.059 142.658 274.28 148.433 273.664 149.395Z" fill="#BFF2F3"/>
<path d="M245.64 133.5C249.927 132.478 245.781 138.958 245.337 138.958C243.073 138.948 245.272 134.562 245.64 133.5Z" fill="#BFF2F3"/>
<path d="M264.273 180.652C261.453 182.384 262.659 174.701 264.041 174.66C265.423 174.62 264.923 180.254 264.273 180.652Z" fill="#BFF2F3"/>
<path d="M255.511 133.48C255.788 133.751 255.93 140.352 253.317 138.968L253.403 134.386C253.468 133.52 255.203 133.172 255.516 133.48H255.511Z" fill="#BFF2F3"/>
<path d="M256.061 140.065C256.338 140.337 256.479 146.938 253.867 145.554L253.952 140.972C254.018 140.106 255.753 139.758 256.066 140.065H256.061Z" fill="#BFF2F3"/>
<path d="M256.348 146.651C259.017 146.027 256.707 151.57 255.244 152.129C252.772 151.656 255.738 146.792 256.348 146.651Z" fill="#BFF2F3"/>
<path d="M236.813 165.31C235.809 164.389 240.611 158.634 241.211 161.756C241.358 162.521 238.367 166.363 236.813 165.31Z" fill="#BFF2F3"/>
<path d="M243.411 109.876C243.94 110.354 241.837 115.112 240.394 114.81C238.78 114.448 241.075 110.103 241.302 109.967C241.822 109.659 242.76 109.952 243.411 109.876Z" fill="#BFF2F3"/>
<path d="M261.564 175.199C262.144 175.788 261.357 181.966 258.82 180.134C258.401 178.92 259.94 173.548 261.564 175.199Z" fill="#BFF2F3"/>
<path d="M281.916 136.768C280.368 138.338 277.755 132.473 279.995 131.29C281.311 131.783 282.481 136.194 281.916 136.768Z" fill="#BFF2F3"/>
<path d="M272.524 157.043C272.222 157.224 271.405 157.008 270.92 157.083C270.593 145.599 275.102 155.467 272.524 157.043Z" fill="#BFF2F3"/>
<path d="M259.909 160.371C256.258 160.633 258.568 157.547 258.825 155.432C262.477 155.17 260.167 158.257 259.909 160.371Z" fill="#BFF2F3"/>
<path d="M259.915 134.024L259.36 138.61C256.475 140.745 257.256 134.512 257.756 134.059C257.998 133.837 259.35 134.119 259.915 134.024Z" fill="#BFF2F3"/>
<path d="M249.196 173.553C252.112 172.954 249.181 178.829 247.547 178.487C245.63 177.742 248.551 173.684 249.196 173.553Z" fill="#BFF2F3"/>
<path d="M246.709 171.358C247.521 172.173 244.893 177.782 243.416 176.292C242.603 175.476 245.231 169.867 246.709 171.358Z" fill="#BFF2F3"/>
<path d="M246.16 157.632C246.851 158.337 245 163.105 244.238 163.11C241.756 163.11 244.435 155.87 246.16 157.632Z" fill="#BFF2F3"/>
<path d="M277.518 146.097C276.04 147.588 273.412 141.979 274.224 141.163C275.702 139.673 278.33 145.282 277.518 146.097Z" fill="#BFF2F3"/>
<path d="M255.471 131.244C255.168 131.425 254.351 131.209 253.867 131.284C253.539 119.8 258.048 129.668 255.471 131.244Z" fill="#BFF2F3"/>
<path d="M272.02 127.438C271.96 129.079 272.07 130.741 272.02 132.382C270.139 133.374 269.453 129.658 269.876 128.344C270.204 127.332 271.173 127.397 272.02 127.438C272.06 126.35 271.48 122.101 273.387 122.498C274.476 122.725 274.416 126.169 274.133 127.075C273.619 128.732 272.489 127.458 272.02 127.433V127.438Z" fill="#BFF2F3"/>
<path d="M247.259 165.316C247.658 165.709 246.604 170.386 245.337 170.794C243.113 169.616 245.686 163.76 247.259 165.316Z" fill="#BFF2F3"/>
<path d="M244.51 130.736C245.166 131.345 242.447 136.022 240.667 135.121C240.188 133.46 242.957 129.291 244.51 130.736Z" fill="#BFF2F3"/>
<path d="M286.325 130.736C287.778 129.286 291.031 135.177 288.791 135.67C287.394 135.977 285.79 131.275 286.325 130.736Z" fill="#BFF2F3"/>
<path d="M242.311 143.358C242.851 143.897 241.242 148.6 239.845 148.293C237.605 147.799 240.858 141.908 242.311 143.358Z" fill="#BFF2F3"/>
<path d="M269.271 183.431C271.45 182.424 273.427 188.008 271.737 188.366C270.048 188.723 268.968 184.594 269.271 183.431Z" fill="#BFF2F3"/>
<path d="M277.523 154.339C280.444 153.292 280.539 159.812 278.895 159.817C277.236 158.418 277.463 156.313 277.523 154.339Z" fill="#BFF2F3"/>
<path d="M268.716 157.079C267.284 158.488 266.421 155.503 266.477 154.053C266.724 147.955 270.164 155.649 268.716 157.079Z" fill="#BFF2F3"/>
<path d="M237.882 142.779C237.368 143.127 235.835 142.603 235.713 141.969C235.638 141.586 237.116 137.633 238.18 137.87C239.86 138.238 238.251 142.537 237.882 142.779Z" fill="#BFF2F3"/>
<path d="M247.764 185.032C245.095 186.744 246.467 180.345 246.72 180.133C247.093 179.816 248.661 180.194 248.878 181.024C248.999 181.493 247.94 184.921 247.764 185.032Z" fill="#BFF2F3"/>
<path d="M241.766 127.981C241.151 127.347 242.81 123.158 244.782 123.596C246.21 123.913 244.621 126.37 244.218 126.864C243.703 127.498 242.361 128.591 241.766 127.981Z" fill="#BFF2F3"/>
<path d="M261.549 166.952L259.365 166.962C259.218 160.814 263.132 159.998 261.549 166.952Z" fill="#BFF2F3"/>
<path d="M259.914 149.944C259.758 151.127 259.355 155.07 257.443 154.329C255.778 153.685 257.655 150.156 258.532 149.42L259.914 149.944Z" fill="#BFF2F3"/>
<path d="M231.305 157.632C232.823 159.118 227.265 161.499 226.362 160.371C225.328 159.082 230.357 156.706 231.305 157.632Z" fill="#BFF2F3"/>
<path d="M249.186 144.466C251.557 144.542 249.196 149.894 248.086 149.934C246.296 149.994 247.99 144.431 249.186 144.466Z" fill="#BFF2F3"/>
<path d="M253.862 146.097C254.306 146.53 253.7 151.399 251.945 151.036C250.094 150.654 252.238 144.511 253.862 146.097Z" fill="#BFF2F3"/>
<path d="M265.972 141.707C265.115 141.078 266.446 136.214 267.344 136.234C269.664 136.279 267.531 142.845 265.972 141.707Z" fill="#BFF2F3"/>
<path d="M240.525 119.603C238.644 121.436 237.923 118.959 239.451 116.623C241.635 113.279 242.523 117.655 240.525 119.603Z" fill="#BFF2F3"/>
<path d="M278.063 184.524C276.726 185.556 274.063 180.058 276.151 179.589C277.659 179.252 278.93 183.854 278.063 184.524Z" fill="#BFF2F3"/>
<path d="M290.168 130.731C288.206 131.753 286.138 126.718 287.702 126.345C289.866 125.832 290.214 129.301 290.168 130.731Z" fill="#BFF2F3"/>
<path d="M244.515 109.871C244.974 109.458 246.669 109.931 246.699 111.2C246.73 112.348 245.731 114.08 244.788 114.8C243.35 114.413 244.329 110.042 244.52 109.871H244.515Z" fill="#BFF2F3"/>
<path d="M245.06 179.036C245.413 179.383 244.767 184.312 243.143 183.975C241.292 183.587 243.436 177.45 245.06 179.036Z" fill="#BFF2F3"/>
<path d="M259.355 132.377C256.989 134.296 257.065 127.74 258.548 127.438C260.737 126.99 259.577 132.196 259.355 132.377Z" fill="#BFF2F3"/>
<path d="M238.195 155.437C241.267 155.714 237.706 160.064 236.546 159.822C234.463 159.389 237.333 155.855 238.195 155.437Z" fill="#BFF2F3"/>
<path d="M274.214 184.529C271.576 185.632 271.44 179.882 272.847 179.59C275.067 179.947 274.018 182.948 274.214 184.529Z" fill="#BFF2F3"/>
<path d="M255.511 120.303C255.975 120.771 255.33 126.345 252.767 124.689C252.212 123.425 254.064 118.843 255.511 120.303Z" fill="#BFF2F3"/>
<path d="M251.118 180.133C251.072 178.708 251.42 175.239 253.584 175.748C255.148 176.115 253.08 181.155 251.118 180.133Z" fill="#BFF2F3"/>
<path d="M245.06 115.913C245.554 117.011 243.078 121.638 241.766 120.298C240.995 119.508 242.972 115.022 245.06 115.913Z" fill="#BFF2F3"/>
<path d="M242.311 170.804C242.634 172.042 241.726 175.904 239.844 175.189C237.963 174.474 241.136 169.636 242.311 170.804Z" fill="#BFF2F3"/>
<path d="M278.623 170.809C280.247 170.089 282.744 172.44 282.471 173.815C281.967 176.347 277.594 171.796 278.623 170.809Z" fill="#BFF2F3"/>
<path d="M268.161 119.754H266.517V114.815C270.013 114.438 268.172 117.71 268.161 119.754Z" fill="#BFF2F3"/>
<path d="M228.561 175.194C227.189 173.709 231.805 169.887 232.949 172.727C232.49 173.422 229.202 175.889 228.561 175.194Z" fill="#BFF2F3"/>
<path d="M276.373 164.802C276.807 165.069 277.241 169.394 276.963 169.706C273.997 169.912 273.881 163.281 276.373 164.802Z" fill="#BFF2F3"/>
<path d="M269.266 122.499C269.831 127.03 266.537 128.848 267.062 123.047C266.028 123.103 266.416 126.033 265.962 126.335C263.39 128.042 263.97 123.193 264.873 121.945C266.618 122.046 267.405 123.259 269.266 122.494V122.499Z" fill="#BFF2F3"/>
<path d="M263.213 153.791H261.569V148.851C265.064 148.474 263.223 151.746 263.213 153.791Z" fill="#BFF2F3"/>
<path d="M242.861 138.419C243.466 139.033 241.645 144.31 240.117 142.809C239.199 141.913 241.373 136.908 242.861 138.419Z" fill="#BFF2F3"/>
<path d="M256.616 173.548C255.309 172.168 258.845 165.28 258.86 171.086C258.86 172.485 257.741 174.741 256.616 173.548Z" fill="#BFF2F3"/>
<path d="M236.808 147.749C232.692 146.132 237.777 143.247 238.457 143.907C238.76 145.594 237.418 146.515 236.808 147.749C237.358 147.965 238.463 147.487 238.997 148.569C238.367 149.601 236.702 152.97 235.164 151.59C234.599 151.082 236.445 148.489 236.813 147.749H236.808Z" fill="#BFF2F3"/>
<path d="M285.225 138.419L284.665 134.305C287.132 132.855 288.786 139.209 285.225 138.419Z" fill="#BFF2F3"/>
<path d="M256.611 154.888C257.423 155.704 256.121 160.991 254.417 159.274C253.604 158.458 254.906 153.171 256.611 154.888Z" fill="#BFF2F3"/>
<path d="M280.817 143.358C281.629 144.174 280.327 149.461 278.623 147.744C277.811 146.928 279.112 141.641 280.817 143.358Z" fill="#BFF2F3"/>
<path d="M254.961 110.419C255.506 111.094 253.816 114.427 252.495 114.261C250.508 113.843 253.383 108.456 254.961 110.419Z" fill="#BFF2F3"/>
<path d="M236.258 166.962C237.02 167.757 235.088 171.05 233.797 170.799C231.219 170.3 235.078 165.733 236.258 166.962Z" fill="#BFF2F3"/>
<path d="M275.314 138.963C273.528 140.73 271.939 134.995 273.952 134.577C275.742 134.205 275.495 138.786 275.314 138.963Z" fill="#BFF2F3"/>
<path d="M241.201 125.237C237.418 126.103 239.976 120.832 240.934 120.857C242.795 120.907 241.559 124.24 241.201 125.237Z" fill="#BFF2F3"/>
<path d="M257.71 115.364C258.033 115.696 257.297 120.067 255.793 119.749C253.68 118.808 256.368 113.984 257.71 115.364Z" fill="#BFF2F3"/>
<path d="M263.768 166.957C262.996 166.383 263.521 162.229 265.13 162.572C267.188 163.533 264.943 167.833 263.768 166.957Z" fill="#BFF2F3"/>
<path d="M236.808 152.693C236.904 154.556 235.673 156.852 233.514 156.53C233.418 154.667 234.649 152.371 236.808 152.693Z" fill="#BFF2F3"/>
<path d="M237.242 178.361C233.519 180.405 235.527 172.943 238.468 176.035C238.518 176.297 237.378 178.291 237.242 178.361Z" fill="#BFF2F3"/>
<path d="M262.663 121.396C263.123 121.844 262.608 125.394 261.292 125.776C259.279 124.704 261.14 119.895 262.663 121.396Z" fill="#BFF2F3"/>
<path d="M231.855 166.413C232.949 167.506 229.015 170.9 228.561 168.876C228.107 166.851 231.426 165.985 231.855 166.413Z" fill="#BFF2F3"/>
<path d="M260.409 116.411C257.029 118.491 259.763 109.438 260.959 113.536C261.125 114.11 260.681 116.245 260.409 116.411Z" fill="#BFF2F3"/>
<path d="M233.983 160.849C232.395 162.269 231.123 160.059 232.415 158.181C234.508 157.406 234.861 160.059 233.983 160.849Z" fill="#BFF2F3"/>
<path d="M275.314 119.201H273.669V121.95H275.314V119.201Z" fill="#BFF2F3"/>
<path d="M347.099 243.075C345.329 238.639 346.54 233.327 347.135 228.705C347.917 226.379 345.667 225.282 345.258 223.187C344.199 219.28 344.134 214.069 343.125 209.905C342.918 209.26 342.701 207.393 341.813 208.415C339.74 210.101 334.222 219.592 331.211 218.792C323.948 217.06 315.595 212.13 309.345 207.745C297.568 199.186 322.515 167.752 333.254 162.959C334.898 160.271 336.447 154.586 340.557 153.055C345.884 150.055 340.608 147.713 342.792 145.528C345.41 144.063 343.523 140.312 345.117 138.092C346.943 135.796 350.519 132.523 353.662 132.1C361.308 132.548 371.79 138.681 374.594 145.513C375.396 148.111 375.916 154.45 372.637 156.132C371.22 156.384 369.409 154.143 368.567 154.062C367.921 154.138 368.33 155.392 368.39 155.86C370.72 162.924 368.869 170.24 368.088 177.404C367.306 191.18 375.174 205.187 375.053 218.978C373.913 220.967 369.843 221.042 368.214 222.729C367.861 227.371 369.076 240.205 369.005 242.748C369.041 243.186 368.864 243.347 368.37 243.307C362.771 243.105 350.953 243.72 347.099 243.07V243.075ZM372.289 153.348C374.887 146.52 369.923 141.41 364.31 138.323C361.687 136.843 353.374 131.108 352.022 136.022C352.406 137.538 356.123 139.557 353.869 141.385C353.707 142.19 339.534 149.194 347.321 146.47C350.383 145.01 354.146 141.208 357.152 140.992C360.113 142.709 363.079 145.473 365.374 147.88C367.013 149.32 370.145 153.378 372.289 153.342V153.348ZM351.821 140.458C349.778 134.889 344.996 138.736 346.56 143.303C347.513 142.789 350.938 141.48 351.821 140.458ZM355.694 148.816C355.457 146.958 356.103 145.095 356.476 143.388C353.162 145.246 354.267 146.092 355.694 148.816ZM373.222 218.253C371.371 206.305 367.18 194.443 365.687 182.5C365.323 174.877 367.835 167.304 366.751 159.797C364.758 144.033 351.674 137.946 361.818 158.946C359.427 174.504 351.977 190.853 344.345 204.769C344.013 205.771 344.199 206.3 344.446 207.508C349.279 230.357 344.118 223.983 368.375 219.874C370.599 219.119 372.94 219.567 373.222 218.253ZM352.37 146.757C351.412 146.278 342.747 150.362 345.4 151.756C348.043 153.408 350.257 157.637 353.107 158.201C358.302 158.629 353.107 148.932 352.37 146.762V146.757ZM341.758 161.424C342.958 160.532 344.976 157.854 345.849 156.58C347.755 152.179 339.776 154.516 338.399 157.718C333.763 163.926 335.862 162.667 341.753 161.424H341.758ZM355.16 160.004C354.867 161.57 356.179 163.201 355.266 164.958C351.518 171.594 345.344 161.56 340.472 163.246C327.352 164.49 317.587 181.145 311.413 192.147C308.226 198.017 306.092 204.674 313.623 208.047C318.651 211.28 326.707 215.685 330.026 216.677C332.073 217.321 333.758 215.751 335.004 214.205C346.424 198.596 357.525 177.777 358.58 158.221C357.989 155.024 356.189 159.183 355.165 160.004H355.16ZM353.52 164.686C354.585 162.29 349.606 157.768 347.72 158.372C346.56 158.916 345.269 160.195 344.744 161.338C344.704 162.924 352.033 166.403 353.52 164.686ZM365.52 223.016C362.05 223.529 357.087 224.823 353.379 225.548C351.987 226.072 349.571 225.669 349.384 227.401C348.799 231.752 348.088 237.476 348.82 241.585C353.919 241.998 360.39 241.947 365.702 242.189C366.781 242.219 366.746 242.28 366.69 241.293C366.251 235.538 366.171 228.524 365.525 223.011L365.52 223.016Z" fill="#BFF2F3"/>
<path d="M309.325 200.696C309.335 200.47 309.471 200.399 309.658 200.46C312.508 201.789 317.224 204.085 320.861 205.817C325.496 208.566 335.559 211.34 333.355 213.651C330.601 215.418 309.219 203.858 309.32 200.701L309.325 200.696Z" fill="#BFF2F3"/>
<path d="M327.186 204.764C327.741 210.267 311.862 199.316 310.768 197.947C310.44 193.849 319.201 201.633 321.234 201.748C323.05 202.775 325.98 203.128 327.186 204.764Z" fill="#BFF2F3"/>
<path d="M370.609 215.086C370.63 215.776 370.337 216.989 369.48 217.206C365.646 218.339 352.961 222.054 350.146 222.004C346.913 219.542 358.191 218.132 360.083 217.362C363.346 216.551 367.81 215.363 370.362 214.764C370.549 214.749 370.599 214.9 370.609 215.086Z" fill="#BFF2F3"/>
<path d="M410.33 113.782C410.688 111.355 412.58 107.871 415.485 109.724C419.697 112.413 421.089 129.406 420.786 134.365C423.021 132.381 427.349 123.248 431.253 125.836C434.809 128.192 427.843 142.235 426.864 145.648C425.149 151.62 424.595 158.397 422.572 164.424C423.349 171.075 426.264 177.207 427.661 183.763C429.583 192.791 432.781 203.792 419.677 204.084C421.654 212.971 421.472 222.184 421.886 231.247C421.962 232.934 423.071 242.44 422.426 243.059C421.291 244.152 420.413 242.168 420.287 241.091C419.142 231.57 419.692 221.107 418.572 211.495C418.32 209.335 417.821 207.135 417.503 204.98C416.771 203.651 403.793 205.912 401.523 205.725L399.854 224.093C400.041 228.856 399.687 233.654 399.854 238.412C399.945 240.975 402.018 243.774 398.23 243.059C397.635 235.723 397.347 228.191 397.655 220.8C397.831 216.55 399.375 210.388 399.339 206.591C399.339 206.37 398.381 206.274 397.942 205.212C394.401 196.647 396.944 177.968 395.965 168.195C394.845 157.032 386.492 145.613 382.972 135.05C381.918 131.893 380.308 128.379 381.802 125.106C382.901 124.784 383.814 124.99 384.788 125.554C387.668 127.21 390.669 135.871 394.376 137.658C393.62 132.089 390.987 125.881 390.538 120.358C389.927 112.831 392.409 110.917 396.313 117.886L401.523 131.067C401.14 124.753 399.123 117.906 399.869 111.572C400.419 106.879 404.711 107.086 406.598 110.917L410.335 122.286C410.613 119.628 409.957 116.34 410.335 113.777L410.33 113.782ZM420.66 141.369C419.863 141.842 418.996 142.361 418.658 141.152C418.007 138.816 418.799 133.615 418.607 130.775C418.436 128.217 416.509 111.919 413.906 111.869C410.179 114.955 415.5 132.895 412.232 133.806C410.84 134.194 410.224 132.9 409.755 131.918C408.272 128.791 406.119 111.426 403.445 110.761C401.518 110.283 402.038 115.534 402.083 116.521C402.24 120.026 405.271 133.011 402.936 134.974C401.251 136.394 399.798 133.69 399.239 132.537C396.944 127.835 396.424 121.637 392.999 117.347C391.844 121.551 398.154 137.764 396.328 140.427C394.84 142.602 391.062 138.056 389.993 136.817C387.824 134.295 386.508 131.042 383.93 128.872C386.679 141.897 395.632 152.823 398.089 166.065C398.437 178.763 397.7 191.522 399.884 204.079C407.057 202.06 415.475 202.996 422.557 201.179C427.742 199.849 427.192 197.815 426.829 192.831C426.249 184.881 422.819 177.504 421.059 170.048C419.546 163.638 422.517 151.972 424.363 145.336C425.962 139.591 430.052 134.078 429.588 127.774C425.245 131.143 422.638 136.359 420.67 141.364L420.66 141.369Z" fill="#BFF2F3"/>
<path d="M409.851 165.189C410.517 164.212 411.959 164.555 412 166.453C412.045 168.517 410.149 174.821 409.387 177.067C408.373 180.057 404.873 188.259 403.107 190.565C402.003 192.015 400.177 191.713 400.666 189.79C401.392 186.915 405.034 181.739 406.346 178.431C407.163 176.377 407.884 173.955 408.519 171.82C408.898 170.551 409.654 165.476 409.846 165.199L409.851 165.189Z" fill="#BFF2F3"/>
<path d="M414.729 142.053C416.676 143.952 409.765 145.19 409.079 145.467C405.352 146.973 402.189 148.79 399.602 151.922C396.142 149.646 403.203 145.558 405.352 144.495C406.784 143.785 413.75 141.102 414.729 142.053Z" fill="#BFF2F3"/>
<path d="M425.719 193.128C425.896 193.395 425.891 194.447 425.407 194.799C424.786 195.258 415.637 196.209 415.278 195.847C415.147 195.716 415.228 194.588 415.521 194.17C415.884 193.652 425.22 192.373 425.719 193.128Z" fill="#BFF2F3"/>
<path d="M423.535 199.134L414.184 200.237C412.05 198.148 421.23 196.919 422.214 196.974C423.5 197.05 423.682 198.007 423.53 199.139L423.535 199.134Z" fill="#BFF2F3"/>
<path d="M484.218 78.4687L475.468 122.41C479.176 130.609 483.636 138.476 484.755 147.551C485.191 151.082 484.895 155.469 485.377 158.945C486.541 167.424 493.705 178.071 496.951 186.71C497.619 188.493 497.92 191.458 498.562 192.745C499.204 194.032 501.176 194.252 501.607 195.705C503.112 200.753 498.221 202.08 498.522 204.194C503.413 217.15 510.668 229.495 512.665 243.367L510.422 243.052C509.539 238.444 508.105 233.982 506.514 229.585C504.231 223.27 499.947 211.4 496.921 205.851C496.665 205.381 496.44 204.93 495.983 204.614C494.388 206.813 481.87 211.48 481.679 213.048L492.968 243.107L490.329 243.282C487.735 236.687 485.005 230.121 482.567 223.455C481.549 220.67 480.4 214.666 479.281 212.677C478.87 211.951 477.364 211.42 476.446 209.908C473.792 205.526 470.089 197.623 467.882 192.795C465.755 188.142 463.928 183.335 462.609 178.397L448.541 242.446L446.469 243.377L463.392 165.531L463.427 164.208L459.563 164.449L440.383 243.317L438.256 243.377C443.107 219.438 449.554 195.83 455.153 172.051C455.565 168.571 454.702 170.283 453.297 169.136C449.69 166.192 449.604 162.335 450.989 158.073C451.33 157.022 452.871 154.838 452.871 154.643C452.871 154.252 451.837 153.461 451.626 152.765C450.628 149.464 452.374 148.428 452.896 145.783C453.417 143.139 452.83 140.7 454.431 138.036C454.882 137.29 456.759 135.927 456.759 135.542C456.759 135.306 454.672 132.577 454.376 131.46C452.544 124.479 460.246 124.088 465.052 125.986C469.387 109.104 471.354 90.964 475.819 74.2067C476.165 72.9046 476.727 69.9748 477.199 69.0182C477.67 68.0617 478.629 68.1819 478.714 68.0717C479.462 67.0851 467.561 50.3729 466.256 48.0691C462.473 41.3982 457 23.5141 458.083 16.102C459.839 4.12747 480.565 -2.18281 490.76 0.686867C505.751 4.90374 517.763 34.0563 523.703 47.5332C527.25 55.5813 534.43 69.3688 532.669 77.9628C530.28 89.6268 510.934 93.413 501.04 91.9857C493.133 90.8438 488.809 84.0127 484.213 78.4787L484.218 78.4687ZM483.576 2.15927C476.697 2.40467 463.361 7.57309 460.973 14.5995C459.022 20.3439 462.378 31.0113 464.239 36.971C467.385 47.0324 473.28 53.6482 478.629 62.4726C484.469 72.1183 490.063 88.6352 503.092 89.9323C512.439 90.8639 530.265 86.4967 530.737 74.8928C530.973 69.1134 526.056 59.037 523.703 53.528C519.734 44.2379 515.033 33.7858 510.212 24.9464C504.648 14.7498 496.911 1.68349 483.571 2.15927H483.576ZM480.375 70.2803C479.507 69.454 479.446 70.4656 479.231 71.0365C478.017 74.3319 477.746 78.3885 476.552 81.739L481.448 81.719C481.288 79.6606 482.818 76.836 482.572 74.9579C482.537 74.7025 480.56 70.4606 480.375 70.2803ZM473.105 121.449L480.801 84.7289C480.6 83.592 476.471 83.3917 476.11 84.8541L465.173 136.208L465.589 137.164L471.078 140.174C470.145 135.351 468.012 128.135 470.606 123.597C471.354 122.295 472.708 122.01 473.105 121.449ZM465.067 177.3C465.83 182.183 467.907 186.835 469.889 191.318C472.131 196.386 475.418 203.502 478.082 208.255C478.925 209.763 479.547 210.774 481.298 210.198C484.278 209.222 496.525 202.19 498.446 199.967C501.452 196.486 498.05 196.366 496.911 194.383C495.526 191.959 494.357 186.054 493.063 182.934C490.018 175.577 484.413 168.45 483.179 160.583C482.196 154.317 482.923 148.147 481.202 141.807C480.631 139.703 474.48 124.809 473.531 124.343C472.553 124.113 472.668 124.714 472.448 125.425C471.178 129.562 472.217 135.587 473.421 139.749C474.625 143.91 477.52 146.53 476.431 151.257C476.125 152.589 474.364 153.927 474.369 154.102C474.384 154.508 477.555 155.204 477.083 158.965C476.471 163.808 468.494 162.751 466.497 164.148C466.181 164.369 464.987 168.32 464.786 169.121C464.46 170.439 463.959 171.731 463.923 173.113C465.489 173.809 471.906 180.245 470.521 181.677C467.762 181.972 467.395 178.221 465.057 177.31L465.067 177.3ZM461.781 127.614C461.45 127.273 456.914 127.253 456.393 129.086C455.389 132.592 461.054 131.806 461.686 129.978C461.836 129.542 461.881 127.719 461.781 127.614ZM464.239 128.706V129.251C464.596 129.071 464.596 128.886 464.239 128.706ZM463.417 135.807L463.959 131.435C462.333 133.338 458.4 132.647 459.037 135.251L463.417 135.802V135.807ZM455.209 145.087C461.018 143.259 468.073 152.97 472.879 151.538C476.381 150.491 473.371 145.423 471.635 143.71C469.518 141.627 460.813 136.749 458.109 137.835C455.946 138.702 455.158 142.939 455.204 145.087H455.209ZM466.703 152.725C464.46 150.266 454.21 143.46 453.568 150.326C453.111 155.239 458.675 152.98 461.51 152.735C463.226 152.584 464.987 152.825 466.703 152.725ZM452.474 161.464C457.667 161.784 462.815 162.29 467.982 161.379C470.37 160.958 478.383 159.005 473.11 156.441C470.451 155.149 457.511 154.858 455.058 156.125C453.086 157.142 452.946 159.526 452.474 161.464ZM456.854 164.198L452.484 164.464C453.473 165.876 454.255 167.769 456.307 167.469L456.859 164.193L456.854 164.198Z" fill="#BFF2F3"/>
<path d="M508.832 84.473C507.894 85.1991 506.293 82.3044 505.872 81.6984C501.918 75.9891 497.97 68.1163 494.513 61.9112C487.048 48.5043 480.34 34.6568 472.819 21.29L473.551 19.5021C474.695 19.2567 476.627 23.0679 477.194 24.0445C488.242 43.2157 497.288 63.624 508.983 82.4647C509.324 82.8203 508.912 84.4129 508.832 84.473Z" fill="#BFF2F3"/>
<path d="M486.405 11.8599L488.357 12.3657L522.353 74.3868C522.323 74.6973 521.245 75.734 521.149 75.734C520.562 75.749 517.507 70.4904 516.95 69.5589C511.426 60.3038 506.228 50.6431 501.081 41.1676C497.258 34.1312 489.145 21.2752 486.827 14.4391C486.531 13.5676 486.235 12.8214 486.4 11.8649L486.405 11.8599Z" fill="#BFF2F3"/>
</svg>
