<svg id="mavuqwu110920892" viewBox="0 0 200 200" xmlns="http://www.w3.org/2000/svg" xmlns:xlink="http://www.w3.org/1999/xlink"><g id="mavuqwu110920892_translate"><g transform="matrix(1,0,0,1,0,0)"><g id="mavuqwu110920892" opacity="1" style="mix-blend-mode:normal"><g><defs><clipPath id="mavuqwu110920892_clipPath" x="-50%" y="-50%" width="200%" height="200%"><path id="mavuqwu110920892_fill_path" d="M0.01,0h199.98c0.00552,0 0.01,0.00448 0.01,0.01v199.98c0,0.00552 -0.00448,0.01 -0.01,0.01h-199.98c-0.00552,0 -0.01,-0.00448 -0.01,-0.01v-199.98c0,-0.00552 0.00448,-0.01 0.01,-0.01z" fill="white" clip-rule="nonzero"></path></clipPath></defs><g clip-path="url(#mavuqwu110920892_clipPath)"><path id="mavuqwu110920892_fill_path" d="M0.01,0h199.98c0.00552,0 0.01,0.00448 0.01,0.01v199.98c0,0.00552 -0.00448,0.01 -0.01,0.01h-199.98c-0.00552,0 -0.01,-0.00448 -0.01,-0.01v-199.98c0,-0.00552 0.00448,-0.01 0.01,-0.01z" fill-rule="nonzero" fill="rgb(255, 255, 255)" fill-opacity="1" style="mix-blend-mode:normal"></path><g id="mavuqwva79930916_translate"><g transform="matrix(1,0,0,1,127.13,21.18)"><g id="mavuqwva79930916" opacity="1" style="mix-blend-mode:normal"><g><g><g id="mavuqwva29133964_translate"><g transform="matrix(1,0,0,1,0,0)"><g id="mavuqwva29133964" opacity="1" style="mix-blend-mode:normal"><g><g><path id="mavuqwva29133964_fill_path" d="M18.01659,0.05087c12.68862,-0.92152 22.73568,10.82408 20.24172,23.25193c-2.87568,14.31162 -20.4504,20.41608 -31.52558,10.80372c-13.08561,-11.35358 -5.90405,-32.7981 11.28386,-34.05055zM17.2226,3.82861c-6.14836,0.62623 -11.82846,5.87535 -13.16705,11.87289c-2.94694,13.17626 10.51022,23.81706 22.54736,17.60568c15.02479,-7.75404 8.59141,-31.31653 -9.38031,-29.47858z" fill-rule="nonzero" fill="rgb(66, 43, 84)" fill-opacity="1" style="mix-blend-mode:normal"></path></g></g></g></g></g><g id="mavuqwvc19462551_translate"><g transform="matrix(1,0,0,1,3.6445,3.7273)"><g id="mavuqwvc19462551" opacity="1" style="mix-blend-mode:normal"><g><g><path id="mavuqwvc19462551_fill_path" d="M13.57807,0.10126c17.97172,-1.83287 24.4051,21.72454 9.38031,29.47858c-12.03714,6.21138 -25.49429,-4.42942 -22.54736,-17.60569c1.33859,-5.99754 7.01869,-11.24666 13.16705,-11.87289z" fill-rule="nonzero" fill="rgb(33, 168, 171)" fill-opacity="1" style="mix-blend-mode:normal"></path></g></g></g></g></g></g></g></g></g></g><g id="mavuqwvd85002569_translate"><g transform="matrix(1,0,0,1,26.0012,11.9989)"><g id="mavuqwvd85002569" opacity="1" style="mix-blend-mode:normal"><g><g><g id="mavuqwvd94785418_translate"><g transform="matrix(1,0,0,1,0,0)"><g id="mavuqwvd94785418" opacity="1" style="mix-blend-mode:normal"><g><g><path id="mavuqwvd94785418_fill_path" d="M9.7453,0.098c16.59241,-1.88378 16.88762,24.0309 0.3461,22.61552c-13.29429,-1.14045 -13.49788,-21.11868 -0.3461,-22.61552zM10.54438,3.68227c-10.75453,0.86552 -8.25549,17.89589 2.6212,15.15678c8.91206,-2.24017 6.77439,-15.91029 -2.62629,-15.15678z" fill-rule="nonzero" fill="rgb(66, 43, 84)" fill-opacity="1" style="mix-blend-mode:normal"></path></g></g></g></g></g><g id="mavuqwve71692764_translate"><g transform="matrix(1,0,0,1,3.6314,3.6521)"><g id="mavuqwve71692764" opacity="1" style="mix-blend-mode:normal"><g><g><path id="mavuqwve71692764_fill_path" d="M6.9133,0.03c9.40067,-0.75351 11.53834,12.91661 2.62628,15.15678c-10.88177,2.73912 -13.38081,-14.29126 -2.62628,-15.15678z" fill-rule="nonzero" fill="rgb(33, 168, 171)" fill-opacity="1" style="mix-blend-mode:normal"></path></g></g></g></g></g></g></g></g></g></g><g id="mavuqwvf06409413_translate"><g transform="matrix(1,0,0,1,166.8027,67.4678)"><g id="mavuqwvf06409413" opacity="1" style="mix-blend-mode:normal"><g><g><g id="mavuqwvf43849043_translate"><g transform="matrix(1,0,0,1,0,0)"><g id="mavuqwvf43849043" opacity="1" style="mix-blend-mode:normal"><g><g><path id="mavuqwvf43849043_fill_path" d="M9.76592,0.11386c15.15712,-1.90923 14.94336,20.80811 1.1401,22.01984c-14.48019,1.27282 -14.21554,-20.37535 -1.1401,-22.01984zM10.55992,3.69813c-9.10038,0.9928 -9.41594,15.80337 -0.11197,14.80547c9.41085,-1.01317 9.66534,-15.84919 0.11197,-14.80547z" fill-rule="nonzero" fill="rgb(66, 43, 84)" fill-opacity="1" style="mix-blend-mode:normal"></path></g></g></g></g></g><g id="mavuqwvg93751631_translate"><g transform="matrix(1,0,0,1,3.6014,3.6455)"><g id="mavuqwvg93751631" opacity="1" style="mix-blend-mode:normal"><g><g><path id="mavuqwvg93751631_fill_path" d="M6.95855,0.05256c9.55845,-1.04371 9.29888,13.79231 -0.11197,14.80547c-9.30397,0.99789 -8.98841,-13.80758 0.11197,-14.80547z" fill-rule="nonzero" fill="rgb(33, 168, 171)" fill-opacity="1" style="mix-blend-mode:normal"></path></g></g></g></g></g></g></g></g></g></g><g id="mavuqwu855949326_translate"><g transform="matrix(1,0,0,1,24.88,43.09)"><g id="mavuqwu855949326" opacity="1" style="mix-blend-mode:normal"><g><g><g id="mavuqwue10188651_translate"><g transform="matrix(1,0,0,1,0,0)"><g id="mavuqwue10188651" opacity="1" style="mix-blend-mode:normal"><g><g><path id="mavuqwue10188651_fill_path" d="M51.74051,0.06619l2.52958,-0.06619c22.6746,0.33093 33.64799,12.8606 43.29806,31.62711c5.26784,10.24368 4.88611,15.58444 16.58732,20.58409c11.70122,4.99965 21.21895,7.11763 28.23256,19.0618c10.23029,17.4224 6.29595,36.89659 -4.84031,52.69996c-10.46951,14.85639 -30.08011,27.2588 -48.86109,23.14503c-19.31031,-4.23086 -25.88111,-25.14591 -36.14703,-39.37607c-11.89971,-16.49579 -32.27887,-21.50561 -44.84533,-36.83549c-13.5844,-16.56706 -6.43338,-31.16379 0.53442,-48.37745c1.75595,-4.33778 2.05115,-6.94452 5.91423,-10.18767c10.00635,-8.39045 24.73593,-12.03582 37.59251,-12.2802zM119.50984,58.08146c-8.17914,-2.8053 -15.69154,-5.43751 -19.96688,-13.52248c-5.05916,-9.55636 -8.27585,-18.74613 -15.39634,-27.34532c-10.94285,-13.2119 -26.30865,-15.04986 -42.53969,-12.5704c-4.68252,0.71278 -9.27343,1.97033 -13.66584,3.72173l2.56521,1.50702c5.42562,4.0934 5.01335,12.3362 -0.97213,15.69645c-6.30614,3.54354 -13.64548,-1.0539 -14.00685,-8.05442c-4.98281,7.21945 -5.91423,17.51405 -2.82987,25.70593c2.70772,7.19909 8.15879,13.35955 13.95595,18.24719c-0.36646,-6.90379 5.42562,-12.4533 12.36797,-10.59498c9.4872,2.53546 9.17163,16.45505 -0.35119,18.6494l11.81828,8.45155c-0.08652,-1.88378 -0.20868,-3.52826 0.15778,-5.40695c1.5829,-8.18171 10.50514,-12.56022 18.08879,-9.27633c13.82362,5.98736 7.96029,28.42468 -9.26325,24.39238c-0.2494,-0.0611 -0.37664,-0.39204 -0.33592,0.13746c7.34952,9.48508 8.99858,22.66644 18.5723,30.52739c10.28628,8.44136 25.52993,10.67643 37.70448,5.14729c7.29354,-3.31443 17.25916,-12.26491 22.6746,-18.26754c0.50897,-0.56513 2.66701,-3.01405 2.87569,-3.48754c0.34101,-0.77897 -1.59308,0.51422 -1.78649,0.59568c-8.24022,3.34498 -16.39392,-4.59744 -13.11107,-12.92679c3.13525,-7.95769 14.56672,-8.25298 18.0837,-0.49386c0.38173,-0.056 0.19851,-0.9979 0.16797,-1.26773c-0.84489,-8.49228 -6.10764,-18.32865 -12.98382,-23.39449c0.00509,1.5783 0.19341,2.79511 -0.19341,4.37851c-2.04606,8.43627 -14.55653,8.60429 -16.68912,0.18838c-1.28769,-5.07093 0.87543,-7.74895 4.80468,-10.2895c0.19341,-0.12728 0.35628,0.02037 0.25448,-0.44294zM29.06591,13.40537c-4.65707,-4.81636 -12.51557,1.28301 -8.90697,7.02598c4.44331,7.06671 14.70414,-1.03353 8.90697,-7.02598zM142.3524,105.61375c-1.67451,2.35218 -3.87835,4.45998 -5.96003,6.46595c-12.68353,12.2191 -24.7512,21.06267 -43.50674,17.3053c-12.52575,-2.51001 -22.49137,-10.45243 -27.96789,-21.91292c-2.87059,-6.00772 -4.33134,-11.15501 -8.20969,-16.84199c-7.89921,-11.5776 -16.44481,-14.98877 -27.31641,-22.56461c-9.55336,-6.65941 -18.22621,-15.6659 -21.24949,-27.24859l-1.04848,-6.00773c-3.38974,9.43416 -5.31873,18.65449 -0.43262,27.97665c8.9935,17.17293 32.15672,23.75597 45.12527,38.14396c12.90238,14.31162 19.066,41.73334 41.80678,43.26072c18.33309,1.23209 36.15721,-12.55005 44.49413,-28.03776c1.37931,-2.56092 3.71548,-7.20419 4.37714,-9.93821c0.0509,-0.19856 0.25958,-0.65167 -0.10688,-0.60585zM35.84539,54.15607c-7.68035,0.7026 -7.07468,13.02353 1.71523,11.86271c7.04414,-0.93171 6.06183,-12.57549 -1.71523,-11.86271zM121.84092,61.5079c-6.01602,0.9368 -5.1864,10.78844 1.72541,9.8771c6.19925,-0.8197 5.14569,-10.94627 -1.72541,-9.8771zM62.06243,65.8915c-11.64523,1.4052 -10.34227,20.15133 2.90113,18.61885c11.28895,-1.30846 10.05216,-20.18188 -2.90113,-18.61885zM134.158,86.96945c-7.66,1.11499 -6.4283,13.39519 1.91372,12.45839c7.96029,-0.89607 6.84057,-13.73122 -1.91372,-12.45839z" fill-rule="nonzero" fill="rgb(66, 43, 84)" fill-opacity="1" style="mix-blend-mode:normal"></path><defs><clipPath id="mavuqwue10188651_stroke_clip_path" clipPathUnits="userSpaceOnUse"><path id="mavuqwue10188651_stroke_path" d="M-2,-2 H150.311 V149.916 H-2 Z M51.74051,0.06619l2.52958,-0.06619c22.6746,0.33093 33.64799,12.8606 43.29806,31.62711c5.26784,10.24368 4.88611,15.58444 16.58732,20.58409c11.70122,4.99965 21.21895,7.11763 28.23256,19.0618c10.23029,17.4224 6.29595,36.89659 -4.84031,52.69996c-10.46951,14.85639 -30.08011,27.2588 -48.86109,23.14503c-19.31031,-4.23086 -25.88111,-25.14591 -36.14703,-39.37607c-11.89971,-16.49579 -32.27887,-21.50561 -44.84533,-36.83549c-13.5844,-16.56706 -6.43338,-31.16379 0.53442,-48.37745c1.75595,-4.33778 2.05115,-6.94452 5.91423,-10.18767c10.00635,-8.39045 24.73593,-12.03582 37.59251,-12.2802zM119.50984,58.08146c-8.17914,-2.8053 -15.69154,-5.43751 -19.96688,-13.52248c-5.05916,-9.55636 -8.27585,-18.74613 -15.39634,-27.34532c-10.94285,-13.2119 -26.30865,-15.04986 -42.53969,-12.5704c-4.68252,0.71278 -9.27343,1.97033 -13.66584,3.72173l2.56521,1.50702c5.42562,4.0934 5.01335,12.3362 -0.97213,15.69645c-6.30614,3.54354 -13.64548,-1.0539 -14.00685,-8.05442c-4.98281,7.21945 -5.91423,17.51405 -2.82987,25.70593c2.70772,7.19909 8.15879,13.35955 13.95595,18.24719c-0.36646,-6.90379 5.42562,-12.4533 12.36797,-10.59498c9.4872,2.53546 9.17163,16.45505 -0.35119,18.6494l11.81828,8.45155c-0.08652,-1.88378 -0.20868,-3.52826 0.15778,-5.40695c1.5829,-8.18171 10.50514,-12.56022 18.08879,-9.27633c13.82362,5.98736 7.96029,28.42468 -9.26325,24.39238c-0.2494,-0.0611 -0.37664,-0.39204 -0.33592,0.13746c7.34952,9.48508 8.99858,22.66644 18.5723,30.52739c10.28628,8.44136 25.52993,10.67643 37.70448,5.14729c7.29354,-3.31443 17.25916,-12.26491 22.6746,-18.26754c0.50897,-0.56513 2.66701,-3.01405 2.87569,-3.48754c0.34101,-0.77897 -1.59308,0.51422 -1.78649,0.59568c-8.24022,3.34498 -16.39392,-4.59744 -13.11107,-12.92679c3.13525,-7.95769 14.56672,-8.25298 18.0837,-0.49386c0.38173,-0.056 0.19851,-0.9979 0.16797,-1.26773c-0.84489,-8.49228 -6.10764,-18.32865 -12.98382,-23.39449c0.00509,1.5783 0.19341,2.79511 -0.19341,4.37851c-2.04606,8.43627 -14.55653,8.60429 -16.68912,0.18838c-1.28769,-5.07093 0.87543,-7.74895 4.80468,-10.2895c0.19341,-0.12728 0.35628,0.02037 0.25448,-0.44294zM29.06591,13.40537c-4.65707,-4.81636 -12.51557,1.28301 -8.90697,7.02598c4.44331,7.06671 14.70414,-1.03353 8.90697,-7.02598zM142.3524,105.61375c-1.67451,2.35218 -3.87835,4.45998 -5.96003,6.46595c-12.68353,12.2191 -24.7512,21.06267 -43.50674,17.3053c-12.52575,-2.51001 -22.49137,-10.45243 -27.96789,-21.91292c-2.87059,-6.00772 -4.33134,-11.15501 -8.20969,-16.84199c-7.89921,-11.5776 -16.44481,-14.98877 -27.31641,-22.56461c-9.55336,-6.65941 -18.22621,-15.6659 -21.24949,-27.24859l-1.04848,-6.00773c-3.38974,9.43416 -5.31873,18.65449 -0.43262,27.97665c8.9935,17.17293 32.15672,23.75597 45.12527,38.14396c12.90238,14.31162 19.066,41.73334 41.80678,43.26072c18.33309,1.23209 36.15721,-12.55005 44.49413,-28.03776c1.37931,-2.56092 3.71548,-7.20419 4.37714,-9.93821c0.0509,-0.19856 0.25958,-0.65167 -0.10688,-0.60585zM35.84539,54.15607c-7.68035,0.7026 -7.07468,13.02353 1.71523,11.86271c7.04414,-0.93171 6.06183,-12.57549 -1.71523,-11.86271zM121.84092,61.5079c-6.01602,0.9368 -5.1864,10.78844 1.72541,9.8771c6.19925,-0.8197 5.14569,-10.94627 -1.72541,-9.8771zM62.06243,65.8915c-11.64523,1.4052 -10.34227,20.15133 2.90113,18.61885c11.28895,-1.30846 10.05216,-20.18188 -2.90113,-18.61885zM134.158,86.96945c-7.66,1.11499 -6.4283,13.39519 1.91372,12.45839c7.96029,-0.89607 6.84057,-13.73122 -1.91372,-12.45839z" clip-rule="evenodd"></path></clipPath></defs><g style="mix-blend-mode:normal"><g clip-path="url(#mavuqwue10188651_stroke_clip_path)"><path id="mavuqwue10188651_stroke_path" d="M51.74051,0.06619l2.52958,-0.06619c22.6746,0.33093 33.64799,12.8606 43.29806,31.62711c5.26784,10.24368 4.88611,15.58444 16.58732,20.58409c11.70122,4.99965 21.21895,7.11763 28.23256,19.0618c10.23029,17.4224 6.29595,36.89659 -4.84031,52.69996c-10.46951,14.85639 -30.08011,27.2588 -48.86109,23.14503c-19.31031,-4.23086 -25.88111,-25.14591 -36.14703,-39.37607c-11.89971,-16.49579 -32.27887,-21.50561 -44.84533,-36.83549c-13.5844,-16.56706 -6.43338,-31.16379 0.53442,-48.37745c1.75595,-4.33778 2.05115,-6.94452 5.91423,-10.18767c10.00635,-8.39045 24.73593,-12.03582 37.59251,-12.2802zM119.50984,58.08146c-8.17914,-2.8053 -15.69154,-5.43751 -19.96688,-13.52248c-5.05916,-9.55636 -8.27585,-18.74613 -15.39634,-27.34532c-10.94285,-13.2119 -26.30865,-15.04986 -42.53969,-12.5704c-4.68252,0.71278 -9.27343,1.97033 -13.66584,3.72173l2.56521,1.50702c5.42562,4.0934 5.01335,12.3362 -0.97213,15.69645c-6.30614,3.54354 -13.64548,-1.0539 -14.00685,-8.05442c-4.98281,7.21945 -5.91423,17.51405 -2.82987,25.70593c2.70772,7.19909 8.15879,13.35955 13.95595,18.24719c-0.36646,-6.90379 5.42562,-12.4533 12.36797,-10.59498c9.4872,2.53546 9.17163,16.45505 -0.35119,18.6494l11.81828,8.45155c-0.08652,-1.88378 -0.20868,-3.52826 0.15778,-5.40695c1.5829,-8.18171 10.50514,-12.56022 18.08879,-9.27633c13.82362,5.98736 7.96029,28.42468 -9.26325,24.39238c-0.2494,-0.0611 -0.37664,-0.39204 -0.33592,0.13746c7.34952,9.48508 8.99858,22.66644 18.5723,30.52739c10.28628,8.44136 25.52993,10.67643 37.70448,5.14729c7.29354,-3.31443 17.25916,-12.26491 22.6746,-18.26754c0.50897,-0.56513 2.66701,-3.01405 2.87569,-3.48754c0.34101,-0.77897 -1.59308,0.51422 -1.78649,0.59568c-8.24022,3.34498 -16.39392,-4.59744 -13.11107,-12.92679c3.13525,-7.95769 14.56672,-8.25298 18.0837,-0.49386c0.38173,-0.056 0.19851,-0.9979 0.16797,-1.26773c-0.84489,-8.49228 -6.10764,-18.32865 -12.98382,-23.39449c0.00509,1.5783 0.19341,2.79511 -0.19341,4.37851c-2.04606,8.43627 -14.55653,8.60429 -16.68912,0.18838c-1.28769,-5.07093 0.87543,-7.74895 4.80468,-10.2895c0.19341,-0.12728 0.35628,0.02037 0.25448,-0.44294zM29.06591,13.40537c-4.65707,-4.81636 -12.51557,1.28301 -8.90697,7.02598c4.44331,7.06671 14.70414,-1.03353 8.90697,-7.02598zM142.3524,105.61375c-1.67451,2.35218 -3.87835,4.45998 -5.96003,6.46595c-12.68353,12.2191 -24.7512,21.06267 -43.50674,17.3053c-12.52575,-2.51001 -22.49137,-10.45243 -27.96789,-21.91292c-2.87059,-6.00772 -4.33134,-11.15501 -8.20969,-16.84199c-7.89921,-11.5776 -16.44481,-14.98877 -27.31641,-22.56461c-9.55336,-6.65941 -18.22621,-15.6659 -21.24949,-27.24859l-1.04848,-6.00773c-3.38974,9.43416 -5.31873,18.65449 -0.43262,27.97665c8.9935,17.17293 32.15672,23.75597 45.12527,38.14396c12.90238,14.31162 19.066,41.73334 41.80678,43.26072c18.33309,1.23209 36.15721,-12.55005 44.49413,-28.03776c1.37931,-2.56092 3.71548,-7.20419 4.37714,-9.93821c0.0509,-0.19856 0.25958,-0.65167 -0.10688,-0.60585zM35.84539,54.15607c-7.68035,0.7026 -7.07468,13.02353 1.71523,11.86271c7.04414,-0.93171 6.06183,-12.57549 -1.71523,-11.86271zM121.84092,61.5079c-6.01602,0.9368 -5.1864,10.78844 1.72541,9.8771c6.19925,-0.8197 5.14569,-10.94627 -1.72541,-9.8771zM62.06243,65.8915c-11.64523,1.4052 -10.34227,20.15133 2.90113,18.61885c11.28895,-1.30846 10.05216,-20.18188 -2.90113,-18.61885zM134.158,86.96945c-7.66,1.11499 -6.4283,13.39519 1.91372,12.45839c7.96029,-0.89607 6.84057,-13.73122 -1.91372,-12.45839z" fill="none" stroke="rgb(66, 43, 85)" stroke-width="4" stroke-linecap="butt" stroke-linejoin="round" stroke-dasharray="0 0" stroke-opacity="1"></path><defs><mask id="mavuqwue10188651_gradient_mask"></mask></defs><rect x="-152.311" y="-151.916" width="456.933" height="455.748" fill="url(#mavuqwue10188651ps0)" mask="url(#mavuqwue10188651_gradient_mask)"></rect></g></g></g></g></g></g></g><g id="mavuqwuu55659558_translate"><g transform="matrix(1,0,0,1,10.925,3.6985)"><g id="mavuqwuu55659558" opacity="1" style="mix-blend-mode:normal"><g><g><path id="mavuqwuu55659558_fill_path" d="M108.58489,54.38279c0.0967,0.46331 -0.06108,0.32075 -0.25448,0.44294c-3.93434,2.54565 -6.09237,5.21857 -4.80468,10.2895c2.13258,8.41591 14.64306,8.2479 16.68912,-0.18838c0.38173,-1.58339 0.1985,-2.8053 0.19341,-4.37851c6.88127,5.06074 12.13893,14.90222 12.98382,23.39449c0.02545,0.26984 0.21376,1.20663 -0.16797,1.26773c-3.51698,-7.75913 -14.94844,-7.46383 -18.0837,0.49386c-3.28285,8.32935 4.87085,16.27177 13.11107,12.92679c0.1985,-0.08146 2.1275,-1.37465 1.78649,-0.59568c-0.20868,0.47349 -2.36672,2.91731 -2.87569,3.48754c-5.41544,5.99754 -15.38106,14.95313 -22.6746,18.26756c-12.17456,5.52914 -27.4182,3.29406 -37.70448,-5.1473c-9.57372,-7.85586 -11.22279,-21.04231 -18.57231,-30.52738c-0.04072,-0.52949 0.08652,-0.19856 0.33592,-0.13747c17.22863,4.0323 23.08688,-18.40502 9.26326,-24.39238c-7.57856,-3.28388 -16.5008,1.09463 -18.08879,9.27633c-0.36646,1.87869 -0.2443,3.52318 -0.15778,5.40696l-11.81828,-8.45155c9.52282,-2.19435 9.83839,-16.11394 0.35119,-18.6494c-6.94744,-1.85832 -12.73443,3.69119 -12.36797,10.59498c-5.79717,-4.88764 -11.24314,-11.04811 -13.95595,-18.2472c-3.07927,-8.19189 -2.15294,-18.48648 2.82987,-25.70593c0.36137,7.00053 7.70071,11.60305 14.00685,8.05442c6.30614,-3.54863 6.39775,-11.60305 0.97213,-15.69645l-2.56521,-1.50702c4.39241,-1.7514 8.98332,-3.00386 13.66584,-3.72174c16.23105,-2.47437 31.59685,-0.6415 42.5397,12.5704c7.12049,8.59919 10.33718,17.78897 15.39634,27.34533c4.27535,8.08497 11.78774,10.71717 19.96688,13.52247zM52.92904,2.32942c-11.32967,1.36956 -8.80517,19.57092 3.07418,17.19838c10.46442,-2.08743 8.46925,-18.59849 -3.07418,-17.19838zM33.86812,21.01955c-12.36288,0.34621 -12.01678,19.25017 0.33083,19.26036c12.34761,0.01018 12.54102,-19.62184 -0.33083,-19.26036zM69.41458,25.60171c-16.38374,1.5223 -11.08536,27.02458 4.71815,21.62781c12.02187,-4.10867 8.20968,-22.82936 -4.71815,-21.62781zM82.91754,57.62084c-12.48503,1.50702 -9.77221,21.15941 3.06909,18.78687c11.76738,-2.17398 9.20217,-20.26844 -3.06909,-18.78687zM77.86348,92.4351c-11.92516,11.83216 5.74118,30.32882 18.11423,18.83268c12.7446,-11.84744 -5.63938,-31.20452 -18.11423,-18.83268z" fill-rule="nonzero" fill="rgb(238, 229, 43)" fill-opacity="1" style="mix-blend-mode:normal"></path></g></g></g></g></g><g id="mavuqwux10954548_translate"><g transform="matrix(1,0,0,1,3.7112,34.8142)"><g id="mavuqwux10954548" opacity="1" style="mix-blend-mode:normal"><g><g><path id="mavuqwux10954548_fill_path" d="M138.64118,70.7995c0.37155,-0.04582 0.15779,0.40221 0.10689,0.60586c-0.66166,2.73402 -2.99784,7.37729 -4.37714,9.93821c-8.33693,15.48262 -26.16105,29.26983 -44.49415,28.03773c-22.74077,-1.52739 -28.90439,-28.94909 -41.80678,-43.26071c-12.96855,-14.38799 -36.13177,-20.97103 -45.12526,-38.14395c-4.88102,-9.32216 -2.95202,-18.54249 0.43262,-27.97665l1.04848,6.00772c3.02328,11.58269 11.69613,20.58919 21.24949,27.2486c10.87669,7.57584 19.4172,10.987 27.31641,22.5646c3.87835,5.68697 5.334,10.83427 8.20968,16.842c5.48161,11.4605 15.44215,19.40292 27.96789,21.91292c18.75554,3.75737 30.82321,-5.09129 43.50674,-17.3053c2.08169,-2.00597 4.28554,-4.11377 5.96005,-6.46595z" fill-rule="nonzero" fill="rgb(238, 229, 43)" fill-opacity="1" style="mix-blend-mode:normal"></path></g></g></g></g></g><g id="mavuqwuy67157072_translate"><g transform="matrix(1,0,0,1,84.8315,92.1538)"><g id="mavuqwuy67157072" opacity="1" style="mix-blend-mode:normal"><g><g><path id="mavuqwuy67157072_fill_path" d="M3.95687,3.97993c12.46976,-12.37184 30.85884,6.98016 18.11423,18.83268c-12.36797,11.50123 -30.0394,-7.00052 -18.11423,-18.83268zM11.59142,3.96466c-11.36021,1.53757 -9.72132,19.91714 2.70263,18.61886c12.06767,-1.26264 10.43897,-20.40081 -2.70263,-18.61886z" fill-rule="nonzero" fill="rgb(66, 43, 84)" fill-opacity="1" style="mix-blend-mode:normal"></path></g></g></g></g></g><g id="mavuqwuz40323135_translate"><g transform="matrix(1,0,0,1,70.3413,29.2449)"><g id="mavuqwuz40323135" opacity="1" style="mix-blend-mode:normal"><g><g><path id="mavuqwuz40323135_fill_path" d="M9.99831,0.05534c12.92783,-1.20154 16.74002,17.51914 4.71815,21.62781c-15.80351,5.40186 -21.10189,-20.10551 -4.71815,-21.62781zM9.59623,3.82798c-8.83572,1.20154 -7.64473,15.39098 1.73049,14.86148c9.96054,-0.56004 9.18182,-16.34814 -1.73049,-14.86148z" fill-rule="nonzero" fill="rgb(66, 43, 84)" fill-opacity="1" style="mix-blend-mode:normal"></path></g></g></g></g></g><g id="mavuqwv008125370_translate"><g transform="matrix(1,0,0,1,35.615,24.7131)"><g id="mavuqwv008125370" opacity="1" style="mix-blend-mode:normal"><g><g><path id="mavuqwv008125370_fill_path" d="M9.1782,0.00493c12.87185,-0.36148 12.88203,19.26545 0.33083,19.26035c-12.55119,-0.00509 -12.69371,-18.90906 -0.33083,-19.26035zM13.71313,13.80742c5.47143,-5.62588 -2.99274,-13.78722 -8.36746,-8.477c-5.66992,5.59533 2.98765,14.00614 8.36746,8.477z" fill-rule="nonzero" fill="rgb(66, 43, 84)" fill-opacity="1" style="mix-blend-mode:normal"></path></g></g></g></g></g><g id="mavuqwv117447965_translate"><g transform="matrix(1,0,0,1,85.7551,61.2334)"><g id="mavuqwv117447965" opacity="1" style="mix-blend-mode:normal"><g><g><path id="mavuqwv117447965_fill_path" d="M8.08732,0.08613c12.27126,-1.48157 14.83648,16.61289 3.06909,18.78687c-12.8464,2.37254 -15.55412,-17.27985 -3.06909,-18.78687zM8.88641,3.66022c-7.57347,0.5855 -6.866,12.42785 1.12991,11.67943c7.44114,-0.69242 6.47918,-12.27002 -1.12991,-11.67943z" fill-rule="nonzero" fill="rgb(66, 43, 84)" fill-opacity="1" style="mix-blend-mode:normal"></path></g></g></g></g></g><g id="mavuqwv240674523_translate"><g transform="matrix(1,0,0,1,56.562,5.9443)"><g id="mavuqwv240674523" opacity="1" style="mix-blend-mode:normal"><g><g><path id="mavuqwv240674523_fill_path" d="M7.29194,0.08356c11.54344,-1.39501 13.5386,15.11095 3.07418,17.19838c-11.87936,2.36745 -14.40385,-15.82882 -3.07418,-17.19838zM8.08084,3.65764c-6.69295,0.79933 -5.62412,11.02265 1.31823,10.07567c6.25015,-0.85534 5.1406,-10.84445 -1.31823,-10.07567z" fill-rule="nonzero" fill="rgb(66, 43, 84)" fill-opacity="1" style="mix-blend-mode:normal"></path></g></g></g></g></g><g id="mavuqwv279439202_translate"><g transform="matrix(1,0,0,1,54.1133,65.7988)"><g id="mavuqwv279439202" opacity="1" style="mix-blend-mode:normal"><g><g><path id="mavuqwv279439202_fill_path" d="M7.94917,0.09247c12.95328,-1.56812 14.19008,17.31039 2.90113,18.61885c-13.24339,1.53248 -14.54636,-17.20856 -2.90113,-18.61885z" fill-rule="nonzero" fill="rgb(249, 246, 185)" fill-opacity="1" style="mix-blend-mode:normal"></path></g></g></g></g></g><g id="mavuqwv374606940_translate"><g transform="matrix(1,0,0,1,129.0564,86.8801)"><g id="mavuqwv374606940" opacity="1" style="mix-blend-mode:normal"><g><g><path id="mavuqwv374606940_fill_path" d="M5.10165,0.08933c8.75428,-1.27791 9.874,11.56232 1.91372,12.45839c-8.34202,0.9368 -9.57371,-11.33831 -1.91372,-12.45839z" fill-rule="nonzero" fill="rgb(249, 246, 185)" fill-opacity="1" style="mix-blend-mode:normal"></path></g></g></g></g></g><g id="mavuqwv414466179_translate"><g transform="matrix(1,0,0,1,30.4997,54.1245)"><g id="mavuqwv414466179" opacity="1" style="mix-blend-mode:normal"><g><g><path id="mavuqwv414466179_fill_path" d="M5.34559,0.03141c7.77706,-0.71278 8.75937,10.93101 1.71523,11.86271c-8.78482,1.16081 -9.39049,-11.16011 -1.71523,-11.86271z" fill-rule="nonzero" fill="rgb(249, 246, 185)" fill-opacity="1" style="mix-blend-mode:normal"></path></g></g></g></g></g><g id="mavuqwv586378928_translate"><g transform="matrix(1,0,0,1,19.237,11.6611)"><g id="mavuqwv586378928" opacity="1" style="mix-blend-mode:normal"><g><g><path id="mavuqwv586378928_fill_path" d="M9.82896,1.74423c5.79717,5.99245 -4.46367,14.09779 -8.90697,7.02598c-3.61369,-5.74298 4.24481,-11.84744 8.90697,-7.02598z" fill-rule="nonzero" fill="rgb(249, 246, 185)" fill-opacity="1" style="mix-blend-mode:normal"></path></g></g></g></g></g><g id="mavuqwv665297702_translate"><g transform="matrix(1,0,0,1,117.8103,61.4289)"><g id="mavuqwv665297702" opacity="1" style="mix-blend-mode:normal"><g><g><path id="mavuqwv665297702_fill_path" d="M4.03078,0.07893c6.87109,-1.06917 7.91957,9.0625 1.72541,9.8771c-6.90672,0.91134 -7.74143,-8.9403 -1.72541,-9.8771z" fill-rule="nonzero" fill="rgb(249, 246, 185)" fill-opacity="1" style="mix-blend-mode:normal"></path></g></g></g></g></g><g id="mavuqwv608919893_translate"><g transform="matrix(1,0,0,1,88.7812,96.0015)"><g id="mavuqwv608919893" opacity="1" style="mix-blend-mode:normal"><g><g><path id="mavuqwv608919893_fill_path" d="M7.64183,0.11703c13.14669,-1.78195 14.7703,17.35622 2.70263,18.61886c-12.42395,1.29828 -14.06283,-17.08129 -2.70263,-18.61886z" fill-rule="nonzero" fill="rgb(249, 246, 185)" fill-opacity="1" style="mix-blend-mode:normal"></path></g></g></g></g></g><g id="mavuqwv754272367_translate"><g transform="matrix(1,0,0,1,73.9299,32.9741)"><g id="mavuqwv754272367" opacity="1" style="mix-blend-mode:normal"><g><g><path id="mavuqwv754272367_fill_path" d="M6.00768,0.09872c10.91231,-1.48666 11.69103,14.30144 1.73049,14.86148c-9.37522,0.52949 -10.56621,-13.65994 -1.73049,-14.86148z" fill-rule="nonzero" fill="rgb(249, 246, 185)" fill-opacity="1" style="mix-blend-mode:normal"></path></g></g></g></g></g><g id="mavuqwv809641422_translate"><g transform="matrix(1,0,0,1,39.1079,28.3232)"><g id="mavuqwv809641422" opacity="1" style="mix-blend-mode:normal"><g><g><path id="mavuqwv809641422_fill_path" d="M10.22015,10.19738c-5.37981,5.52914 -14.03739,-2.88167 -8.36746,-8.477c5.37981,-5.31022 13.84398,2.85622 8.36746,8.477z" fill-rule="nonzero" fill="rgb(249, 246, 185)" fill-opacity="1" style="mix-blend-mode:normal"></path></g></g></g></g></g><g id="mavuqwv960057855_translate"><g transform="matrix(1,0,0,1,89.3479,64.8716)"><g id="mavuqwv960057855" opacity="1" style="mix-blend-mode:normal"><g><g><path id="mavuqwv960057855_fill_path" d="M5.29387,0.02184c7.6091,-0.59059 8.57105,10.98701 1.12991,11.67943c-7.99592,0.74333 -8.70338,-11.09393 -1.12991,-11.67943z" fill-rule="nonzero" fill="rgb(249, 246, 185)" fill-opacity="1" style="mix-blend-mode:normal"></path></g></g></g></g></g><g id="mavuqwv992268815_translate"><g transform="matrix(1,0,0,1,60.1477,9.5593)"><g id="mavuqwv992268815" opacity="1" style="mix-blend-mode:normal"><g><g><path id="mavuqwv992268815_fill_path" d="M4.4952,0.04269c6.45883,-0.77388 7.56838,9.22033 1.31823,10.07567c-6.94235,0.94698 -8.01627,-9.27633 -1.31823,-10.07567z" fill-rule="nonzero" fill="rgb(249, 246, 185)" fill-opacity="1" style="mix-blend-mode:normal"></path></g></g></g></g></g></g></g></g></g></g></g></g></g></g></g><animateTransform href="#mavuqwva79930916_translate" attributeName="transform" type="translate" values="0 0;0 0;-7.9965 17.9964;0.0035 3.9964;0.0035 3.9964" dur="4s" repeatCount="indefinite" calcMode="spline" keyTimes="0;0.01;0.88;1;1" keySplines="0.5 0.35 0.15 1;0.5 0.35 0.15 1;0.5 0.35 0.15 1;0.5 0.35 0.15 1" additive="sum" fill="freeze"></animateTransform><animateTransform href="#mavuqwva79930916" attributeName="transform" type="translate" values="0 0;0 0;0 0;0 0;0 0;0 0" dur="4s" repeatCount="indefinite" calcMode="spline" keyTimes="0;0.01;0.49;0.88;1;1" keySplines="0.5 0.35 0.15 1;0.5 0.35 0.15 1;0.5 0.35 0.15 1;0.5 0.35 0.15 1;0.5 0.35 0.15 1" additive="sum" fill="freeze"></animateTransform><animateTransform href="#mavuqwva79930916" attributeName="transform" type="scale" values="0.85 0.85;0.85 0.85;0.95 0.95;0.73 0.73;0.92 0.92;0.92 0.92" dur="4s" repeatCount="indefinite" calcMode="spline" keyTimes="0;0.01;0.49;0.88;1;1" keySplines="0.5 0.35 0.15 1;0.5 0.35 0.15 1;0.5 0.35 0.15 1;0.5 0.35 0.15 1;0.5 0.35 0.15 1" additive="sum" fill="freeze"></animateTransform><animateTransform href="#mavuqwva79930916" attributeName="transform" type="translate" values="0 0;0 0;0 0;0 0;0 0;0 0" dur="4s" repeatCount="indefinite" calcMode="spline" keyTimes="0;0.01;0.49;0.88;1;1" keySplines="0.5 0.35 0.15 1;0.5 0.35 0.15 1;0.5 0.35 0.15 1;0.5 0.35 0.15 1;0.5 0.35 0.15 1" additive="sum" fill="freeze"></animateTransform><animateTransform href="#mavuqwvd85002569_translate" attributeName="transform" type="translate" values="0 0;-11.0012 11.0011;18.9988 0.0011;-7.0012 27.0011;14.9988 7.0011;14.9988 7.0011" dur="4s" repeatCount="indefinite" calcMode="spline" keyTimes="0;0.15;0.52;0.8;0.99;1" keySplines="0.5 0.35 0.15 1;0.5 0.35 0.15 1;0.5 0.35 0.15 1;0.5 0.35 0.15 1;0.5 0.35 0.15 1" additive="sum" fill="freeze"></animateTransform><animateTransform href="#mavuqwvd85002569" attributeName="transform" type="translate" values="0 0;0 0;0 0;0 0;0 0;0 0" dur="4s" repeatCount="indefinite" calcMode="spline" keyTimes="0;0.15;0.52;0.8;0.99;1" keySplines="0.5 0.35 0.15 1;0.5 0.35 0.15 1;0.5 0.35 0.15 1;0.5 0.35 0.15 1;0.5 0.35 0.15 1" additive="sum" fill="freeze"></animateTransform><animateTransform href="#mavuqwvd85002569" attributeName="transform" type="scale" values="1 1;1.15 1.15;1.32 1.32;1.12 1.12;0.92 0.92;0.92 0.92" dur="4s" repeatCount="indefinite" calcMode="spline" keyTimes="0;0.15;0.52;0.8;0.99;1" keySplines="0.5 0.35 0.15 1;0.5 0.35 0.15 1;0.5 0.35 0.15 1;0.5 0.35 0.15 1;0.5 0.35 0.15 1" additive="sum" fill="freeze"></animateTransform><animateTransform href="#mavuqwvd85002569" attributeName="transform" type="translate" values="0 0;0 0;0 0;0 0;0 0;0 0" dur="4s" repeatCount="indefinite" calcMode="spline" keyTimes="0;0.15;0.52;0.8;0.99;1" keySplines="0.5 0.35 0.15 1;0.5 0.35 0.15 1;0.5 0.35 0.15 1;0.5 0.35 0.15 1;0.5 0.35 0.15 1" additive="sum" fill="freeze"></animateTransform><animateTransform href="#mavuqwvf06409413_translate" attributeName="transform" type="translate" values="0 0;4.9973 -19.9978;1.9973 1.0022;-24.0027 2.0022;-24.0027 2.0022" dur="4s" repeatCount="indefinite" calcMode="spline" keyTimes="0;0.35;0.86;0.98;1" keySplines="0.5 0.35 0.15 1;0.5 0.35 0.15 1;0.5 0.35 0.15 1;0.5 0.35 0.15 1" additive="sum" fill="freeze"></animateTransform><animateTransform href="#mavuqwvf06409413" attributeName="transform" type="translate" values="0 0;0 0;0 0;0 0;0 0" dur="4s" repeatCount="indefinite" calcMode="spline" keyTimes="0;0.35;0.86;0.98;1" keySplines="0.5 0.35 0.18 0.81;0.67 0.33 0.15 0.96;0.71 0.25 0 0.87;0.5 0.35 0 0.87" additive="sum" fill="freeze"></animateTransform><animateTransform href="#mavuqwvf06409413" attributeName="transform" type="scale" values="1 1;0.7 0.7;0.9 0.9;0.75 0.75;0.75 0.75" dur="4s" repeatCount="indefinite" calcMode="spline" keyTimes="0;0.35;0.86;0.98;1" keySplines="0.5 0.35 0.18 0.81;0.67 0.33 0.15 0.96;0.71 0.25 0 0.87;0.5 0.35 0 0.87" additive="sum" fill="freeze"></animateTransform><animateTransform href="#mavuqwvf06409413" attributeName="transform" type="translate" values="0 0;0 0;0 0;0 0;0 0" dur="4s" repeatCount="indefinite" calcMode="spline" keyTimes="0;0.35;0.86;0.98;1" keySplines="0.5 0.35 0.18 0.81;0.67 0.33 0.15 0.96;0.71 0.25 0 0.87;0.5 0.35 0 0.87" additive="sum" fill="freeze"></animateTransform><animateTransform href="#mavuqwu855949326_translate" attributeName="transform" type="translate" values="0 0;0 0;15 -13;22 11;-13 10;-13 10" dur="4s" repeatCount="indefinite" calcMode="spline" keyTimes="0;0.03;0.37;0.8;0.98;1" keySplines="0.5 0.35 0.15 1;0.5 0.35 0.15 1;0.5 0.35 0.15 1;0.5 0.35 0.15 1;0.5 0.35 0.15 1" additive="sum" fill="freeze"></animateTransform><animateTransform href="#mavuqwu855949326" attributeName="transform" type="translate" values="0 0;0 0;0 0;0 0;0 0" dur="4s" repeatCount="indefinite" calcMode="spline" keyTimes="0;0.03;0.37;0.8;1" keySplines="0.5 0.35 0.15 1;0.5 0.35 0.15 1;0.5 0.35 0.15 1;0.5 0.35 0.15 1" additive="sum" fill="freeze"></animateTransform><animateTransform href="#mavuqwu855949326" attributeName="transform" type="scale" values="0.98 0.98;0.98 0.98;0.94 0.94;0.92 0.92;0.92 0.92" dur="4s" repeatCount="indefinite" calcMode="spline" keyTimes="0;0.03;0.37;0.8;1" keySplines="0.5 0.35 0.15 1;0.5 0.35 0.15 1;0.5 0.35 0.15 1;0.5 0.35 0.15 1" additive="sum" fill="freeze"></animateTransform><animateTransform href="#mavuqwu855949326" attributeName="transform" type="translate" values="0 0;0 0;0 0;0 0;0 0" dur="4s" repeatCount="indefinite" calcMode="spline" keyTimes="0;0.03;0.37;0.8;1" keySplines="0.5 0.35 0.15 1;0.5 0.35 0.15 1;0.5 0.35 0.15 1;0.5 0.35 0.15 1" additive="sum" fill="freeze"></animateTransform></svg>