<svg id="mavwm2p376846433" viewBox="0 0 200 200" xmlns="http://www.w3.org/2000/svg" xmlns:xlink="http://www.w3.org/1999/xlink"><g id="mavwm2p376846433_translate"><g transform="matrix(1,0,0,1,0,0)"><g id="mavwm2p376846433" opacity="1" style="mix-blend-mode:normal"><g><defs><clipPath id="mavwm2p376846433_clipPath" x="-50%" y="-50%" width="200%" height="200%"><path id="mavwm2p376846433_fill_path" d="M0.01,0h199.98c0.00552,0 0.01,0.00448 0.01,0.01v199.98c0,0.00552 -0.00448,0.01 -0.01,0.01h-199.98c-0.00552,0 -0.01,-0.00448 -0.01,-0.01v-199.98c0,-0.00552 0.00448,-0.01 0.01,-0.01z" fill="white" clip-rule="nonzero"></path></clipPath></defs><g clip-path="url(#mavwm2p376846433_clipPath)"><path id="mavwm2p376846433_fill_path" d="M0.01,0h199.98c0.00552,0 0.01,0.00448 0.01,0.01v199.98c0,0.00552 -0.00448,0.01 -0.01,0.01h-199.98c-0.00552,0 -0.01,-0.00448 -0.01,-0.01v-199.98c0,-0.00552 0.00448,-0.01 0.01,-0.01z" fill-rule="nonzero" fill="rgb(255, 255, 255)" fill-opacity="1" style="mix-blend-mode:normal"></path><g id="mavwm2p671379216_translate"><g transform="matrix(1,0,0,1,2.9973,118.5173)"><g id="mavwm2p671379216" opacity="1" style="mix-blend-mode:normal"><g><g><g id="mavwm2p609384364_translate"><g transform="matrix(1,0,0,1,0,7.927)"><g id="mavwm2p609384364" opacity="1" style="mix-blend-mode:normal"><g><g><path id="mavwm2p609384364_fill_path" d="M103.84547,0.02859c7.79153,-0.54866 5.12151,6.95153 10.56813,9.52972c5.84631,2.76996 19.64936,-0.70314 26.34838,-1.51815c11.07975,-1.34769 26.7854,-1.44358 37.16167,3.02564c6.32596,2.72734 7.52506,7.06339 0.67682,10.24352c-6.30464,2.92976 -13.91497,3.54768 -20.33153,6.08858c-0.91665,0.36223 -2.12108,0.85762 -2.76061,1.59273c-0.17587,0.67651 2.1424,2.38109 2.7233,2.79126c4.74846,3.40385 15.99343,7.7772 18.29039,13.07741c3.34684,7.72392 -10.42424,9.27402 -15.15138,9.77474c-12.65724,1.34769 -26.26844,0.89492 -39.00029,0.6126c-7.8395,-0.17579 -15.72163,-0.18645 -23.50783,-1.25714c-4.59924,-0.63389 -14.09617,-1.84308 -14.16546,-7.91568c-0.01066,-0.83099 0.60755,-1.92833 -0.11191,-2.7753c-1.24707,-1.46488 -8.8201,-2.44502 -10.93586,-2.68472c-12.39078,-1.42759 -24.9521,-0.83632 -37.35886,-1.85907c-3.30954,-0.27167 -10.89855,-0.95883 -13.50994,-2.79659c-4.37008,-3.07359 0.68216,-7.10068 2.46749,-9.89194c0.01066,-0.7138 -2.59007,-1.646 -3.25624,-1.90169c-5.49991,-2.12541 -18.61014,-5.30021 -21.34944,-10.84545c-3.46942,-7.03143 8.03668,-8.91713 12.52934,-9.42318c9.19316,-1.03873 18.64745,-0.62857 27.85659,-0.61259c13.21683,0.02131 26.44432,-0.06392 39.65049,0.39419c2.05714,0.06925 5.85164,0.79902 7.62632,0.62856c0.25581,-0.02663 1.20443,-0.89491 1.9612,-1.13994c3.15498,-1.02275 10.41358,-2.90845 13.58456,-3.13218zM179.19203,16.09434c-3.74121,-2.41306 -8.51633,-3.44647 -12.89174,-4.12298c-8.66022,-1.34769 -17.48565,-1.11331 -26.1512,0c-8.66555,1.11331 -23.71567,5.41208 -30.27612,-0.9535c-2.13708,-2.07214 -2.22235,-4.23484 -3.53337,-6.37091c-0.81006,-1.31573 -3.16031,-0.69248 -4.5193,-0.45278c-2.16372,0.38353 -7.61034,1.6673 -9.53957,2.43436c-0.91132,0.36223 -1.0712,1.06537 -2.11042,1.18789c-1.17779,0.1385 -2.23833,-0.1971 -3.29888,-0.2184c-20.98171,-0.41017 -42.40576,-1.11864 -63.37149,-0.39419c-5.1002,0.17579 -10.70137,0.13317 -15.63636,1.49684c-2.71798,0.75108 -5.60649,1.6673 -2.43552,4.37866c5.5532,4.74622 19.23901,6.3496 22.70843,10.11035c3.46942,3.76075 -1.76935,6.8077 -3.09636,9.79606c4.01301,1.26246 8.29782,1.73655 12.49203,2.06149c13.86701,1.08668 29.3275,-0.0586 42.86942,2.74332c2.91516,0.60193 7.58368,1.78982 8.16458,5.24694c0.453,2.70071 -1.10851,3.79804 2.05714,5.16171c6.81626,2.94042 19.26033,2.87649 26.79072,3.1375c11.71395,0.39951 23.36926,0.56997 35.07255,0c5.43595,-0.26634 11.59671,-0.39418 16.83015,-1.95494c3.63996,-1.08668 5.31871,-1.94962 1.96654,-5.0605c-4.68451,-4.34138 -11.87917,-6.44015 -16.71823,-10.52051c-7.2586,-6.12054 -0.21318,-9.19946 5.51056,-10.98395c6.34727,-1.98159 13.32342,-2.80191 19.11111,-6.16315v-0.554z" fill-rule="nonzero" fill="rgb(66, 43, 84)" fill-opacity="1" style="mix-blend-mode:normal"></path></g></g></g></g></g><g id="mavwm2pc92564557_translate"><g transform="matrix(1,0,0,1,57.7227,52.3045)"><g id="mavwm2pc92564557" opacity="1" style="mix-blend-mode:normal"><g><g><path id="mavwm2pc92564557_fill_path" d="M10.61848,0.00792c1.57749,-0.0586 7.06141,0.20242 8.19657,0.96949c0.60222,0.40484 0.59156,0.9535 0.93797,1.33171c0.71413,0.77239 1.90259,0.96415 2.41954,2.3225c2.21169,5.82224 -7.13602,6.63193 -10.80263,6.46679c-3.17097,-0.14382 -10.99981,-1.52349 -11.35688,-5.57189c-0.37838,-4.30409 7.57836,-5.41206 10.60011,-5.5186zM4.26587,5.51587c3.56535,1.65665 8.74549,2.35446 12.55598,1.3104c0.60755,-0.16513 1.22576,-0.31428 1.67875,-0.79369c0,-0.18111 -1.35899,-0.76173 -1.63078,-1.04406c-0.28779,-0.2983 -0.42102,-0.89492 -0.62887,-1.02276c-0.14922,-0.09056 -1.81198,-0.29297 -2.16372,-0.31428c-2.09977,-0.13317 -7.74357,0.41017 -9.55022,1.40629c-0.23449,0.12784 -0.34641,-0.01066 -0.26114,0.4581z" fill-rule="nonzero" fill="rgb(66, 43, 84)" fill-opacity="1" style="mix-blend-mode:normal"></path></g></g></g></g></g><g id="mavwm2pg02983875_translate"><g transform="matrix(1,0,0,1,175.2464,33.074)"><g id="mavwm2pg02983875" opacity="1" style="mix-blend-mode:normal"><g><g><path id="mavwm2pg02983875_fill_path" d="M9.31224,0.05095c3.37349,-0.28765 9.81136,0.53269 8.82543,5.31619c-1.11384,5.41207 -15.36455,7.58542 -17.74145,2.43969c-2.21169,-4.77818 5.39864,-7.45758 8.91602,-7.75588zM3.98287,6.38456c3.32552,1.11864 7.65831,0.59661 10.31766,-1.75253c-1.98252,-1.45423 -5.54254,-0.88959 -7.74357,-0.11187c-0.39437,0.1385 -3.00044,1.2891 -2.57409,1.86439z" fill-rule="nonzero" fill="rgb(66, 43, 84)" fill-opacity="1" style="mix-blend-mode:normal"></path></g></g></g></g></g><g id="mavwm2ph29534041_translate"><g transform="matrix(1,0,0,1,2.4863,0)"><g id="mavwm2ph29534041" opacity="1" style="mix-blend-mode:normal"><g><g><path id="mavwm2ph29534041_fill_path" d="M11.75099,0.95076c0.4903,0.47942 1.02857,2.05616 1.08719,2.74332c0.51162,6.31231 -10.66406,7.75056 -12.55599,3.04695c-2.16905,-5.39609 8.79345,-8.38977 11.46879,-5.79027zM8.93175,3.56091c-1.03923,-0.04794 -2.17438,0.10121 -3.15498,0.45811c-0.26114,0.09588 -2.15306,1.00678 -1.80133,1.39564c1.70007,0.3569 5.12685,0.64454 4.95631,-1.85375z" fill-rule="nonzero" fill="rgb(66, 43, 84)" fill-opacity="1" style="mix-blend-mode:normal"></path></g></g></g></g></g><g id="mavwm2pj90592482_translate"><g transform="matrix(1,0,0,1,4.051,11.7574)"><g id="mavwm2pj90592482" opacity="1" style="mix-blend-mode:normal"><g><g><path id="mavwm2pj90592482_fill_path" d="M175.141,12.2641v0.55399c-5.78769,3.36656 -12.75851,4.1869 -19.10578,6.16316c-5.72374,1.78449 -12.76916,4.8634 -5.51056,10.98395c4.83906,4.08036 12.03904,6.17914 16.71822,10.52052c3.35217,3.11088 1.67342,3.97382 -1.96654,5.0605c-5.23344,1.56076 -11.39418,1.68862 -16.83013,1.95496c-11.70329,0.56997 -23.35862,0.39951 -35.07256,0c-7.53572,-0.26102 -19.9798,-0.19177 -26.79072,-3.13752c-3.16564,-1.369 -1.60414,-2.461 -2.05714,-5.16171c-0.5809,-3.45712 -5.24942,-4.645 -8.16458,-5.24694c-13.54192,-2.80192 -29.00774,-1.66197 -42.86942,-2.74332c-4.19421,-0.33026 -8.47902,-0.80436 -12.49204,-2.06149c1.32701,-2.98303 6.43255,-6.17914 3.09636,-9.79606c-3.33618,-3.61693 -17.15523,-5.36413 -22.70843,-10.11034c-3.17097,-2.71136 -0.28246,-3.63291 2.43552,-4.37867c4.93499,-1.35834 10.53616,-1.31573 15.63636,-1.49684c20.96573,-0.72445 42.38978,-0.01599 63.37149,0.39418c1.06054,0.02131 2.12109,0.36223 3.29888,0.2184c1.03923,-0.12252 1.20443,-0.82566 2.11042,-1.18788c1.9239,-0.76707 7.37585,-2.05084 9.53957,-2.43437c1.35899,-0.23971 3.70924,-0.86295 4.5193,0.45278c1.31102,2.13606 1.40162,4.29877 3.53336,6.37091c6.56045,6.36025 22.00495,2.01354 30.27613,0.9535c8.27118,-1.06004 17.49098,-1.34236 26.1512,0c4.37541,0.68184 9.15052,1.70992 12.89174,4.12298z" fill-rule="nonzero" fill="rgb(33, 168, 171)" fill-opacity="1" style="mix-blend-mode:normal"></path></g></g></g></g></g><g id="mavwm2pl05732695_translate"><g transform="matrix(1,0,0,1,61.9602,55.9361)"><g id="mavwm2pl05732695" opacity="1" style="mix-blend-mode:normal"><g><g><path id="mavwm2pl05732695_fill_path" d="M0.02846,1.88413c-0.08527,-0.46876 0.02665,-0.32493 0.26114,-0.4581c1.80665,-0.99079 7.45045,-1.53947 9.55022,-1.40629c0.35174,0.02131 2.0145,0.22373 2.16372,0.31428c0.20785,0.12252 0.34108,0.72446 0.62887,1.02276c0.28779,0.2983 1.63078,0.86827 1.63078,1.04406c-0.45833,0.47942 -1.07121,0.62324 -1.67876,0.79369c-3.8105,1.04406 -8.99064,0.34625 -12.55598,-1.3104z" fill-rule="nonzero" fill="rgb(33, 168, 171)" fill-opacity="1" style="mix-blend-mode:normal"></path></g></g></g></g></g><g id="mavwm2pm34683613_translate"><g transform="matrix(1,0,0,1,179.1824,36.8047)"><g id="mavwm2pm34683613" opacity="1" style="mix-blend-mode:normal"><g><g><path id="mavwm2pm34683613_fill_path" d="M0.04697,2.65383c-0.42635,-0.5753 2.17972,-1.7259 2.57409,-1.86439c2.20103,-0.77772 5.76104,-1.34236 7.74357,0.11187c-2.65402,2.34914 -6.99214,2.87116 -10.31766,1.75253z" fill-rule="nonzero" fill="rgb(33, 168, 171)" fill-opacity="1" style="mix-blend-mode:normal"></path></g></g></g></g></g><g id="mavwm2pn85113482_translate"><g transform="matrix(1,0,0,1,6.4173,3.5523)"><g id="mavwm2pn85113482" opacity="1" style="mix-blend-mode:normal"><g><g><path id="mavwm2pn85113482_fill_path" d="M5.00089,0.00873c0.17054,2.49829 -3.25091,2.21597 -4.95631,1.85375c-0.35707,-0.38886 1.54019,-1.30508 1.80133,-1.39564c0.9806,-0.3569 2.11576,-0.50605 3.15498,-0.45811z" fill-rule="nonzero" fill="rgb(33, 168, 171)" fill-opacity="1" style="mix-blend-mode:normal"></path></g></g></g></g></g></g></g></g></g></g><g id="mavwm2po81062523_translate"><g transform="matrix(1,0,0,1,16.89,31)"><g id="mavwm2po81062523" opacity="1" style="mix-blend-mode:normal"><g><g><g id="mavwm2po78567378_translate"><g transform="matrix(1,0,0,1,0,0)"><g id="mavwm2po78567378" opacity="1" style="mix-blend-mode:normal"><g><g><path id="mavwm2po78567378_fill_path" d="M108.10571,109.35537l-6.20871,4.41596c-14.52785,9.08759 -29.33816,8.3152 -45.5341,4.90069c-3.18696,-0.67118 -6.53913,-0.09056 -9.88064,-0.23438c-16.6596,-0.71912 -34.16123,-9.17815 -44.89458,-21.97855c-1.15114,-1.37433 -2.72331,-4.28811 -0.35707,-5.31619c1.31635,-0.56997 1.78001,0.47942 2.69133,0.91622c2.67534,1.27844 7.17333,2.71136 10.08849,3.32394c9.9446,2.08812 19.23901,-0.4368 27.72869,-5.6358c0.19186,-0.22373 -0.22916,-0.36755 -0.37305,-0.45811c-2.47283,-1.47554 -10.72268,-5.53458 -11.78323,-7.8198c-1.94522,-4.17624 5.34535,-4.2668 7.88746,-4.86341c12.46539,-2.92444 21.31746,-10.0411 30.99026,-17.93548c-2.3769,-2.83388 -4.92434,-5.51328 -7.32255,-8.33118c-1.59348,-1.86972 -6.07014,-6.71715 -6.80559,-8.6721c-0.65018,-1.73122 0.28778,-3.31862 2.21168,-3.24405c1.9239,0.07458 6.15009,1.79515 8.40974,2.3225c8.6389,2.00822 16.94205,1.92832 25.70353,2.36512c5.47326,0.27167 11.21299,0.59661 16.10002,3.30797c4.61523,-3.95784 11.48478,-5.39609 16.92606,-2.30652l47.52196,-40.24962c5.40931,-8.50164 15.49779,-1.51815 10.58945,6.97284l-47.59123,41.98617c-0.20252,0.38353 1.52952,2.48231 1.87593,3.08957c3.2296,5.6358 3.14432,14.3292 -2.07313,18.77179c-1.11917,0.9535 -2.38755,1.4276 -3.58665,2.21064c0.29844,2.5409 0.9806,5.04984 1.21509,7.6014c1.38031,15.11758 -3.73589,20.96112 -13.11024,31.25258c-1.37498,1.51282 -5.62781,7.04209 -7.26925,7.383c-1.64144,0.34092 -2.55277,-0.42614 -2.89918,-1.96027l-0.25581,-11.81494zM176.78525,3.96913l-60.11525,51.13236c-0.11725,1.50217 2.43019,4.68762 3.92241,4.53847l56.88031,-49.82728c2.25432,-1.37433 2.8672,-6.29633 -0.68216,-5.84355zM104.56168,49.56157c-2.56342,-1.32106 -5.4999,-1.90701 -8.35112,-2.27989c-7.10404,-0.92687 -14.49588,-0.3569 -21.64789,-1.06004c-4.78044,-0.46876 -9.50226,-1.48619 -14.13881,-2.6794l10.86658,12.98684c0.37838,0.11186 2.5954,-1.4489 3.16564,-1.74721c4.26882,-2.23727 9.23579,-3.76607 14.11749,-3.37189c1.70007,0.1385 8.15926,1.07069 5.87829,3.9685c-1.17246,1.48619 -3.6826,0.17579 -5.26009,-0.04794c-11.41017,-1.61936 -21.02967,8.93844 -29.53001,15.00039c-8.45237,6.02466 -14.26139,8.2353 -24.32323,10.56313c-0.31443,0.07458 -0.36239,-0.1385 -0.3091,0.40484c3.58133,1.83776 6.77362,4.73024 10.62143,5.98737c11.26095,-7.18058 21.81309,-16.75825 35.36567,-19.33111c4.50864,-0.85762 13.0836,-1.23583 17.46433,-0.03729c2.48881,0.68184 2.43552,3.48908 0.03197,3.70215c-1.74803,0.15448 -4.15158,-0.53801 -5.99021,-0.6339c-32.10943,-1.75786 -46.50937,34.58719 -79.00251,28.21096l-5.12152,-1.27844c9.25178,8.43772 19.71332,14.48901 32.33326,16.16696c14.03222,1.86439 28.02713,-0.55399 40.10348,-7.93167c10.6161,-6.48809 21.40806,-16.57713 25.10664,-28.75429c1.12983,-1.56076 3.43744,-0.91089 3.18696,1.10798c-0.12258,1.00677 -1.04988,3.6915 -1.43893,4.76752c-4.45535,12.34229 -21.97297,25.89378 -33.85746,30.73588l-7.63166,2.57819c9.89663,1.37433 19.60674,0.86295 28.76259,-3.32928c6.96548,-3.18545 13.9736,-9.31664 19.02051,-15.02702c1.91324,-2.1627 4.01301,-5.72636 5.87296,-7.54281c1.47623,-1.43825 3.53338,-0.44213 3.30421,1.43292c-0.11192,0.90024 -1.96654,3.18013 -2.59541,4.02177c-2.80858,3.7501 -6.14476,7.24983 -9.5449,10.47257c1.5615,3.29732 0.7248,7.07405 1.10318,10.59509c5.60649,-6.55202 13.13155,-12.40089 15.07144,-21.24877c1.34833,-6.14718 0.53828,-12.19314 -0.10658,-18.36695c-6.49117,0.46876 -14.90624,-2.10943 -17.34176,-8.76265c-0.33575,-0.91622 -0.47964,-2.71669 -0.71413,-3.20676c-0.12258,-0.25569 -0.8527,-0.58595 -1.14582,-0.91621c-2.63271,-2.94042 -4.34343,-6.9462 -4.12492,-10.95199c0.07994,-1.43292 0.68216,-2.76996 0.7994,-4.18157zM120.28864,46.63714c-3.63996,-0.75641 -7.8768,-0.25569 -10.63741,2.46633c-3.2296,3.18012 -2.1957,9.34328 0.35707,12.6619c0.55958,0.72978 2.23833,2.04551 2.49414,2.66875c0.54892,1.35834 -0.08527,2.19466 1.10318,4.05906c3.36816,5.2789 14.46923,7.59607 18.74871,2.47698c3.00043,-3.59029 2.64869,-9.45514 0.36239,-13.32243c-0.34641,-0.58063 -1.18846,-2.17335 -1.89193,-1.82711c-2.65402,2.18933 -5.05223,4.7835 -7.74889,6.90891c-0.9806,0.77239 -1.91857,1.86439 -3.25092,1.19854c-1.16713,-0.58595 -3.18164,-1.94963 -4.07697,-2.94042c-1.60947,-1.77917 -3.4481,-5.72103 -2.23833,-8.02755c0.59689,-1.13994 4.90835,-4.22419 6.17141,-5.38544c0.26647,-0.24503 0.66617,-0.5167 0.61821,-0.9322z" fill-rule="nonzero" fill="rgb(66, 43, 84)" fill-opacity="1" style="mix-blend-mode:normal"></path><g style="mix-blend-mode:normal"><g><path id="mavwm2po78567378_stroke_path" d="M108.10571,109.35537l-6.20871,4.41596c-14.52785,9.08759 -29.33816,8.3152 -45.5341,4.90069c-3.18696,-0.67118 -6.53913,-0.09056 -9.88064,-0.23438c-16.6596,-0.71912 -34.16123,-9.17815 -44.89458,-21.97855c-1.15114,-1.37433 -2.72331,-4.28811 -0.35707,-5.31619c1.31635,-0.56997 1.78001,0.47942 2.69133,0.91622c2.67534,1.27844 7.17333,2.71136 10.08849,3.32394c9.9446,2.08812 19.23901,-0.4368 27.72869,-5.6358c0.19186,-0.22373 -0.22916,-0.36755 -0.37305,-0.45811c-2.47283,-1.47554 -10.72268,-5.53458 -11.78323,-7.8198c-1.94522,-4.17624 5.34535,-4.2668 7.88746,-4.86341c12.46539,-2.92444 21.31746,-10.0411 30.99026,-17.93548c-2.3769,-2.83388 -4.92434,-5.51328 -7.32255,-8.33118c-1.59348,-1.86972 -6.07014,-6.71715 -6.80559,-8.6721c-0.65018,-1.73122 0.28778,-3.31862 2.21168,-3.24405c1.9239,0.07458 6.15009,1.79515 8.40974,2.3225c8.6389,2.00822 16.94205,1.92832 25.70353,2.36512c5.47326,0.27167 11.21299,0.59661 16.10002,3.30797c4.61523,-3.95784 11.48478,-5.39609 16.92606,-2.30652l47.52196,-40.24962c5.40931,-8.50164 15.49779,-1.51815 10.58945,6.97284l-47.59123,41.98617c-0.20252,0.38353 1.52952,2.48231 1.87593,3.08957c3.2296,5.6358 3.14432,14.3292 -2.07313,18.77179c-1.11917,0.9535 -2.38755,1.4276 -3.58665,2.21064c0.29844,2.5409 0.9806,5.04984 1.21509,7.6014c1.38031,15.11758 -3.73589,20.96112 -13.11024,31.25258c-1.37498,1.51282 -5.62781,7.04209 -7.26925,7.383c-1.64144,0.34092 -2.55277,-0.42614 -2.89918,-1.96027l-0.25581,-11.81494zM176.78525,3.96913l-60.11525,51.13236c-0.11725,1.50217 2.43019,4.68762 3.92241,4.53847l56.88031,-49.82728c2.25432,-1.37433 2.8672,-6.29633 -0.68216,-5.84355zM104.56168,49.56157c-2.56342,-1.32106 -5.4999,-1.90701 -8.35112,-2.27989c-7.10404,-0.92687 -14.49588,-0.3569 -21.64789,-1.06004c-4.78044,-0.46876 -9.50226,-1.48619 -14.13881,-2.6794l10.86658,12.98684c0.37838,0.11186 2.5954,-1.4489 3.16564,-1.74721c4.26882,-2.23727 9.23579,-3.76607 14.11749,-3.37189c1.70007,0.1385 8.15926,1.07069 5.87829,3.9685c-1.17246,1.48619 -3.6826,0.17579 -5.26009,-0.04794c-11.41017,-1.61936 -21.02967,8.93844 -29.53001,15.00039c-8.45237,6.02466 -14.26139,8.2353 -24.32323,10.56313c-0.31443,0.07458 -0.36239,-0.1385 -0.3091,0.40484c3.58133,1.83776 6.77362,4.73024 10.62143,5.98737c11.26095,-7.18058 21.81309,-16.75825 35.36567,-19.33111c4.50864,-0.85762 13.0836,-1.23583 17.46433,-0.03729c2.48881,0.68184 2.43552,3.48908 0.03197,3.70215c-1.74803,0.15448 -4.15158,-0.53801 -5.99021,-0.6339c-32.10943,-1.75786 -46.50937,34.58719 -79.00251,28.21096l-5.12152,-1.27844c9.25178,8.43772 19.71332,14.48901 32.33326,16.16696c14.03222,1.86439 28.02713,-0.55399 40.10348,-7.93167c10.6161,-6.48809 21.40806,-16.57713 25.10664,-28.75429c1.12983,-1.56076 3.43744,-0.91089 3.18696,1.10798c-0.12258,1.00677 -1.04988,3.6915 -1.43893,4.76752c-4.45535,12.34229 -21.97297,25.89378 -33.85746,30.73588l-7.63166,2.57819c9.89663,1.37433 19.60674,0.86295 28.76259,-3.32928c6.96548,-3.18545 13.9736,-9.31664 19.02051,-15.02702c1.91324,-2.1627 4.01301,-5.72636 5.87296,-7.54281c1.47623,-1.43825 3.53338,-0.44213 3.30421,1.43292c-0.11192,0.90024 -1.96654,3.18013 -2.59541,4.02177c-2.80858,3.7501 -6.14476,7.24983 -9.5449,10.47257c1.5615,3.29732 0.7248,7.07405 1.10318,10.59509c5.60649,-6.55202 13.13155,-12.40089 15.07144,-21.24877c1.34833,-6.14718 0.53828,-12.19314 -0.10658,-18.36695c-6.49117,0.46876 -14.90624,-2.10943 -17.34176,-8.76265c-0.33575,-0.91622 -0.47964,-2.71669 -0.71413,-3.20676c-0.12258,-0.25569 -0.8527,-0.58595 -1.14582,-0.91621c-2.63271,-2.94042 -4.34343,-6.9462 -4.12492,-10.95199c0.07994,-1.43292 0.68216,-2.76996 0.7994,-4.18157zM120.28864,46.63714c-3.63996,-0.75641 -7.8768,-0.25569 -10.63741,2.46633c-3.2296,3.18012 -2.1957,9.34328 0.35707,12.6619c0.55958,0.72978 2.23833,2.04551 2.49414,2.66875c0.54892,1.35834 -0.08527,2.19466 1.10318,4.05906c3.36816,5.2789 14.46923,7.59607 18.74871,2.47698c3.00043,-3.59029 2.64869,-9.45514 0.36239,-13.32243c-0.34641,-0.58063 -1.18846,-2.17335 -1.89193,-1.82711c-2.65402,2.18933 -5.05223,4.7835 -7.74889,6.90891c-0.9806,0.77239 -1.91857,1.86439 -3.25092,1.19854c-1.16713,-0.58595 -3.18164,-1.94963 -4.07697,-2.94042c-1.60947,-1.77917 -3.4481,-5.72103 -2.23833,-8.02755c0.59689,-1.13994 4.90835,-4.22419 6.17141,-5.38544c0.26647,-0.24503 0.66617,-0.5167 0.61821,-0.9322z" fill="none" stroke="rgb(66, 43, 85)" stroke-width="2" stroke-linecap="butt" stroke-linejoin="round" stroke-dasharray="0 0" stroke-opacity="1"></path><defs><mask id="mavwm2po78567378_gradient_mask"></mask></defs><rect x="-187.1038" y="-127.2105" width="561.3114" height="381.63149999999996" fill="url(#mavwm2po78567378ps0)" mask="url(#mavwm2po78567378_gradient_mask)"></rect></g></g></g></g></g></g></g><g id="mavwm2pu20534717_translate"><g transform="matrix(1,0,0,1,8.3987,43.5263)"><g id="mavwm2pu20534717" opacity="1" style="mix-blend-mode:normal"><g><g><path id="mavwm2pu20534717_fill_path" d="M96.16307,6.03531c-0.11725,1.41694 -0.71946,2.74865 -0.7994,4.18157c-0.2185,4.00579 1.49755,8.01157 4.12492,10.95199c0.29844,0.33026 1.02324,0.66053 1.14582,0.91622c0.23449,0.48474 0.37838,2.28522 0.71413,3.20676c2.43552,6.65323 10.85059,9.23142 17.34176,8.76265c0.63952,6.17381 1.44958,12.21445 0.10658,18.36695c-1.93989,8.84789 -9.46494,14.69675 -15.07144,21.24877c-0.37306,-3.52104 0.45832,-7.29777 -1.10318,-10.59509c3.40014,-3.22274 6.73632,-6.71714 9.5449,-10.47257c0.62887,-0.84164 2.48882,-3.12153 2.59541,-4.02177c0.22916,-1.87505 -1.82798,-2.87117 -3.30421,-1.43292c-1.85995,1.81113 -3.95972,5.38011 -5.87296,7.54281c-5.05224,5.71038 -12.06036,11.84157 -19.02051,15.02702c-9.15585,4.19223 -18.87128,4.7036 -28.76259,3.32928l7.63166,-2.57819c11.88448,-4.83677 29.40211,-18.39359 33.85746,-30.73588c0.38904,-1.07602 1.31102,-3.76075 1.43893,-4.76752c0.25048,-2.01887 -2.05713,-2.66875 -3.18696,-1.10798c-3.69858,12.17716 -14.48522,22.27153 -25.10664,28.75429c-12.07634,7.37235 -26.06593,9.79606 -40.10348,7.93166c-12.61994,-1.67796 -23.08148,-7.72925 -32.33326,-16.16697l5.12152,1.27845c32.49314,6.37623 46.88776,-29.96882 79.00251,-28.21096c1.83863,0.10121 4.23685,0.78837 5.99021,0.6339c2.39821,-0.21307 2.45684,-3.02032 -0.03197,-3.70215c-4.38074,-1.19854 -12.95569,-0.82033 -17.46433,0.03729c-13.55791,2.57286 -24.11005,12.15053 -35.36567,19.33111c-3.8478,-1.25713 -7.04009,-4.14429 -10.62143,-5.98737c-0.05329,-0.54334 -0.01066,-0.33026 0.3091,-0.40484c10.06184,-2.32783 15.87085,-4.53847 24.32323,-10.56313c8.50034,-6.05662 18.11984,-16.61975 29.53001,-15.00039c1.57749,0.22373 4.08763,1.53946 5.26009,0.04794c2.28097,-2.8978 -4.18355,-3.83 -5.87829,-3.9685c-4.8817,-0.39419 -9.84867,1.13994 -14.11749,3.37189c-0.57024,0.2983 -2.78726,1.85907 -3.16564,1.7472l-10.86658,-12.98684c4.63655,1.19321 9.35837,2.21064 14.13881,2.6794c7.14668,0.70314 14.54384,0.13317 21.64789,1.06004c2.85121,0.37288 5.78769,0.95883 8.35111,2.27989z" fill-rule="nonzero" fill="rgb(238, 229, 43)" fill-opacity="1" style="mix-blend-mode:normal"></path></g></g></g></g></g><g id="mavwm2px74210937_translate"><g transform="matrix(1,0,0,1,116.6609,3.9392)"><g id="mavwm2px74210937" opacity="1" style="mix-blend-mode:normal"><g><g><path id="mavwm2px74210937_fill_path" d="M60.12449,0.02995c3.55469,-0.45811 2.94181,4.46922 0.68216,5.84355l-56.88033,49.82728c-1.49222,0.14915 -4.03966,-3.0363 -3.92241,-4.53847z" fill-rule="nonzero" fill="rgb(66, 43, 84)" fill-opacity="1" style="mix-blend-mode:normal"></path></g></g></g></g></g><g id="mavwm2py22754004_translate"><g transform="matrix(1,0,0,1,107.6224,46.3132)"><g id="mavwm2py22754004" opacity="1" style="mix-blend-mode:normal"><g><g><path id="mavwm2py22754004_fill_path" d="M12.66652,0.32413c0.05329,0.41017 -0.34641,0.68184 -0.61821,0.9322c-1.25773,1.16658 -5.56919,4.24549 -6.17141,5.38544c-1.20977,2.30652 0.62887,6.24839 2.23834,8.02755c0.89533,0.99079 2.90983,2.34914 4.07696,2.94042c1.33234,0.67118 2.27031,-0.42082 3.25091,-1.19854c2.69666,-2.13074 5.09488,-4.71958 7.7489,-6.90892c0.70348,-0.34624 1.54551,1.24115 1.89192,1.82711c2.2863,3.86729 2.63804,9.73747 -0.36239,13.32243c-4.27948,5.1191 -15.38588,2.80725 -18.74871,-2.47698c-1.18845,-1.85907 -0.54893,-2.70071 -1.10318,-4.05906c-0.25048,-0.61791 -1.92923,-1.93364 -2.49414,-2.66875c-2.55277,-3.31862 -3.58133,-9.48178 -0.35707,-12.66191c2.76594,-2.72202 7.00278,-3.22274 10.63741,-2.46633z" fill-rule="nonzero" fill="rgb(238, 229, 43)" fill-opacity="1" style="mix-blend-mode:normal"></path></g></g></g></g></g></g></g></g></g></g></g></g></g></g></g><animateTransform href="#mavwm2po81062523_translate" attributeName="transform" type="translate" values="0 0;0 0;-15.004 1.0007;-0.004 28.0007;1.996 1.0007;1.996 1.0007" dur="4s" repeatCount="indefinite" calcMode="spline" keyTimes="0;0.01;0.46;0.8;0.99;1" keySplines="0.5 0.35 0.15 1;0.5 0.35 0.15 1;0.5 0.35 0.15 1;0.5 0.35 0.15 1;0.5 0.35 0.15 1" additive="sum" fill="freeze"></animateTransform><animateTransform href="#mavwm2po81062523" attributeName="transform" type="translate" values="0 0;0 0;0 0" dur="4s" repeatCount="indefinite" calcMode="spline" keyTimes="0;0.01;1" keySplines="0.5 0.35 0.15 1;0.5 0.35 0.15 1" additive="sum" fill="freeze"></animateTransform><animateTransform href="#mavwm2po81062523" attributeName="transform" type="scale" values="1 1;1 1;1 1" dur="4s" repeatCount="indefinite" calcMode="spline" keyTimes="0;0.01;1" keySplines="0.5 0.35 0.15 1;0.5 0.35 0.15 1" additive="sum" fill="freeze"></animateTransform><animateTransform href="#mavwm2po81062523" attributeName="transform" type="translate" values="0 0;0 0;0 0" dur="4s" repeatCount="indefinite" calcMode="spline" keyTimes="0;0.01;1" keySplines="0.5 0.35 0.15 1;0.5 0.35 0.15 1" additive="sum" fill="freeze"></animateTransform></svg>