<svg id="mavwpszp55614328" viewBox="0 0 200 200" xmlns="http://www.w3.org/2000/svg" xmlns:xlink="http://www.w3.org/1999/xlink"><g id="mavwpszp55614328_translate"><g transform="matrix(1,0,0,1,0,0)"><g id="mavwpszp55614328" opacity="1" style="mix-blend-mode:normal"><g><defs><clipPath id="mavwpszp55614328_clipPath" x="-50%" y="-50%" width="200%" height="200%"><path id="mavwpszp55614328_fill_path" d="M0.01,0h199.98c0.00552,0 0.01,0.00448 0.01,0.01v199.98c0,0.00552 -0.00448,0.01 -0.01,0.01h-199.98c-0.00552,0 -0.01,-0.00448 -0.01,-0.01v-199.98c0,-0.00552 0.00448,-0.01 0.01,-0.01z" fill="white" clip-rule="nonzero"></path></clipPath></defs><g clip-path="url(#mavwpszp55614328_clipPath)"><path id="mavwpszp55614328_fill_path" d="M0.01,0h199.98c0.00552,0 0.01,0.00448 0.01,0.01v199.98c0,0.00552 -0.00448,0.01 -0.01,0.01h-199.98c-0.00552,0 -0.01,-0.00448 -0.01,-0.01v-199.98c0,-0.00552 0.00448,-0.01 0.01,-0.01z" fill-rule="nonzero" fill="rgb(255, 255, 255)" fill-opacity="1" style="mix-blend-mode:normal"></path><g id="mavwpszr64486087_translate"><g transform="matrix(1,0,0,1,143.5024,34.429)"><g id="mavwpszr64486087" opacity="1" style="mix-blend-mode:normal"><g><g><g id="mavwpszr30481632_translate"><g transform="matrix(1,0,0,1,0,0)"><g id="mavwpszr30481632" opacity="1" style="mix-blend-mode:normal"><g><g><path id="mavwpszr30481632_fill_path" d="M0.52059,0.05636c2.77951,-0.03551 5.57427,-0.0761 8.35377,-0.04566c3.37403,0.04059 6.85983,0.31453 10.23386,0.38556c4.84254,0.10654 10.7725,-0.30946 15.47276,0.17756c1.7734,0.18263 1.86993,1.70965 0.19817,1.87199c-1.02135,0.10146 -2.48987,0.02029 -3.55695,0c-6.37203,-0.13697 -12.80503,-0.42107 -19.17706,-0.57327c-3.88724,-0.09132 -7.77957,0.1522 -11.65157,-0.26888c-0.56403,-0.27395 -0.52338,-1.34946 0.13212,-1.54224z" fill-rule="nonzero" fill="rgb(66, 43, 84)" fill-opacity="1" style="mix-blend-mode:normal"></path><g style="mix-blend-mode:normal"><g><path id="mavwpszr30481632_stroke_path" d="M0.52059,0.05636c2.77951,-0.03551 5.57427,-0.0761 8.35377,-0.04566c3.37403,0.04059 6.85983,0.31453 10.23386,0.38556c4.84254,0.10654 10.7725,-0.30946 15.47276,0.17756c1.7734,0.18263 1.86993,1.70965 0.19817,1.87199c-1.02135,0.10146 -2.48987,0.02029 -3.55695,0c-6.37203,-0.13697 -12.80503,-0.42107 -19.17706,-0.57327c-3.88724,-0.09132 -7.77957,0.1522 -11.65157,-0.26888c-0.56403,-0.27395 -0.52338,-1.34946 0.13212,-1.54224z" fill="none" stroke="rgb(66, 43, 84)" stroke-width="6" stroke-linecap="butt" stroke-linejoin="round" stroke-dasharray="0 0" stroke-opacity="1"></path><defs><mask id="mavwpszr30481632_gradient_mask"></mask></defs><rect x="-47.9744" y="-14.4958" width="143.9232" height="43.487399999999994" fill="url(#mavwpszr30481632ps0)" mask="url(#mavwpszr30481632_gradient_mask)"></rect></g></g></g></g></g></g></g><g id="mavwpszu86538475_translate"><g transform="matrix(1,0,0,1,0.5535,15.3669)"><g id="mavwpszu86538475" opacity="1" style="mix-blend-mode:normal"><g><g><path id="mavwpszu86538475_fill_path" d="M25.87685,1.0655c0.3557,0.35005 0.22359,1.24799 -0.26423,1.41033c-0.55387,0.18771 -3.77039,0.0558 -4.63422,0.04058c-4.32424,-0.08117 -8.70437,-0.40585 -13.02861,-0.57326c-2.28661,-0.08624 -4.83238,0.12175 -7.09867,-0.16741c-0.25407,-0.03551 -0.48781,-0.04566 -0.66058,-0.26888c-0.25407,-0.31961 -0.25407,-0.83199 0,-1.1516c0.12703,-0.15727 0.29472,-0.21815 0.48781,-0.25366c1.10266,-0.208 3.75513,-0.03551 5.03563,-0.01522c2.38824,0.04566 4.86286,0.31453 7.2511,0.39063c1.68701,0.05073 12.32739,0.02029 12.91175,0.59356z" fill-rule="nonzero" fill="rgb(66, 43, 84)" fill-opacity="1" style="mix-blend-mode:normal"></path><g style="mix-blend-mode:normal"><g><path id="mavwpszu86538475_stroke_path" d="M25.87685,1.0655c0.3557,0.35005 0.22359,1.24799 -0.26423,1.41033c-0.55387,0.18771 -3.77039,0.0558 -4.63422,0.04058c-4.32424,-0.08117 -8.70437,-0.40585 -13.02861,-0.57326c-2.28661,-0.08624 -4.83238,0.12175 -7.09867,-0.16741c-0.25407,-0.03551 -0.48781,-0.04566 -0.66058,-0.26888c-0.25407,-0.31961 -0.25407,-0.83199 0,-1.1516c0.12703,-0.15727 0.29472,-0.21815 0.48781,-0.25366c1.10266,-0.208 3.75513,-0.03551 5.03563,-0.01522c2.38824,0.04566 4.86286,0.31453 7.2511,0.39063c1.68701,0.05073 12.32739,0.02029 12.91175,0.59356z" fill="none" stroke="rgb(66, 43, 84)" stroke-width="6" stroke-linecap="butt" stroke-linejoin="round" stroke-dasharray="0 0" stroke-opacity="1"></path><defs><mask id="mavwpszu86538475_gradient_mask"></mask></defs><rect x="-38.0783" y="-14.5756" width="114.2349" height="43.7268" fill="url(#mavwpszu86538475ps0)" mask="url(#mavwpszu86538475_gradient_mask)"></rect></g></g></g></g></g></g></g></g></g></g></g></g><g id="mavwpszx58509643_translate"><g transform="matrix(1,0,0,1,19.0105,15.0151)"><g id="mavwpszx58509643" opacity="1" style="mix-blend-mode:normal"><g><g><g id="mavwpszz01507520_translate"><g transform="matrix(1,0,0,1,0,0)"><g id="mavwpszz01507520" opacity="1" style="mix-blend-mode:normal"><g><g><path id="mavwpszz01507520_fill_path" d="M54.90493,0.09083c7.73384,-0.56312 15.17803,1.63355 22.76959,2.69891c16.7685,2.35394 30.37131,0.55297 35.98114,19.9121c2.95227,10.17673 2.78458,17.27914 9.7054,26.17237c7.43912,9.56288 14.47173,13.89028 15.2695,27.48631c1.21953,20.72381 -18.82137,55.92638 -39.42123,62.01923c-7.92693,2.34379 -10.31516,-1.78575 -17.10387,-4.29696c-9.65459,-3.56642 -18.79597,-1.94808 -28.69955,-3.55627c-4.71551,-0.76605 -9.31922,-2.11044 -14.08046,-2.69386c-6.0519,-0.74068 -12.56113,-0.30438 -18.4047,-2.02418c-17.5866,-5.17968 -12.92191,-23.32633 -14.82742,-37.38403c-1.90551,-14.05769 -9.243,-26.10642 -4.5529,-40.46342c3.06914,-9.40054 10.26436,-14.88969 16.73293,-21.73337c10.92493,-11.54648 18.83154,-24.83813 36.63156,-26.13686zM57.26776,2.0237c-17.9677,0.37034 -25.17308,12.43936 -35.98114,23.99091c-6.49906,6.94514 -14.73596,13.16989 -17.81018,22.59073c-4.3903,13.45399 2.6169,25.87305 4.54274,38.96684c2.13925,14.53964 -3.22667,33.5538 16.33659,36.94774c4.72567,0.81678 9.74606,0.60371 14.53778,1.16176c6.28057,0.73053 12.51032,2.79022 18.74515,3.40915c8.94828,0.88273 16.34675,-0.36019 25.11718,3.05912c4.01428,1.5676 8.70437,5.25578 12.95239,4.88544c5.69113,-0.49717 13.09976,-6.05734 17.21566,-9.86728c13.91278,-12.87565 28.37434,-39.39299 22.10393,-58.58471c-3.16569,-9.68971 -12.46459,-15.397 -17.16485,-24.31052c-7.65253,-14.49398 -2.24597,-32.44278 -22.64764,-37.08978c-6.48382,-1.47629 -13.50626,-1.68936 -20.11712,-2.67862c-5.84357,-0.87258 -11.90055,-2.59745 -17.82542,-2.4757z" fill-rule="nonzero" fill="rgb(66, 43, 84)" fill-opacity="1" style="mix-blend-mode:normal"></path><g style="mix-blend-mode:normal"><g><path id="mavwpszz01507520_stroke_path" d="M54.90493,0.09083c7.73384,-0.56312 15.17803,1.63355 22.76959,2.69891c16.7685,2.35394 30.37131,0.55297 35.98114,19.9121c2.95227,10.17673 2.78458,17.27914 9.7054,26.17237c7.43912,9.56288 14.47173,13.89028 15.2695,27.48631c1.21953,20.72381 -18.82137,55.92638 -39.42123,62.01923c-7.92693,2.34379 -10.31516,-1.78575 -17.10387,-4.29696c-9.65459,-3.56642 -18.79597,-1.94808 -28.69955,-3.55627c-4.71551,-0.76605 -9.31922,-2.11044 -14.08046,-2.69386c-6.0519,-0.74068 -12.56113,-0.30438 -18.4047,-2.02418c-17.5866,-5.17968 -12.92191,-23.32633 -14.82742,-37.38403c-1.90551,-14.05769 -9.243,-26.10642 -4.5529,-40.46342c3.06914,-9.40054 10.26436,-14.88969 16.73293,-21.73337c10.92493,-11.54648 18.83154,-24.83813 36.63156,-26.13686zM57.26776,2.0237c-17.9677,0.37034 -25.17308,12.43936 -35.98114,23.99091c-6.49906,6.94514 -14.73596,13.16989 -17.81018,22.59073c-4.3903,13.45399 2.6169,25.87305 4.54274,38.96684c2.13925,14.53964 -3.22667,33.5538 16.33659,36.94774c4.72567,0.81678 9.74606,0.60371 14.53778,1.16176c6.28057,0.73053 12.51032,2.79022 18.74515,3.40915c8.94828,0.88273 16.34675,-0.36019 25.11718,3.05912c4.01428,1.5676 8.70437,5.25578 12.95239,4.88544c5.69113,-0.49717 13.09976,-6.05734 17.21566,-9.86728c13.91278,-12.87565 28.37434,-39.39299 22.10393,-58.58471c-3.16569,-9.68971 -12.46459,-15.397 -17.16485,-24.31052c-7.65253,-14.49398 -2.24597,-32.44278 -22.64764,-37.08978c-6.48382,-1.47629 -13.50626,-1.68936 -20.11712,-2.67862c-5.84357,-0.87258 -11.90055,-2.59745 -17.82542,-2.4757z" fill="none" stroke="rgb(66, 43, 84)" stroke-width="4" stroke-linecap="butt" stroke-linejoin="miter" stroke-dasharray="0 0" stroke-opacity="1"></path><defs><mask id="mavwpszz01507520_gradient_mask"></mask></defs><rect x="-146.6835" y="-147.0749" width="440.05050000000006" height="441.22470000000004" fill="url(#mavwpszz01507520ps0)" mask="url(#mavwpszz01507520_gradient_mask)"></rect></g></g></g></g></g></g></g><g id="mavwpt0297873941_translate"><g transform="matrix(1,0,0,1,2.0552,2.0176)"><g id="mavwpt0297873941" opacity="1" style="mix-blend-mode:normal"><g><g><path id="mavwpt0297873941_fill_path" d="M55.21244,0.00612c5.92995,-0.12176 11.98694,1.60311 17.82543,2.4757c6.61085,0.98926 13.6333,1.20234 20.11712,2.67862c20.40168,4.647 14.9951,22.5958 22.64764,37.08978c4.70534,8.90845 13.99916,14.61573 17.16485,24.31052c6.2704,19.19172 -8.19115,45.70907 -22.10393,58.58471c-4.11591,3.80993 -11.52454,9.37517 -17.21566,9.86726c-4.24802,0.37034 -8.93304,-3.3229 -12.9524,-4.88543c-8.76535,-3.41423 -16.1689,-2.17638 -25.11718,-3.05911c-6.22975,-0.61385 -12.46459,-2.67356 -18.74516,-3.40916c-4.79173,-0.55805 -9.80703,-0.34497 -14.53778,-1.16175c-19.56325,-3.38886 -14.19733,-22.40302 -16.33659,-36.94774c-1.92076,-13.08872 -8.92796,-25.50779 -4.53766,-38.96178c3.07423,-9.42084 11.31112,-15.64559 17.81018,-22.59072c10.80806,-11.55156 18.01852,-23.62058 35.98114,-23.99092z" fill-rule="nonzero" fill="rgb(33, 168, 171)" fill-opacity="1" style="mix-blend-mode:normal"></path><g style="mix-blend-mode:normal"><g><path id="mavwpt0297873941_stroke_path" d="M55.21244,0.00612c5.92995,-0.12176 11.98694,1.60311 17.82543,2.4757c6.61085,0.98926 13.6333,1.20234 20.11712,2.67862c20.40168,4.647 14.9951,22.5958 22.64764,37.08978c4.70534,8.90845 13.99916,14.61573 17.16485,24.31052c6.2704,19.19172 -8.19115,45.70907 -22.10393,58.58471c-4.11591,3.80993 -11.52454,9.37517 -17.21566,9.86726c-4.24802,0.37034 -8.93304,-3.3229 -12.9524,-4.88543c-8.76535,-3.41423 -16.1689,-2.17638 -25.11718,-3.05911c-6.22975,-0.61385 -12.46459,-2.67356 -18.74516,-3.40916c-4.79173,-0.55805 -9.80703,-0.34497 -14.53778,-1.16175c-19.56325,-3.38886 -14.19733,-22.40302 -16.33659,-36.94774c-1.92076,-13.08872 -8.92796,-25.50779 -4.53766,-38.96178c3.07423,-9.42084 11.31112,-15.64559 17.81018,-22.59072c10.80806,-11.55156 18.01852,-23.62058 35.98114,-23.99092z" fill="none" stroke="rgb(66, 43, 84)" stroke-width="1" stroke-linecap="butt" stroke-linejoin="miter" stroke-dasharray="0 0" stroke-opacity="1"></path><defs><mask id="mavwpt0297873941_gradient_mask"></mask></defs><rect x="-136.4736" y="-137.0387" width="409.4208" height="411.1161" fill="url(#mavwpt0297873941ps0)" mask="url(#mavwpt0297873941_gradient_mask)"></rect></g></g></g></g></g></g></g></g></g></g></g></g><g id="mavwpt0698643853_translate"><g transform="matrix(1,0,0,1,48.8929,43.2849)"><g id="mavwpt0698643853" opacity="1" style="mix-blend-mode:normal"><g><g><g id="mavwpt0673143913_translate"><g transform="matrix(1,0,0,1,1.9971,2.0149)"><g id="mavwpt0673143913" opacity="1" style="mix-blend-mode:normal"><g><g><path id="mavwpt0673143913_fill_path" d="M37.23286,50.77861c0.67074,-0.66966 0.06098,-3.21637 0.04065,-4.12446c-0.09655,-5.08329 0.12195,-10.18181 0.01524,-15.2651c-0.12195,-5.94066 -2.14942,-21.63697 2.46954,-25.86798c1.16363,-1.06536 2.55593,-0.80156 3.6535,0.21307c3.60777,3.33306 5.54377,18.02996 6.10272,23.11326c1.30083,11.81536 0.29472,24.15326 2.4543,35.77584c0.44716,2.3996 0.18801,2.96272 2.73885,3.70847c2.75918,0.80156 4.83746,-1.50673 6.44317,-3.43452c3.872,-4.66222 6.38728,-10.00425 11.90564,-13.23584c3.0539,-1.79082 10.14749,-4.23608 9.49707,1.74516c-15.05608,20.01357 -23.93323,44.78574 -23.97896,70.01958l-51.84007,0.21308c-0.05081,-1.67921 0.06606,-3.37364 0.01016,-5.05793c-0.50306,-15.12813 -1.85978,-31.00708 -3.02341,-46.16057c-1.09249,-14.22511 -4.13623,-28.97274 -3.67383,-43.16741c0.09655,-2.98808 1.02644,-5.95588 3.99395,-7.1988c1.00103,-0.42107 3.64842,-1.14653 4.10574,0.208c0.32013,4.82964 0.3811,9.67956 0.74188,14.50413c0.40143,5.34202 0.86383,11.70882 1.74799,16.93924c0.26423,1.57775 0.9807,3.4193 2.09352,1.11102c-1.12298,-12.53575 -2.95227,-25.40632 -2.34251,-38.02831c0.1372,-2.90184 0.62501,-7.83294 2.20023,-10.26298c1.91567,-2.95257 5.85373,-3.6273 7.78973,-0.33483c1.08233,1.83648 0.58944,2.15101 0.55387,3.94183c-0.20325,10.49127 0.28456,21.10429 0.66058,31.57019c0.08638,2.35901 -0.0559,5.22027 0.20833,7.52348c0.10671,0.93853 0.78761,2.33365 1.72766,1.29365c0.3557,-0.39571 0.24391,-3.13013 0.2185,-3.87588c-0.36078,-12.2415 -1.39229,-25.82739 -0.66566,-38.01309c0.22358,-3.78457 1.48884,-9.98903 6.67691,-8.36562c3.69415,1.16175 4.97465,5.60076 5.34559,9.04542c0.24899,2.3235 -0.31505,4.15491 -0.40651,6.40231c-0.25407,6.22983 0.51322,12.49009 0.66058,18.6844c0.11179,4.68251 -0.51322,10.56736 -0.01016,15.04188c0.11687,1.02985 0.88416,2.3438 1.88519,1.34439z" fill-rule="nonzero" fill="rgb(238, 229, 43)" fill-opacity="1" style="mix-blend-mode:normal"></path></g></g></g></g></g><g id="mavwpt0b78634323_translate"><g transform="matrix(1,0,0,1,7.8728,127.5768)"><g id="mavwpt0b78634323" opacity="1" style="mix-blend-mode:normal"><g><g><path id="mavwpt0b78634323_fill_path" d="M52.67851,0.02536c0.05081,2.02419 0.11178,4.07373 0.23882,6.09792c0.07114,1.09073 0.98579,4.34263 -0.36077,4.79921c-0.83843,0.2841 -4.15147,-0.01523 -5.35068,0.02536c-11.74811,0.416 -23.74014,0.77112 -35.47301,0.87766c-3.92281,0.03551 -7.84054,0.0203 -11.73287,-0.44136c0.63009,-3.74906 0.92989,-7.56406 0.85875,-11.38414l51.81467,0.02536z" fill-rule="nonzero" fill="rgb(238, 229, 43)" fill-opacity="1" style="mix-blend-mode:normal"></path></g></g></g></g></g><g id="mavwpt0c76261665_translate"><g transform="matrix(1,0,0,1,0,0)"><g id="mavwpt0c76261665" opacity="1" style="mix-blend-mode:normal"><g><g><path id="mavwpt0c76261665_fill_path" d="M38.64048,8.39334l1.07725,-1.60311c4.97974,-5.35217 8.84157,0.86751 10.37614,5.51958c4.91876,14.90491 3.54171,31.29625 4.89335,46.65774c0.15752,1.81111 0.6555,8.25401 1.91568,9.25342c1.43803,1.14146 3.39944,-1.12624 4.31408,-2.17131c3.96855,-4.53539 6.00617,-9.29908 11.21457,-13.06843c3.56204,-2.57716 12.11397,-6.16387 13.989,-0.0558c0.53862,1.75024 0.38619,2.49599 -0.49797,4.07374c-1.80388,3.20623 -4.59864,6.46826 -6.59053,9.74044c-10.64038,17.52265 -16.7126,38.42402 -16.82948,59.00578c-0.02033,3.82008 0.55895,7.84308 0.66058,11.6175c0.01524,0.56312 -0.03049,2.10029 -0.33537,2.45034c-0.53862,0.61385 -2.9726,0.82185 -3.85675,0.87258c-10.06618,0.59863 -21.0521,0.26888 -31.20466,0.41092c-5.44722,0.0761 -11.09262,0.56312 -16.56017,0.23336c-1.09757,-0.06595 -5.34051,-0.49717 -5.47771,-1.83648c-0.0559,-0.54283 0.55387,-2.21697 0.64533,-3.00331c1.63112,-14.0932 -0.72155,-30.8295 -1.7175,-45.09519c-0.54879,-7.86845 -0.82318,-15.76227 -1.50917,-23.62057c-0.73172,-8.43157 -2.22564,-16.93924 -2.79475,-25.34545c-0.25915,-3.87081 -0.8181,-12.06394 0.42175,-15.46803c1.36689,-3.76935 5.48787,-6.28563 9.47166,-5.25071c0.5183,-5.33188 -0.06606,-14.23525 5.61999,-17.05085c2.11385,-1.05014 4.30392,-1.01463 6.28565,0.33483c0.33537,0.22829 1.38721,1.48136 1.64636,1.25307c2.26121,-10.39995 13.63331,-6.50885 14.84775,2.14594zM39.22992,52.79353c-1.00103,0.99941 -1.76832,-0.31453 -1.88519,-1.34438c-0.50814,-4.47452 0.12195,-10.35429 0.01016,-15.04188c-0.14736,-6.19431 -0.91465,-12.45458 -0.66058,-18.6844c0.09146,-2.2474 0.6555,-4.07881 0.40651,-6.40231c-0.37094,-3.44974 -1.65144,-7.88875 -5.3456,-9.04542c-5.18299,-1.62848 -6.44825,4.58105 -6.67691,8.36562c-0.72664,12.1857 0.30488,25.76652 0.66566,38.0131c0.02033,0.74575 0.1372,3.48018 -0.2185,3.87588c-0.94005,1.04 -1.61587,-0.35005 -1.72766,-1.29365c-0.26423,-2.30321 -0.12195,-5.16447 -0.20833,-7.52348c-0.3811,-10.4659 -0.86891,-21.07893 -0.66058,-31.5702c0.03557,-1.78575 0.52846,-2.10029 -0.55387,-3.94184c-1.936,-3.2874 -5.87406,-2.61774 -7.78973,0.33483c-1.57522,2.43004 -2.05795,7.35606 -2.20023,10.26298c-0.60468,12.62199 1.22461,25.49257 2.34251,38.02832c-1.11282,2.30828 -1.82929,0.46673 -2.09352,-1.11102c-0.88416,-5.23042 -1.34656,-11.60229 -1.74799,-16.93924c-0.36078,-4.82456 -0.42175,-9.67449 -0.74188,-14.50413c-0.45224,-1.35453 -3.10471,-0.62907 -4.10574,-0.208c-2.96752,1.24799 -3.89741,4.21071 -3.99395,7.19879c-0.4624,14.18959 2.58133,28.93724 3.67383,43.16741c1.16363,15.15349 2.52036,31.03244 3.02341,46.16056c0.0559,1.67921 -0.06097,3.37872 -0.01016,5.05793l51.84008,-0.21306c0.04573,-25.23384 8.92288,-50.00602 23.97896,-70.01958c0.65041,-5.97617 -6.44317,-3.53599 -9.49707,-1.74516c-5.51836,3.23667 -8.03363,8.57362 -11.90563,13.23584c-1.60571,1.93287 -3.68399,4.24115 -6.44317,3.43452c-2.55084,-0.74575 -2.29169,-1.30887 -2.73886,-3.70847c-2.15958,-11.61751 -1.15347,-23.96048 -2.4543,-35.77584c-0.55895,-5.08329 -2.49495,-19.77513 -6.10272,-23.11326c-1.09757,-1.01463 -2.48987,-1.27843 -3.6535,-0.21307c-4.61896,4.23101 -2.58641,19.92732 -2.46954,25.86798c0.10163,5.08329 -0.11179,10.18181 -0.01524,15.2651c0.01524,0.91317 0.63009,3.45482 -0.04065,4.12447zM60.55133,127.60216l-51.81468,-0.02536c0.07114,3.81501 -0.22866,7.63001 -0.85875,11.38414c3.89232,0.46166 7.81005,0.47687 11.73287,0.44136c11.73287,-0.10654 23.72489,-0.46166 35.473,-0.87766c1.1992,-0.04059 4.51225,0.25874 5.35068,-0.02536c1.34656,-0.45658 0.43192,-3.70848 0.36078,-4.79921c-0.13212,-2.02419 -0.18801,-4.06865 -0.23882,-6.09791z" fill-rule="nonzero" fill="rgb(66, 43, 84)" fill-opacity="1" style="mix-blend-mode:normal"></path><g style="mix-blend-mode:normal"><g><path id="mavwpt0c76261665_stroke_path" d="M38.64048,8.39334l1.07725,-1.60311c4.97974,-5.35217 8.84157,0.86751 10.37614,5.51958c4.91876,14.90491 3.54171,31.29625 4.89335,46.65774c0.15752,1.81111 0.6555,8.25401 1.91568,9.25342c1.43803,1.14146 3.39944,-1.12624 4.31408,-2.17131c3.96855,-4.53539 6.00617,-9.29908 11.21457,-13.06843c3.56204,-2.57716 12.11397,-6.16387 13.989,-0.0558c0.53862,1.75024 0.38619,2.49599 -0.49797,4.07374c-1.80388,3.20623 -4.59864,6.46826 -6.59053,9.74044c-10.64038,17.52265 -16.7126,38.42402 -16.82948,59.00578c-0.02033,3.82008 0.55895,7.84308 0.66058,11.6175c0.01524,0.56312 -0.03049,2.10029 -0.33537,2.45034c-0.53862,0.61385 -2.9726,0.82185 -3.85675,0.87258c-10.06618,0.59863 -21.0521,0.26888 -31.20466,0.41092c-5.44722,0.0761 -11.09262,0.56312 -16.56017,0.23336c-1.09757,-0.06595 -5.34051,-0.49717 -5.47771,-1.83648c-0.0559,-0.54283 0.55387,-2.21697 0.64533,-3.00331c1.63112,-14.0932 -0.72155,-30.8295 -1.7175,-45.09519c-0.54879,-7.86845 -0.82318,-15.76227 -1.50917,-23.62057c-0.73172,-8.43157 -2.22564,-16.93924 -2.79475,-25.34545c-0.25915,-3.87081 -0.8181,-12.06394 0.42175,-15.46803c1.36689,-3.76935 5.48787,-6.28563 9.47166,-5.25071c0.5183,-5.33188 -0.06606,-14.23525 5.61999,-17.05085c2.11385,-1.05014 4.30392,-1.01463 6.28565,0.33483c0.33537,0.22829 1.38721,1.48136 1.64636,1.25307c2.26121,-10.39995 13.63331,-6.50885 14.84775,2.14594zM39.22992,52.79353c-1.00103,0.99941 -1.76832,-0.31453 -1.88519,-1.34438c-0.50814,-4.47452 0.12195,-10.35429 0.01016,-15.04188c-0.14736,-6.19431 -0.91465,-12.45458 -0.66058,-18.6844c0.09146,-2.2474 0.6555,-4.07881 0.40651,-6.40231c-0.37094,-3.44974 -1.65144,-7.88875 -5.3456,-9.04542c-5.18299,-1.62848 -6.44825,4.58105 -6.67691,8.36562c-0.72664,12.1857 0.30488,25.76652 0.66566,38.0131c0.02033,0.74575 0.1372,3.48018 -0.2185,3.87588c-0.94005,1.04 -1.61587,-0.35005 -1.72766,-1.29365c-0.26423,-2.30321 -0.12195,-5.16447 -0.20833,-7.52348c-0.3811,-10.4659 -0.86891,-21.07893 -0.66058,-31.5702c0.03557,-1.78575 0.52846,-2.10029 -0.55387,-3.94184c-1.936,-3.2874 -5.87406,-2.61774 -7.78973,0.33483c-1.57522,2.43004 -2.05795,7.35606 -2.20023,10.26298c-0.60468,12.62199 1.22461,25.49257 2.34251,38.02832c-1.11282,2.30828 -1.82929,0.46673 -2.09352,-1.11102c-0.88416,-5.23042 -1.34656,-11.60229 -1.74799,-16.93924c-0.36078,-4.82456 -0.42175,-9.67449 -0.74188,-14.50413c-0.45224,-1.35453 -3.10471,-0.62907 -4.10574,-0.208c-2.96752,1.24799 -3.89741,4.21071 -3.99395,7.19879c-0.4624,14.18959 2.58133,28.93724 3.67383,43.16741c1.16363,15.15349 2.52036,31.03244 3.02341,46.16056c0.0559,1.67921 -0.06097,3.37872 -0.01016,5.05793l51.84008,-0.21306c0.04573,-25.23384 8.92288,-50.00602 23.97896,-70.01958c0.65041,-5.97617 -6.44317,-3.53599 -9.49707,-1.74516c-5.51836,3.23667 -8.03363,8.57362 -11.90563,13.23584c-1.60571,1.93287 -3.68399,4.24115 -6.44317,3.43452c-2.55084,-0.74575 -2.29169,-1.30887 -2.73886,-3.70847c-2.15958,-11.61751 -1.15347,-23.96048 -2.4543,-35.77584c-0.55895,-5.08329 -2.49495,-19.77513 -6.10272,-23.11326c-1.09757,-1.01463 -2.48987,-1.27843 -3.6535,-0.21307c-4.61896,4.23101 -2.58641,19.92732 -2.46954,25.86798c0.10163,5.08329 -0.11179,10.18181 -0.01524,15.2651c0.01524,0.91317 0.63009,3.45482 -0.04065,4.12447zM60.55133,127.60216l-51.81468,-0.02536c0.07114,3.81501 -0.22866,7.63001 -0.85875,11.38414c3.89232,0.46166 7.81005,0.47687 11.73287,0.44136c11.73287,-0.10654 23.72489,-0.46166 35.473,-0.87766c1.1992,-0.04059 4.51225,0.25874 5.35068,-0.02536c1.34656,-0.45658 0.43192,-3.70848 0.36078,-4.79921c-0.13212,-2.02419 -0.18801,-4.06865 -0.23882,-6.09791z" fill="none" stroke="rgb(66, 43, 84)" stroke-width="5" stroke-linecap="butt" stroke-linejoin="miter" stroke-dasharray="0 0" stroke-opacity="1"></path><defs><mask id="mavwpt0c76261665_gradient_mask"></mask></defs><rect x="-96.733" y="-151.4435" width="290.199" height="454.33050000000003" fill="url(#mavwpt0c76261665ps0)" mask="url(#mavwpt0c76261665_gradient_mask)"></rect></g></g></g></g></g></g></g><g id="mavwpt0h94406875_translate"><g transform="matrix(1,0,0,1,21.4782,115.599)"><g id="mavwpt0h94406875" opacity="1" style="mix-blend-mode:normal"><g><g><path id="mavwpt0h94406875_fill_path" d="M25.87685,1.06549c0.3557,0.35005 0.22358,1.24799 -0.26423,1.41033c-0.55387,0.18771 -3.77037,0.0558 -4.6342,0.04058c-4.32424,-0.08117 -8.70438,-0.40584 -13.02862,-0.57325c-2.28661,-0.08624 -4.83238,0.12175 -7.09867,-0.16742c-0.25407,-0.03551 -0.48781,-0.04566 -0.66057,-0.26888c-0.25407,-0.31961 -0.25407,-0.83199 0,-1.1516c0.12703,-0.15727 0.29472,-0.21815 0.48781,-0.25366c1.10266,-0.208 3.75513,-0.03551 5.03563,-0.01522c2.38824,0.04566 4.86287,0.31453 7.25111,0.39063c1.68701,0.05073 12.32739,0.0203 12.91175,0.59357z" fill-rule="nonzero" fill="rgb(66, 43, 84)" fill-opacity="1" style="mix-blend-mode:normal"></path><g style="mix-blend-mode:normal"><g><path id="mavwpt0h94406875_stroke_path" d="M25.87685,1.06549c0.3557,0.35005 0.22358,1.24799 -0.26423,1.41033c-0.55387,0.18771 -3.77037,0.0558 -4.6342,0.04058c-4.32424,-0.08117 -8.70438,-0.40584 -13.02862,-0.57325c-2.28661,-0.08624 -4.83238,0.12175 -7.09867,-0.16742c-0.25407,-0.03551 -0.48781,-0.04566 -0.66057,-0.26888c-0.25407,-0.31961 -0.25407,-0.83199 0,-1.1516c0.12703,-0.15727 0.29472,-0.21815 0.48781,-0.25366c1.10266,-0.208 3.75513,-0.03551 5.03563,-0.01522c2.38824,0.04566 4.86287,0.31453 7.25111,0.39063c1.68701,0.05073 12.32739,0.0203 12.91175,0.59357z" fill="none" stroke="rgb(66, 43, 84)" stroke-width="6" stroke-linecap="butt" stroke-linejoin="round" stroke-dasharray="0 0" stroke-opacity="1"></path><defs><mask id="mavwpt0h94406875_gradient_mask"></mask></defs><rect x="-38.0783" y="-14.5756" width="114.2349" height="43.7268" fill="url(#mavwpt0h94406875ps0)" mask="url(#mavwpt0h94406875_gradient_mask)"></rect></g></g></g></g></g></g></g></g></g></g></g></g></g></g></g></g></g><animateTransform href="#mavwpszr64486087_translate" attributeName="transform" type="translate" values="0 0;-15.0024 0.001;5.9976 0.001;-6.0024 0.001;-6.0024 0.001" dur="4s" repeatCount="indefinite" calcMode="spline" keyTimes="0;0.43;0.78;0.97;1" keySplines="0.5 0.35 0.15 1;0.5 0.35 0.15 1;0.5 0.35 0.15 1;0.5 0.35 0.15 1" additive="sum" fill="freeze"></animateTransform><animateTransform href="#mavwpszr64486087" attributeName="transform" type="translate" values="0 0;0 0" dur="4s" repeatCount="indefinite" calcMode="spline" keyTimes="0;1" keySplines="0.5 0.35 0.15 1" additive="sum" fill="freeze"></animateTransform><animateTransform href="#mavwpszr64486087" attributeName="transform" type="scale" values="1 1;1 1" dur="4s" repeatCount="indefinite" calcMode="spline" keyTimes="0;1" keySplines="0.5 0.35 0.15 1" additive="sum" fill="freeze"></animateTransform><animateTransform href="#mavwpszr64486087" attributeName="transform" type="translate" values="0 0;0 0" dur="4s" repeatCount="indefinite" calcMode="spline" keyTimes="0;1" keySplines="0.5 0.35 0.15 1" additive="sum" fill="freeze"></animateTransform><animateTransform href="#mavwpszx58509643_translate" attributeName="transform" type="translate" values="0 0;2.9995 0.0049;5.9995 0.0049;8.9995 9.0049;8.9995 9.0049" dur="4s" repeatCount="indefinite" calcMode="spline" keyTimes="0;0.32;0.75;0.98;1" keySplines="0.5 0.35 0.15 1;0.5 0.35 0.15 1;0.5 0.35 0.15 1;0.5 0.35 0.15 1" additive="sum" fill="freeze"></animateTransform><animateTransform href="#mavwpszx58509643" attributeName="transform" type="translate" values="0 0;0 0" dur="4s" repeatCount="indefinite" calcMode="spline" keyTimes="0;1" keySplines="0.5 0.35 0.15 1" additive="sum" fill="freeze"></animateTransform><animateTransform href="#mavwpszx58509643" attributeName="transform" type="scale" values="1 1;1 1" dur="4s" repeatCount="indefinite" calcMode="spline" keyTimes="0;1" keySplines="0.5 0.35 0.15 1" additive="sum" fill="freeze"></animateTransform><animateTransform href="#mavwpszx58509643" attributeName="transform" type="translate" values="0 0;0 0" dur="4s" repeatCount="indefinite" calcMode="spline" keyTimes="0;1" keySplines="0.5 0.35 0.15 1" additive="sum" fill="freeze"></animateTransform><animateTransform href="#mavwpt0698643853_translate" attributeName="transform" type="translate" values="0 0;-20.0029 1.9951;41.9971 1.9951;5.9971 -3.0049" dur="4s" repeatCount="indefinite" calcMode="spline" keyTimes="0;0.42;0.8;1" keySplines="0.5 0.35 0.15 1;0.5 0.35 0.15 1;0.5 0.35 0.15 1" additive="sum" fill="freeze"></animateTransform><animateTransform href="#mavwpt0698643853" attributeName="transform" type="translate" values="0 0;0 0" dur="4s" repeatCount="indefinite" calcMode="spline" keyTimes="0;1" keySplines="0.5 0.35 0.15 1" additive="sum" fill="freeze"></animateTransform><animateTransform href="#mavwpt0698643853" attributeName="transform" type="scale" values="1 1;1 1" dur="4s" repeatCount="indefinite" calcMode="spline" keyTimes="0;1" keySplines="0.5 0.35 0.15 1" additive="sum" fill="freeze"></animateTransform><animateTransform href="#mavwpt0698643853" attributeName="transform" type="translate" values="0 0;0 0" dur="4s" repeatCount="indefinite" calcMode="spline" keyTimes="0;1" keySplines="0.5 0.35 0.15 1" additive="sum" fill="freeze"></animateTransform></svg>