<svg id="mavob03l07467548" viewBox="0 0 200 200" xmlns="http://www.w3.org/2000/svg" xmlns:xlink="http://www.w3.org/1999/xlink"><g id="mavob03l07467548_translate"><g transform="matrix(1,0,0,1,0,0)"><g id="mavob03l07467548" opacity="1" style="mix-blend-mode:normal"><g><defs><clipPath id="mavob03l07467548_clipPath" x="-50%" y="-50%" width="200%" height="200%"><path id="mavob03l07467548_fill_path" d="M0.01,0h199.98c0.00552,0 0.01,0.00448 0.01,0.01v199.98c0,0.00552 -0.00448,0.01 -0.01,0.01h-199.98c-0.00552,0 -0.01,-0.00448 -0.01,-0.01v-199.98c0,-0.00552 0.00448,-0.01 0.01,-0.01z" fill="white" clip-rule="nonzero"></path></clipPath></defs><g clip-path="url(#mavob03l07467548_clipPath)"><path id="mavob03l07467548_fill_path" d="M0.01,0h199.98c0.00552,0 0.01,0.00448 0.01,0.01v199.98c0,0.00552 -0.00448,0.01 -0.01,0.01h-199.98c-0.00552,0 -0.01,-0.00448 -0.01,-0.01v-199.98c0,-0.00552 0.00448,-0.01 0.01,-0.01z" fill-rule="nonzero" fill="rgb(255, 255, 255)" fill-opacity="1" style="mix-blend-mode:normal"></path><g id="mavob04l35686159_translate"><g transform="matrix(1,0,0,1,4.998199999999999,77.11970000000001)"><g id="mavob04l35686159" opacity="1" style="mix-blend-mode:normal"><g><g><g id="mavob04l94168297_translate"><g transform="matrix(1,0,0,1,0,0)"><g id="mavob04l94168297" opacity="1" style="mix-blend-mode:normal"><g><g><path id="mavob04l94168297_fill_path" d="M9.88727,0.10532c14.79932,-1.79893 18.20648,20.00327 3.93214,22.91408c-15.77055,3.22024 -19.32469,-21.04697 -3.93214,-22.91408zM17.00606,6.04232c-6.76706,-6.76566 -17.63949,2.60137 -11.96965,10.23765c6.71456,9.04186 19.87593,-2.32864 11.96965,-10.23765z" fill-rule="nonzero" fill="rgb(66, 43, 84)" fill-opacity="1" style="mix-blend-mode:normal"></path></g></g></g></g></g><g id="mavob04m24590737_translate"><g transform="matrix(1,0,0,1,3.4535,3.7117)"><g id="mavob04m24590737" opacity="1" style="mix-blend-mode:normal"><g><g><path id="mavob04m24590737_fill_path" d="M13.55255,2.33065c7.90627,7.909 -5.2551,19.27426 -11.96965,10.23765c-5.66984,-7.63628 5.2026,-17.0033 11.96965,-10.23765z" fill-rule="nonzero" fill="rgb(33, 168, 171)" fill-opacity="1" style="mix-blend-mode:normal"></path></g></g></g></g></g></g></g></g></g></g><g id="mavob04q65552169_translate"><g transform="matrix(0.7,0,0,0.7,13.2939,36.5565)"><g id="mavob04q65552169" opacity="1" style="mix-blend-mode:normal"><g><g><g id="mavob04r37206436_translate"><g transform="matrix(1,0,0,1,0,0)"><g id="mavob04r37206436" opacity="1" style="mix-blend-mode:normal"><g><g><path id="mavob04r37206436_fill_path" d="M9.67553,0.0989c10.02196,-1.26922 16.82052,9.94919 10.74644,18.0942c-5.69609,7.64677 -17.90198,5.19225 -20.11742,-4.13807c-1.51196,-6.37231 2.76142,-13.12223 9.36573,-13.95614zM10.9145,3.77543c-9.17149,0.40909 -9.62297,14.19215 -0.41999,15.19389c10.68869,1.16432 11.38167,-15.68689 0.41999,-15.19389z" fill-rule="nonzero" fill="rgb(66, 43, 84)" fill-opacity="1" style="mix-blend-mode:normal"></path></g></g></g></g></g><g id="mavob04s27070834_translate"><g transform="matrix(1,0,0,1,3.8063,3.7651)"><g id="mavob04s27070834" opacity="1" style="mix-blend-mode:normal"><g><g><path id="mavob04s27070834_fill_path" d="M7.10823,0.01039c10.96168,-0.48776 10.27395,16.36346 -0.41999,15.19389c-9.20824,-1.00174 -8.75675,-14.7848 0.41999,-15.19389z" fill-rule="nonzero" fill="rgb(33, 168, 171)" fill-opacity="1" style="mix-blend-mode:normal"></path></g></g></g></g></g></g></g></g></g></g><g id="mavob04u39362152_translate"><g transform="matrix(1,0,0,1,176.0266,82.5674)"><g id="mavob04u39362152" opacity="1" style="mix-blend-mode:normal"><g><g><g id="mavob04u62740403_translate"><g transform="matrix(1,0,0,1,0,0)"><g id="mavob04u62740403" opacity="1" style="mix-blend-mode:normal"><g><g><path id="mavob04u62740403_fill_path" d="M8.68893,0c0.61423,0.01573 1.05522,0.47202 1.4227,0.49824c0.75073,0.05769 0.88197,-0.51923 2.47267,-0.01049c7.48628,2.37585 8.699,12.93867 2.02119,17.04002c-8.7305,5.35484 -18.56872,-4.74645 -12.96188,-13.37398c1.29671,-1.99823 4.59363,-4.21149 7.0453,-4.14856zM9.90689,3.44576c-0.26774,0.00524 -2.36767,0.58741 -2.72991,0.72901c-5.30235,2.09263 -4.03714,10.49464 1.66945,11.06107c6.02683,0.5979 8.89849,-7.2272 3.84813,-10.57856c-0.29399,-0.19405 -2.61442,-1.21677 -2.78767,-1.21152z" fill-rule="nonzero" fill="rgb(66, 43, 84)" fill-opacity="1" style="mix-blend-mode:normal"></path></g></g></g></g></g><g id="mavob04x39694521_translate"><g transform="matrix(1,0,0,1,3.8085,3.4458)"><g id="mavob04x39694521" opacity="1" style="mix-blend-mode:normal"><g><g><path id="mavob04x39694521_fill_path" d="M6.09845,0c0.17325,0 2.49368,1.01747 2.78767,1.21152c5.05035,3.35136 2.18394,11.1817 -3.84813,10.57856c-5.70659,-0.56643 -6.97704,-8.96844 -1.66945,-11.06107c0.36224,-0.14161 2.46217,-0.72377 2.72991,-0.72901z" fill-rule="nonzero" fill="rgb(33, 168, 171)" fill-opacity="1" style="mix-blend-mode:normal"></path></g></g></g></g></g></g></g></g></g></g><g id="mavob03z77323286_translate"><g transform="matrix(1,0,0,1,15.52,23)"><g id="mavob03z77323286" opacity="1" style="mix-blend-mode:normal"><g><g><g id="mavob04056785210_translate"><g transform="matrix(1,0,0,1,0,0)"><g id="mavob04056785210" opacity="1" style="mix-blend-mode:normal"><g><g><path id="mavob04056785210_fill_path" d="M99.36172,21.28254c14.05385,1.59439 30.29163,5.11882 37.89866,18.33546c2.86117,4.96148 4.45187,12.11 2.05269,17.48582c-1.38071,3.08913 -4.02664,5.29714 -6.42057,7.57334l4.00564,38.57999c-0.74548,5.20798 2.33618,13.18517 -3.13416,16.47884c-2.61967,1.57865 -6.00583,1.17481 -8.76725,0.11538c-1.01847,-0.39335 -3.66964,-2.04019 -4.52011,-1.99299c-0.85048,0.0472 -3.32841,2.36011 -4.39938,2.96325c-2.95042,1.64683 -5.84308,1.80943 -8.91949,0.34091c-1.93194,-0.92307 -3.10792,-2.72725 -5.4861,-2.08739c-3.68539,0.99125 -5.68034,3.0262 -10.19521,3.03144c-3.82189,0 -5.96908,-1.93005 -9.07174,-2.51746c-2.47793,-0.47202 -3.4754,0.82866 -5.52284,1.63634c-3.3074,1.30593 -5.93233,1.28495 -9.17673,-0.20454c-0.93972,-0.43007 -2.59342,-1.78844 -3.56464,-1.7255c-0.97122,0.06294 -3.61715,1.69403 -4.85086,2.09263c-3.52265,1.13285 -6.63056,1.12237 -10.20571,0.28846c-3.30215,-0.77097 -5.77483,-2.55941 -9.30273,-1.6311c-4.69336,1.2325 -7.1188,3.74996 -12.54714,1.84614c-3.30215,-1.15908 -3.4229,-2.86885 -7.60178,-2.60137c-4.66187,0.2937 -9.33948,1.87761 -14.0381,-0.05244c-2.14719,-0.88111 -2.64592,-2.21851 -3.22341,-4.32687c1.7377,-15.325 4.06863,-30.60806 5.72233,-45.9383c0.25199,-2.3234 0.53549,-4.7412 0.50924,-7.03838c-7.74878,-5.71147 -12.00116,-14.28131 -5.19735,-22.75149c1.35971,-1.68879 2.86117,-2.63284 4.28913,-4.08037c0.82423,-0.83391 1.52771,-2.13459 2.45693,-2.84787c1.07097,-0.82342 3.76939,-2.19228 5.08185,-2.87934c4.31013,-2.26046 8.99824,-4.26394 13.67586,-5.61182l-6.87205,-3.02619c-6.62531,-3.37758 -9.02449,-9.31982 -1.8847,-13.99809c11.17168,-7.33209 36.5127,-7.61005 49.45883,-5.81637c12.94613,1.79369 26.56423,6.59783 29.75614,20.35467zM100.35919,25.18459c1.00797,8.74291 10.91445,11.25512 18.26948,12.03658c1.52771,0.16259 3.92162,-0.01574 5.21834,0.2937c2.06319,0.48776 1.93195,3.28318 0.07351,3.57164c-5.0661,0.79195 -15.50805,-1.64683 -19.94943,-4.31114c-8.87224,-5.32861 -6.08457,-12.89147 -10.58894,-20.2288c-8.15302,-13.26908 -35.34724,-13.5523 -49.04934,-12.38797c-6.28407,0.53496 -18.48997,2.31816 -23.26208,6.53489c-3.77464,3.33563 0.97122,5.89504 3.90064,7.31111c11.90141,5.75868 27.13122,5.5384 38.78588,10.80932c3.75889,1.69928 7.79078,5.51742 2.65118,8.64326c-7.76978,4.72023 -28.55393,3.43528 -37.78841,3.02095c-1.32296,-0.05769 -4.72486,0.5402 -5.1711,-0.94929c-0.39374,-1.32691 0.41999,-2.30767 1.71145,-2.49123c4.03188,-0.57167 9.88547,0.18356 14.0591,0.19405c4.56737,0.01049 9.54947,-0.03671 14.09059,-0.41957c3.92689,-0.33042 7.94302,-1.01223 11.53392,-2.65382c0.27299,-0.36188 -1.65371,-1.44229 -1.96345,-1.60488c-7.48628,-3.89681 -18.80495,-4.25869 -26.90547,-6.95447c-6.38382,1.52096 -12.67314,3.77618 -18.48997,6.82335c-5.35485,2.80067 -7.41804,4.1538 -6.67256,10.76736c1.19172,10.5838 17.57649,15.51906 26.22825,17.85819c17.272,4.66778 34.42851,5.82161 52.1625,3.08388c13.93835,-2.15033 35.46274,-7.69921 42.08805,-21.59241c1.10247,-2.31291 1.5592,-2.98423 -0.1155,-5.00344c-6.94555,-8.38627 -20.53742,-11.05058 -30.81662,-12.35126zM134.85594,43.55677c-6.54656,13.93516 -23.02583,19.72006 -37.11118,22.79869c-21.84462,4.77267 -43.14326,3.83912 -64.53639,-2.49123c-11.20318,-3.31465 -26.202,-8.79536 -26.33324,-22.75674c-7.97977,8.41249 0.90298,16.36345 8.23177,20.64837c23.51932,13.76208 66.48409,15.16766 92.56534,9.21493c11.56017,-2.63808 35.99296,-10.40548 27.59845,-26.91054c-0.09975,-0.19405 -0.126,-0.48251 -0.41474,-0.50349zM129.33836,67.02679c-2.49893,1.22201 -4.96111,2.53843 -7.55454,3.57163c-27.99745,11.14498 -76.02306,9.72366 -103.41677,-2.9213c-1.8007,-0.83391 -3.91639,-2.3129 -5.58584,-2.98423c-0.20999,-0.08392 -0.36224,-0.16259 -0.60373,-0.11014l-6.08983,50.90502c0.24674,1.0909 5.42834,0.99125 6.40482,0.94405c0.85573,-0.04196 6.48881,-0.65559 6.74081,-1.01747l3.00291,-25.98222c0.36749,-2.70102 3.87439,-2.65906 3.82714,0.13636c-0.02625,1.51572 -0.61423,3.71849 -0.79798,5.34435c-0.77698,6.91775 -1.34396,13.85649 -2.67742,20.69033c2.33618,0.09965 4.29437,2.42305 6.36807,2.9213c3.65389,0.88111 6.97705,-1.16432 10.27921,-2.30242c0.35699,-2.80591 0.41474,-5.6433 0.72973,-8.45446c0.40949,-3.65031 0.89772,-8.04012 1.6747,-11.59602c0.26249,-1.21152 0.32025,-2.72199 1.87945,-2.83213c1.7692,-0.12587 2.01069,1.10663 1.94244,2.5699c-0.147,3.33563 -1.17597,7.59432 -1.61171,11.04009c-0.38324,3.00521 -0.65623,6.03665 -1.02897,9.04186c6.18957,1.42656 10.06921,3.84961 16.51602,1.3374c0.33599,-0.13112 2.54093,-1.12237 2.65642,-1.22202c0.23099,-0.18881 0.18375,-0.3514 0.21525,-0.60314c0.27299,-2.18179 -0.126,-5.05064 -0.0105,-7.35831c0.19949,-4.01744 0.81373,-9.25689 1.45421,-13.24286c0.19424,-1.21677 0.34124,-2.90032 1.9162,-2.99997c1.30721,-0.07867 1.84795,0.71852 1.94244,1.94054c0.29924,3.77618 -1.43846,9.14151 -1.43846,13.07503l-0.38848,8.85305c2.19444,0.59265 4.23138,2.64332 6.60956,2.69052c2.37818,0.0472 4.68286,-1.7255 6.9193,-2.48074c0.31499,-0.14685 0.29924,-0.39335 0.33599,-0.68705c0.18899,-1.62061 -0.22049,-3.36185 -0.22574,-4.89854c-0.00525,-2.15033 0.09975,-4.59436 0.20474,-6.75517c0.147,-2.94227 0.30974,-7.38978 0.83997,-10.1852c0.45674,-2.41781 3.39141,-2.53843 3.6644,-0.22028c0.41474,3.52968 -0.93972,8.5541 -0.82948,12.24112c0.42524,3.09962 -0.57748,6.83908 -0.20474,9.81807c0.02625,0.22552 -0.0105,0.45629 0.20999,0.60314c3.09741,0.99125 5.72234,2.54893 9.09274,2.34963c3.49115,-0.20454 6.17382,-2.29718 9.46022,-3.08913c-0.30974,-7.06985 -0.14174,-14.20789 -0.18374,-21.3092c0.32024,-3.13108 3.54365,-3.35661 3.87439,0c0.20474,2.0297 -0.189,4.16429 -0.21,6.11007c-0.05775,5.15554 0.0315,10.32681 0.04725,15.48235c0.0525,0.21503 0.2205,0.31468 0.37274,0.44055c0.55648,0.45629 3.3914,2.0297 4.07913,2.24998c3.30215,1.05418 5.60158,-1.38984 7.93776,-3.29367l-1.81119,-20.38089c0.05775,-3.04192 -0.41999,-6.16777 -0.42524,-9.18347c0,-2.54892 3.0659,-2.88982 3.47014,-0.3881l2.49368,29.24442c2.84017,0.74475 6.75656,3.98597 9.76998,2.58039c2.15769,-1.00698 2.06844,-6.68699 2.45693,-8.76913l-4.29437,-40.93485z" fill-rule="nonzero" fill="rgb(66, 43, 84)" fill-opacity="1" style="mix-blend-mode:normal"></path><g style="mix-blend-mode:normal"><g><path id="mavob04056785210_stroke_path" d="M99.36172,21.28254c14.05385,1.59439 30.29163,5.11882 37.89866,18.33546c2.86117,4.96148 4.45187,12.11 2.05269,17.48582c-1.38071,3.08913 -4.02664,5.29714 -6.42057,7.57334l4.00564,38.57999c-0.74548,5.20798 2.33618,13.18517 -3.13416,16.47884c-2.61967,1.57865 -6.00583,1.17481 -8.76725,0.11538c-1.01847,-0.39335 -3.66964,-2.04019 -4.52011,-1.99299c-0.85048,0.0472 -3.32841,2.36011 -4.39938,2.96325c-2.95042,1.64683 -5.84308,1.80943 -8.91949,0.34091c-1.93194,-0.92307 -3.10792,-2.72725 -5.4861,-2.08739c-3.68539,0.99125 -5.68034,3.0262 -10.19521,3.03144c-3.82189,0 -5.96908,-1.93005 -9.07174,-2.51746c-2.47793,-0.47202 -3.4754,0.82866 -5.52284,1.63634c-3.3074,1.30593 -5.93233,1.28495 -9.17673,-0.20454c-0.93972,-0.43007 -2.59342,-1.78844 -3.56464,-1.7255c-0.97122,0.06294 -3.61715,1.69403 -4.85086,2.09263c-3.52265,1.13285 -6.63056,1.12237 -10.20571,0.28846c-3.30215,-0.77097 -5.77483,-2.55941 -9.30273,-1.6311c-4.69336,1.2325 -7.1188,3.74996 -12.54714,1.84614c-3.30215,-1.15908 -3.4229,-2.86885 -7.60178,-2.60137c-4.66187,0.2937 -9.33948,1.87761 -14.0381,-0.05244c-2.14719,-0.88111 -2.64592,-2.21851 -3.22341,-4.32687c1.7377,-15.325 4.06863,-30.60806 5.72233,-45.9383c0.25199,-2.3234 0.53549,-4.7412 0.50924,-7.03838c-7.74878,-5.71147 -12.00116,-14.28131 -5.19735,-22.75149c1.35971,-1.68879 2.86117,-2.63284 4.28913,-4.08037c0.82423,-0.83391 1.52771,-2.13459 2.45693,-2.84787c1.07097,-0.82342 3.76939,-2.19228 5.08185,-2.87934c4.31013,-2.26046 8.99824,-4.26394 13.67586,-5.61182l-6.87205,-3.02619c-6.62531,-3.37758 -9.02449,-9.31982 -1.8847,-13.99809c11.17168,-7.33209 36.5127,-7.61005 49.45883,-5.81637c12.94613,1.79369 26.56423,6.59783 29.75614,20.35467zM100.35919,25.18459c1.00797,8.74291 10.91445,11.25512 18.26948,12.03658c1.52771,0.16259 3.92162,-0.01574 5.21834,0.2937c2.06319,0.48776 1.93195,3.28318 0.07351,3.57164c-5.0661,0.79195 -15.50805,-1.64683 -19.94943,-4.31114c-8.87224,-5.32861 -6.08457,-12.89147 -10.58894,-20.2288c-8.15302,-13.26908 -35.34724,-13.5523 -49.04934,-12.38797c-6.28407,0.53496 -18.48997,2.31816 -23.26208,6.53489c-3.77464,3.33563 0.97122,5.89504 3.90064,7.31111c11.90141,5.75868 27.13122,5.5384 38.78588,10.80932c3.75889,1.69928 7.79078,5.51742 2.65118,8.64326c-7.76978,4.72023 -28.55393,3.43528 -37.78841,3.02095c-1.32296,-0.05769 -4.72486,0.5402 -5.1711,-0.94929c-0.39374,-1.32691 0.41999,-2.30767 1.71145,-2.49123c4.03188,-0.57167 9.88547,0.18356 14.0591,0.19405c4.56737,0.01049 9.54947,-0.03671 14.09059,-0.41957c3.92689,-0.33042 7.94302,-1.01223 11.53392,-2.65382c0.27299,-0.36188 -1.65371,-1.44229 -1.96345,-1.60488c-7.48628,-3.89681 -18.80495,-4.25869 -26.90547,-6.95447c-6.38382,1.52096 -12.67314,3.77618 -18.48997,6.82335c-5.35485,2.80067 -7.41804,4.1538 -6.67256,10.76736c1.19172,10.5838 17.57649,15.51906 26.22825,17.85819c17.272,4.66778 34.42851,5.82161 52.1625,3.08388c13.93835,-2.15033 35.46274,-7.69921 42.08805,-21.59241c1.10247,-2.31291 1.5592,-2.98423 -0.1155,-5.00344c-6.94555,-8.38627 -20.53742,-11.05058 -30.81662,-12.35126zM134.85594,43.55677c-6.54656,13.93516 -23.02583,19.72006 -37.11118,22.79869c-21.84462,4.77267 -43.14326,3.83912 -64.53639,-2.49123c-11.20318,-3.31465 -26.202,-8.79536 -26.33324,-22.75674c-7.97977,8.41249 0.90298,16.36345 8.23177,20.64837c23.51932,13.76208 66.48409,15.16766 92.56534,9.21493c11.56017,-2.63808 35.99296,-10.40548 27.59845,-26.91054c-0.09975,-0.19405 -0.126,-0.48251 -0.41474,-0.50349zM129.33836,67.02679c-2.49893,1.22201 -4.96111,2.53843 -7.55454,3.57163c-27.99745,11.14498 -76.02306,9.72366 -103.41677,-2.9213c-1.8007,-0.83391 -3.91639,-2.3129 -5.58584,-2.98423c-0.20999,-0.08392 -0.36224,-0.16259 -0.60373,-0.11014l-6.08983,50.90502c0.24674,1.0909 5.42834,0.99125 6.40482,0.94405c0.85573,-0.04196 6.48881,-0.65559 6.74081,-1.01747l3.00291,-25.98222c0.36749,-2.70102 3.87439,-2.65906 3.82714,0.13636c-0.02625,1.51572 -0.61423,3.71849 -0.79798,5.34435c-0.77698,6.91775 -1.34396,13.85649 -2.67742,20.69033c2.33618,0.09965 4.29437,2.42305 6.36807,2.9213c3.65389,0.88111 6.97705,-1.16432 10.27921,-2.30242c0.35699,-2.80591 0.41474,-5.6433 0.72973,-8.45446c0.40949,-3.65031 0.89772,-8.04012 1.6747,-11.59602c0.26249,-1.21152 0.32025,-2.72199 1.87945,-2.83213c1.7692,-0.12587 2.01069,1.10663 1.94244,2.5699c-0.147,3.33563 -1.17597,7.59432 -1.61171,11.04009c-0.38324,3.00521 -0.65623,6.03665 -1.02897,9.04186c6.18957,1.42656 10.06921,3.84961 16.51602,1.3374c0.33599,-0.13112 2.54093,-1.12237 2.65642,-1.22202c0.23099,-0.18881 0.18375,-0.3514 0.21525,-0.60314c0.27299,-2.18179 -0.126,-5.05064 -0.0105,-7.35831c0.19949,-4.01744 0.81373,-9.25689 1.45421,-13.24286c0.19424,-1.21677 0.34124,-2.90032 1.9162,-2.99997c1.30721,-0.07867 1.84795,0.71852 1.94244,1.94054c0.29924,3.77618 -1.43846,9.14151 -1.43846,13.07503l-0.38848,8.85305c2.19444,0.59265 4.23138,2.64332 6.60956,2.69052c2.37818,0.0472 4.68286,-1.7255 6.9193,-2.48074c0.31499,-0.14685 0.29924,-0.39335 0.33599,-0.68705c0.18899,-1.62061 -0.22049,-3.36185 -0.22574,-4.89854c-0.00525,-2.15033 0.09975,-4.59436 0.20474,-6.75517c0.147,-2.94227 0.30974,-7.38978 0.83997,-10.1852c0.45674,-2.41781 3.39141,-2.53843 3.6644,-0.22028c0.41474,3.52968 -0.93972,8.5541 -0.82948,12.24112c0.42524,3.09962 -0.57748,6.83908 -0.20474,9.81807c0.02625,0.22552 -0.0105,0.45629 0.20999,0.60314c3.09741,0.99125 5.72234,2.54893 9.09274,2.34963c3.49115,-0.20454 6.17382,-2.29718 9.46022,-3.08913c-0.30974,-7.06985 -0.14174,-14.20789 -0.18374,-21.3092c0.32024,-3.13108 3.54365,-3.35661 3.87439,0c0.20474,2.0297 -0.189,4.16429 -0.21,6.11007c-0.05775,5.15554 0.0315,10.32681 0.04725,15.48235c0.0525,0.21503 0.2205,0.31468 0.37274,0.44055c0.55648,0.45629 3.3914,2.0297 4.07913,2.24998c3.30215,1.05418 5.60158,-1.38984 7.93776,-3.29367l-1.81119,-20.38089c0.05775,-3.04192 -0.41999,-6.16777 -0.42524,-9.18347c0,-2.54892 3.0659,-2.88982 3.47014,-0.3881l2.49368,29.24442c2.84017,0.74475 6.75656,3.98597 9.76998,2.58039c2.15769,-1.00698 2.06844,-6.68699 2.45693,-8.76913l-4.29437,-40.93485z" fill="none" stroke="rgb(66, 43, 85)" stroke-width="4" stroke-linecap="butt" stroke-linejoin="round" stroke-dasharray="0 0" stroke-opacity="1"></path><defs><mask id="mavob04056785210_gradient_mask"></mask></defs><rect x="-148.4834" y="-130.5802" width="445.4502" height="391.7406" fill="url(#mavob04056785210ps0)" mask="url(#mavob04056785210_gradient_mask)"></rect></g></g></g></g></g></g></g><g id="mavob04d04789690_translate"><g transform="matrix(1,0,0,1,10.6654,3.7231)"><g id="mavob04d04789690" opacity="1" style="mix-blend-mode:normal"><g><g><path id="mavob04d04789690_fill_path" d="M89.69372,21.46158c10.27395,1.30593 23.86582,3.97023 30.81662,12.35126c1.6747,2.01921 1.21797,2.69053 0.1155,5.00344c-6.62531,13.8932 -28.1497,19.44209 -42.08805,21.59242c-17.73399,2.73773 -34.89049,1.5839 -52.16249,-3.08388c-8.65175,-2.33913 -25.04178,-7.2744 -26.22824,-17.85819c-0.74548,-6.61356 1.32296,-7.96669 6.67256,-10.76736c5.81683,-3.04192 12.10615,-5.29714 18.48997,-6.82335c8.10052,2.69053 19.41919,3.05766 26.90547,6.95447c0.30974,0.16259 2.23644,1.24299 1.96345,1.60488c-3.5909,1.64159 -7.60703,2.3234 -11.53392,2.65382c-4.54112,0.38286 -9.52323,0.43006 -14.09059,0.41957c-4.17363,-0.01049 -10.02721,-0.76572 -14.0591,-0.19405c-1.29146,0.18356 -2.10519,1.16432 -1.71145,2.49123c0.44624,1.49474 3.84289,0.8916 5.1711,0.94929c9.22923,0.41433 30.01864,1.70453 37.78841,-3.02095c5.1396,-3.12059 1.10247,-6.94398 -2.65118,-8.64326c-11.65466,-5.27617 -26.88448,-5.05589 -38.78588,-10.80932c-2.92942,-1.41607 -7.67528,-3.98073 -3.90064,-7.31111c4.77211,-4.21674 16.97801,-5.99993 23.26208,-6.53489c13.70211,-1.16432 40.89632,-0.88111 49.04934,12.38797c4.50437,7.33733 1.72195,14.90543 10.58894,20.2288c4.44137,2.66955 14.88332,5.10833 19.94943,4.31114c1.8532,-0.28846 1.98969,-3.08388 -0.07351,-3.57164c-1.29671,-0.30944 -3.68538,-0.13111 -5.21834,-0.2937c-7.35504,-0.7867 -17.26151,-3.29367 -18.26948,-12.03658z" fill-rule="nonzero" fill="rgb(238, 229, 43)" fill-opacity="1" style="mix-blend-mode:normal"></path></g></g></g></g></g><g id="mavob04g35660797_translate"><g transform="matrix(1,0,0,1,6.0876,64.589)"><g id="mavob04g35660797" opacity="1" style="mix-blend-mode:normal"><g><g><path id="mavob04g35660797_fill_path" d="M123.25069,2.43786l4.29437,40.93486c-0.38849,2.08214 -0.29924,7.76215 -2.45693,8.76913c-3.01866,1.40558 -6.92981,-1.83565 -9.76998,-2.5804l-2.49368,-29.24442c-0.40424,-2.49648 -3.47014,-2.16081 -3.47014,0.38811c0.00525,3.0157 0.48298,6.13629 0.42524,9.18346l1.81119,20.38089c-2.33618,1.90382 -4.63561,4.34785 -7.93776,3.29367c-0.68773,-0.22028 -3.52265,-1.79368 -4.07913,-2.24997c-0.1575,-0.12587 -0.32024,-0.22553 -0.37274,-0.44056c-0.021,-5.15554 -0.11024,-10.32156 -0.04725,-15.48234c0.021,-1.95103 0.41474,-4.08562 0.21,-6.11008c-0.33599,-3.36185 -3.5594,-3.13108 -3.87439,0c0.042,7.10656 -0.126,14.23935 0.18374,21.3092c-3.28641,0.79195 -5.97432,2.88458 -9.46022,3.08913c-3.37565,0.19405 -5.99533,-1.36362 -9.09274,-2.34962c-0.22574,-0.1521 -0.18374,-0.37762 -0.20999,-0.60314c-0.36749,-2.97899 0.63523,-6.71846 0.20474,-9.81807c-0.11025,-3.69227 1.24422,-8.71668 0.82948,-12.24112c-0.27299,-2.31291 -3.20766,-2.19753 -3.6644,0.22028c-0.53023,2.79542 -0.69298,7.24292 -0.83997,10.1852c-0.105,2.16081 -0.20999,4.5996 -0.20474,6.75517c0,1.5367 0.40948,3.27793 0.22574,4.89854c-0.0315,0.2937 -0.021,0.5402 -0.33599,0.68705c-2.23644,0.75524 -4.44662,2.53319 -6.9193,2.48075c-2.47268,-0.05245 -4.42037,-2.10313 -6.60956,-2.69053l0.38848,-8.85305c0,-3.93877 1.73245,-9.29884 1.43846,-13.07502c-0.0945,-1.22201 -0.64048,-2.01921 -1.94244,-1.94054c-1.57495,0.0944 -1.72196,1.7832 -1.9162,2.99997c-0.64048,3.98597 -1.25472,9.22542 -1.45421,13.24286c-0.1155,2.30767 0.28349,5.17651 0.0105,7.35831c-0.0315,0.2465 0.01575,0.41433 -0.21525,0.60314c-0.1155,0.0944 -2.32568,1.0909 -2.65642,1.22202c-6.44681,2.51221 -10.32645,0.08391 -16.51602,-1.3374c0.37274,-3.00521 0.65098,-6.03664 1.02897,-9.04185c0.43574,-3.44577 1.46471,-7.70446 1.61171,-11.04009c0.063,-1.46327 -0.17324,-2.70102 -1.94244,-2.56991c-1.55921,0.11014 -1.6117,1.62062 -1.87945,2.83214c-0.77698,3.5559 -1.26521,7.94572 -1.6747,11.59602c-0.31499,2.81116 -0.37274,5.64854 -0.72973,8.45445c-3.30215,1.1381 -6.62531,3.18353 -10.2792,2.30242c-2.06844,-0.49825 -4.03188,-2.82164 -6.36806,-2.92129c1.33346,-6.83384 1.90044,-13.77258 2.67742,-20.69033c0.18374,-1.62061 0.77173,-3.82338 0.79798,-5.34434c0.04725,-2.80067 -3.45965,-2.83739 -3.82714,-0.13637l-3.00291,25.98223c-0.25199,0.36188 -5.88508,0.97551 -6.7408,1.01746c-0.97647,0.0472 -6.15807,0.14161 -6.40482,-0.94404l6.08983,-50.90503c0.24149,-0.0472 0.39374,0.02622 0.60373,0.11014c1.66945,0.67132 3.78514,2.15557 5.58584,2.98423c27.39371,12.64496 75.41931,14.06627 103.41676,2.92129c2.59343,-1.03321 5.05561,-2.34962 7.55454,-3.57164z" fill-rule="nonzero" fill="rgb(238, 229, 43)" fill-opacity="1" style="mix-blend-mode:normal"></path></g></g></g></g></g><g id="mavob04j82100746_translate"><g transform="matrix(1,0,0,1,3.7316,41.1075)"><g id="mavob04j82100746" opacity="1" style="mix-blend-mode:normal"><g><g><path id="mavob04j82100746_fill_path" d="M131.12434,2.44928c0.28349,0.01573 0.315,0.30944 0.41474,0.50349c8.39451,16.5103 -16.03828,24.27246 -27.59845,26.91054c-26.076,5.95273 -69.04076,4.54715 -92.56534,-9.21494c-7.32879,-4.29016 -16.21679,-12.24112 -8.23176,-20.64837c0.13125,13.96138 15.13007,19.44733 26.33324,22.75674c21.39838,6.3251 42.69702,7.25866 64.53639,2.49123c14.08534,-3.07864 30.56461,-8.86353 37.11118,-22.79869z" fill-rule="nonzero" fill="rgb(238, 229, 43)" fill-opacity="1" style="mix-blend-mode:normal"></path></g></g></g></g></g></g></g></g></g></g><g id="mavob04y52038677_translate"><g transform="matrix(1,0,0,1,8.1083,103.16720000000001)"><g id="mavob04y52038677" opacity="1" style="mix-blend-mode:normal"><g><g><g id="mavob04y83929990_translate"><g transform="matrix(1,0,0,1,0,0)"><g id="mavob04y83929990" opacity="1" style="mix-blend-mode:normal"><g><g><path id="mavob04y83929990_fill_path" d="M137.44846,14.22278c6.8143,-3.25696 14.62083,1.48949 14.89907,8.97368c1.11297,-0.28846 2.24695,-0.63461 3.39141,-0.79195c13.13512,-1.77271 24.62179,9.54534 22.91559,22.68855c-1.94769,14.99983 -18.92572,22.67806 -31.5936,14.28131c-1.98969,-1.31642 -3.48065,-3.0734 -5.1186,-4.77268c-2.13144,7.88278 -9.14522,13.46315 -16.85725,15.48236c-10.43145,2.73249 -21.86562,-0.43531 -29.17341,-8.33907c-4.97161,10.76736 -19.90742,13.1537 -29.15241,6.48769c-1.42271,-1.02796 -2.37293,-2.229 -3.6014,-3.43004c-4.63037,9.18871 -15.70229,12.38798 -25.35677,10.54185c-12.59964,-2.40732 -23.57707,-13.81454 -20.7789,-27.26194c-12.43164,-0.3986 -20.57416,-14.08725 -15.4818,-25.3581c3.89014,-8.62228 14.03284,-11.69043 22.4956,-7.85131c0.55123,0.25175 2.96092,1.75173 3.18141,1.59438c2.04219,-4.19576 5.52284,-7.87753 9.33423,-10.55757c13.96985,-9.83381 32.09758,-5.47022 39.9671,9.5401c5.28135,-5.97371 15.4713,-6.24644 21.23038,-0.81818c0.73498,-1.2902 1.17597,-2.70626 1.9057,-4.00695c4.05288,-7.2639 12.16915,-11.60127 20.52166,-10.43694c7.79603,1.08565 14.57357,6.7237 17.27725,14.04005zM115.35712,3.88024c-7.17654,0.72901 -12.20065,6.39329 -14.19034,12.94916c-0.34124,1.12761 -0.36749,3.4615 -1.53821,3.97024c-2.17344,0.9388 -2.65642,-1.43705 -3.72214,-2.70102c-3.79564,-4.50519 -12.98813,-4.98246 -16.60527,-0.06293c-0.97647,1.32691 -1.45421,5.10309 -3.89539,3.61884c-0.68248,-0.41433 -2.21018,-4.41603 -2.84016,-5.52266c-8.6885,-15.24633 -28.63793,-15.20437 -39.33187,-2.10836c-1.50671,1.84613 -2.38868,4.00695 -3.68014,5.70098c-1.7797,2.32865 -3.33365,0.33041 -4.92961,-0.56119c-11.24518,-6.28315 -23.99181,2.12935 -20.25917,14.9369c1.51721,5.19749 6.8878,10.32156 12.54189,10.32681c1.91619,0 4.96636,-1.23775 4.57787,2.10836c-0.26774,2.31816 -1.37021,3.82863 -1.20746,6.74468c1.05522,18.47706 31.35735,26.25494 39.63111,9.82856c0.79798,-1.5839 1.31771,-5.69573 3.78514,-4.87756c1.33346,0.4458 1.58021,2.43353 2.26794,3.6503c4.59362,8.11879 19.03595,8.18173 24.72678,1.18531c0.95547,-1.17481 2.06319,-3.22549 2.21019,-4.74121c0.12075,-1.27971 -1.33871,-2.75871 0.46724,-3.79716c2.14194,-1.22726 3.42815,2.25523 4.48337,3.64507c10.2267,13.51558 37.52066,11.98937 40.92781,-5.99469c0.27299,-1.43705 -0.03148,-3.67129 1.21273,-4.49995c2.53568,-1.6783 3.29165,1.77271 4.22612,3.32514c6.49406,10.80407 22.2646,10.81981 28.56967,-0.13112c7.41279,-12.87573 -4.17887,-27.77066 -18.6107,-24.30392c-1.54346,0.37237 -4.63562,1.94578 -5.89033,0.38286c-1.02897,-1.27971 0,-1.8304 0.16274,-2.83738c0.84523,-5.24994 -5.06611,-8.65899 -9.65448,-6.58734c-1.28096,0.57692 -2.28368,2.1818 -3.80614,1.49474c-1.22846,-0.55069 -0.54596,-1.91956 -0.69296,-2.75347c-0.126,-0.68181 -1.37547,-3.03143 -1.79546,-3.72898c-3.61715,-5.96322 -10.1322,-9.36179 -17.146,-8.64851z" fill-rule="nonzero" fill="rgb(66, 43, 84)" fill-opacity="1" style="mix-blend-mode:normal"></path><defs><clipPath id="mavob04y83929990_stroke_clip_path" clipPathUnits="userSpaceOnUse"><path id="mavob04y83929990_stroke_path" d="M-1,-1 H179.8233 V76.8455 H-1 Z M137.44846,14.22278c6.8143,-3.25696 14.62083,1.48949 14.89907,8.97368c1.11297,-0.28846 2.24695,-0.63461 3.39141,-0.79195c13.13512,-1.77271 24.62179,9.54534 22.91559,22.68855c-1.94769,14.99983 -18.92572,22.67806 -31.5936,14.28131c-1.98969,-1.31642 -3.48065,-3.0734 -5.1186,-4.77268c-2.13144,7.88278 -9.14522,13.46315 -16.85725,15.48236c-10.43145,2.73249 -21.86562,-0.43531 -29.17341,-8.33907c-4.97161,10.76736 -19.90742,13.1537 -29.15241,6.48769c-1.42271,-1.02796 -2.37293,-2.229 -3.6014,-3.43004c-4.63037,9.18871 -15.70229,12.38798 -25.35677,10.54185c-12.59964,-2.40732 -23.57707,-13.81454 -20.7789,-27.26194c-12.43164,-0.3986 -20.57416,-14.08725 -15.4818,-25.3581c3.89014,-8.62228 14.03284,-11.69043 22.4956,-7.85131c0.55123,0.25175 2.96092,1.75173 3.18141,1.59438c2.04219,-4.19576 5.52284,-7.87753 9.33423,-10.55757c13.96985,-9.83381 32.09758,-5.47022 39.9671,9.5401c5.28135,-5.97371 15.4713,-6.24644 21.23038,-0.81818c0.73498,-1.2902 1.17597,-2.70626 1.9057,-4.00695c4.05288,-7.2639 12.16915,-11.60127 20.52166,-10.43694c7.79603,1.08565 14.57357,6.7237 17.27725,14.04005zM115.35712,3.88024c-7.17654,0.72901 -12.20065,6.39329 -14.19034,12.94916c-0.34124,1.12761 -0.36749,3.4615 -1.53821,3.97024c-2.17344,0.9388 -2.65642,-1.43705 -3.72214,-2.70102c-3.79564,-4.50519 -12.98813,-4.98246 -16.60527,-0.06293c-0.97647,1.32691 -1.45421,5.10309 -3.89539,3.61884c-0.68248,-0.41433 -2.21018,-4.41603 -2.84016,-5.52266c-8.6885,-15.24633 -28.63793,-15.20437 -39.33187,-2.10836c-1.50671,1.84613 -2.38868,4.00695 -3.68014,5.70098c-1.7797,2.32865 -3.33365,0.33041 -4.92961,-0.56119c-11.24518,-6.28315 -23.99181,2.12935 -20.25917,14.9369c1.51721,5.19749 6.8878,10.32156 12.54189,10.32681c1.91619,0 4.96636,-1.23775 4.57787,2.10836c-0.26774,2.31816 -1.37021,3.82863 -1.20746,6.74468c1.05522,18.47706 31.35735,26.25494 39.63111,9.82856c0.79798,-1.5839 1.31771,-5.69573 3.78514,-4.87756c1.33346,0.4458 1.58021,2.43353 2.26794,3.6503c4.59362,8.11879 19.03595,8.18173 24.72678,1.18531c0.95547,-1.17481 2.06319,-3.22549 2.21019,-4.74121c0.12075,-1.27971 -1.33871,-2.75871 0.46724,-3.79716c2.14194,-1.22726 3.42815,2.25523 4.48337,3.64507c10.2267,13.51558 37.52066,11.98937 40.92781,-5.99469c0.27299,-1.43705 -0.03148,-3.67129 1.21273,-4.49995c2.53568,-1.6783 3.29165,1.77271 4.22612,3.32514c6.49406,10.80407 22.2646,10.81981 28.56967,-0.13112c7.41279,-12.87573 -4.17887,-27.77066 -18.6107,-24.30392c-1.54346,0.37237 -4.63562,1.94578 -5.89033,0.38286c-1.02897,-1.27971 0,-1.8304 0.16274,-2.83738c0.84523,-5.24994 -5.06611,-8.65899 -9.65448,-6.58734c-1.28096,0.57692 -2.28368,2.1818 -3.80614,1.49474c-1.22846,-0.55069 -0.54596,-1.91956 -0.69296,-2.75347c-0.126,-0.68181 -1.37547,-3.03143 -1.79546,-3.72898c-3.61715,-5.96322 -10.1322,-9.36179 -17.146,-8.64851z" clip-rule="evenodd"></path></clipPath></defs><g style="mix-blend-mode:normal"><g clip-path="url(#mavob04y83929990_stroke_clip_path)"><path id="mavob04y83929990_stroke_path" d="M137.44846,14.22278c6.8143,-3.25696 14.62083,1.48949 14.89907,8.97368c1.11297,-0.28846 2.24695,-0.63461 3.39141,-0.79195c13.13512,-1.77271 24.62179,9.54534 22.91559,22.68855c-1.94769,14.99983 -18.92572,22.67806 -31.5936,14.28131c-1.98969,-1.31642 -3.48065,-3.0734 -5.1186,-4.77268c-2.13144,7.88278 -9.14522,13.46315 -16.85725,15.48236c-10.43145,2.73249 -21.86562,-0.43531 -29.17341,-8.33907c-4.97161,10.76736 -19.90742,13.1537 -29.15241,6.48769c-1.42271,-1.02796 -2.37293,-2.229 -3.6014,-3.43004c-4.63037,9.18871 -15.70229,12.38798 -25.35677,10.54185c-12.59964,-2.40732 -23.57707,-13.81454 -20.7789,-27.26194c-12.43164,-0.3986 -20.57416,-14.08725 -15.4818,-25.3581c3.89014,-8.62228 14.03284,-11.69043 22.4956,-7.85131c0.55123,0.25175 2.96092,1.75173 3.18141,1.59438c2.04219,-4.19576 5.52284,-7.87753 9.33423,-10.55757c13.96985,-9.83381 32.09758,-5.47022 39.9671,9.5401c5.28135,-5.97371 15.4713,-6.24644 21.23038,-0.81818c0.73498,-1.2902 1.17597,-2.70626 1.9057,-4.00695c4.05288,-7.2639 12.16915,-11.60127 20.52166,-10.43694c7.79603,1.08565 14.57357,6.7237 17.27725,14.04005zM115.35712,3.88024c-7.17654,0.72901 -12.20065,6.39329 -14.19034,12.94916c-0.34124,1.12761 -0.36749,3.4615 -1.53821,3.97024c-2.17344,0.9388 -2.65642,-1.43705 -3.72214,-2.70102c-3.79564,-4.50519 -12.98813,-4.98246 -16.60527,-0.06293c-0.97647,1.32691 -1.45421,5.10309 -3.89539,3.61884c-0.68248,-0.41433 -2.21018,-4.41603 -2.84016,-5.52266c-8.6885,-15.24633 -28.63793,-15.20437 -39.33187,-2.10836c-1.50671,1.84613 -2.38868,4.00695 -3.68014,5.70098c-1.7797,2.32865 -3.33365,0.33041 -4.92961,-0.56119c-11.24518,-6.28315 -23.99181,2.12935 -20.25917,14.9369c1.51721,5.19749 6.8878,10.32156 12.54189,10.32681c1.91619,0 4.96636,-1.23775 4.57787,2.10836c-0.26774,2.31816 -1.37021,3.82863 -1.20746,6.74468c1.05522,18.47706 31.35735,26.25494 39.63111,9.82856c0.79798,-1.5839 1.31771,-5.69573 3.78514,-4.87756c1.33346,0.4458 1.58021,2.43353 2.26794,3.6503c4.59362,8.11879 19.03595,8.18173 24.72678,1.18531c0.95547,-1.17481 2.06319,-3.22549 2.21019,-4.74121c0.12075,-1.27971 -1.33871,-2.75871 0.46724,-3.79716c2.14194,-1.22726 3.42815,2.25523 4.48337,3.64507c10.2267,13.51558 37.52066,11.98937 40.92781,-5.99469c0.27299,-1.43705 -0.03148,-3.67129 1.21273,-4.49995c2.53568,-1.6783 3.29165,1.77271 4.22612,3.32514c6.49406,10.80407 22.2646,10.81981 28.56967,-0.13112c7.41279,-12.87573 -4.17887,-27.77066 -18.6107,-24.30392c-1.54346,0.37237 -4.63562,1.94578 -5.89033,0.38286c-1.02897,-1.27971 0,-1.8304 0.16274,-2.83738c0.84523,-5.24994 -5.06611,-8.65899 -9.65448,-6.58734c-1.28096,0.57692 -2.28368,2.1818 -3.80614,1.49474c-1.22846,-0.55069 -0.54596,-1.91956 -0.69296,-2.75347c-0.126,-0.68181 -1.37547,-3.03143 -1.79546,-3.72898c-3.61715,-5.96322 -10.1322,-9.36179 -17.146,-8.64851z" fill="none" stroke="rgb(66, 43, 85)" stroke-width="2" stroke-linecap="butt" stroke-linejoin="miter" stroke-dasharray="0 0" stroke-opacity="1"></path><defs><mask id="mavob04y83929990_gradient_mask"></mask></defs><rect x="-180.8233" y="-77.8455" width="542.4698999999999" height="233.5365" fill="url(#mavob04y83929990ps0)" mask="url(#mavob04y83929990_gradient_mask)"></rect></g></g></g></g></g></g></g><g id="mavob05103143796_translate"><g transform="matrix(1,0,0,1,3.707,3.7864)"><g id="mavob05103143796" opacity="1" style="mix-blend-mode:normal"><g><g><path id="mavob05103143796_fill_path" d="M111.65005,0.09383c7.0138,-0.71328 13.52886,2.68529 17.14601,8.64851c0.41999,0.6923 1.67469,3.04717 1.79544,3.72898c0.15225,0.83391 -0.53023,2.20277 0.69298,2.75347c1.52246,0.68706 2.52519,-0.91783 3.80615,-1.49474c4.58837,-2.07166 10.49971,1.33216 9.65448,6.58735c-0.16275,1.01223 -1.19171,1.56291 -0.16274,2.83737c1.25471,1.56292 4.34688,-0.01049 5.89033,-0.38286c14.43184,-3.46674 26.02874,11.42819 18.61071,24.30392c-6.30507,10.95093 -22.07561,10.92995 -28.56967,0.13112c-0.93447,-1.55243 -1.69046,-5.00344 -4.22614,-3.32514c-1.24421,0.82342 -0.93972,3.0629 -1.21271,4.49995c-3.40715,17.98407 -30.70112,19.51551 -40.92783,5.99468c-1.04997,-1.38984 -2.33619,-4.87231 -4.48338,-3.64505c-1.8112,1.03845 -0.34649,2.51745 -0.46724,3.79716c-0.14175,1.51572 -1.25471,3.5664 -2.21018,4.74121c-5.69084,7.00167 -20.13317,6.93348 -24.72679,-1.18531c-0.68773,-1.21677 -0.93447,-3.20975 -2.26793,-3.6503c-2.46743,-0.82342 -2.98717,3.29366 -3.78514,4.87756c-8.27376,16.43163 -38.57589,8.65376 -39.63111,-9.82856c-0.168,-2.91605 0.93447,-4.42652 1.20746,-6.74468c0.38849,-3.34612 -2.65642,-2.10313 -4.57787,-2.10837c-5.65409,0 -11.02468,-5.12931 -12.54189,-10.32681c-3.73264,-12.80755 9.01399,-21.22004 20.25917,-14.93689c1.59595,0.8916 3.14466,2.88982 4.92961,0.56118c1.29671,-1.69404 2.17344,-3.85485 3.68015,-5.70098c10.69394,-13.09076 30.64337,-13.13796 39.33187,2.10837c0.62998,1.10663 2.15769,5.10833 2.84017,5.52266c2.44643,1.48425 2.91892,-2.28669 3.89539,-3.61885c3.6119,-4.91953 12.80438,-4.43701 16.60527,0.06294c1.06572,1.26397 1.54871,3.63982 3.72215,2.70102c1.17072,-0.50349 1.19696,-2.84262 1.5382,-3.97023c1.98444,-6.55587 7.0138,-12.2149 14.19034,-12.94916z" fill-rule="nonzero" fill="rgb(33, 168, 171)" fill-opacity="1" style="mix-blend-mode:normal"></path></g></g></g></g></g></g></g></g></g></g></g></g></g></g></g><animateTransform href="#mavob04l35686159" attributeName="transform" type="translate" values="11.4641 11.6566;11.4641 11.6566;11.4641 11.6566;11.4641 11.6566;11.4641 11.6566" dur="4s" repeatCount="indefinite" calcMode="spline" keyTimes="0;0.2;0.52;0.8;1" keySplines="0.5 0.35 0.15 1;0.5 0.35 0.15 1;0.5 0.35 0.15 1;0.5 0.35 0.15 1" additive="sum" fill="freeze"></animateTransform><animateTransform href="#mavob04l35686159" attributeName="transform" type="scale" values="0.69 0.69;0.7 0.7;0.8 0.8;0.6 0.6;0.8 0.8" dur="4s" repeatCount="indefinite" calcMode="spline" keyTimes="0;0.2;0.52;0.8;1" keySplines="0.5 0.35 0.15 1;0.5 0.35 0.15 1;0.5 0.35 0.15 1;0.5 0.35 0.15 1" additive="sum" fill="freeze"></animateTransform><animateTransform href="#mavob04l35686159" attributeName="transform" type="translate" values="-11.4641 -11.6566;-11.4641 -11.6566;-11.4641 -11.6566;-11.4641 -11.6566;-11.4641 -11.6566" dur="4s" repeatCount="indefinite" calcMode="spline" keyTimes="0;0.2;0.52;0.8;1" keySplines="0.5 0.35 0.15 1;0.5 0.35 0.15 1;0.5 0.35 0.15 1;0.5 0.35 0.15 1" additive="sum" fill="freeze"></animateTransform><animateTransform href="#mavob04q65552169" attributeName="transform" type="translate" values="0 0;0 0;0 0;0 0;0 0" dur="4s" repeatCount="indefinite" calcMode="spline" keyTimes="0;0.37;0.67;0.96;1" keySplines="0.5 0.35 0.15 1;0.5 0.35 0.15 1;0.5 0.35 0.15 1;0.5 0.35 0.15 1" additive="sum" fill="freeze"></animateTransform><animateTransform href="#mavob04q65552169" attributeName="transform" type="scale" values="0.7 0.7;0.9 0.9;0.7 0.7;1 1;1 1" dur="4s" repeatCount="indefinite" calcMode="spline" keyTimes="0;0.37;0.67;0.96;1" keySplines="0.5 0.35 0.15 1;0.5 0.35 0.15 1;0.5 0.35 0.15 1;0.5 0.35 0.15 1" additive="sum" fill="freeze"></animateTransform><animateTransform href="#mavob04q65552169" attributeName="transform" type="translate" values="0 0;0 0;0 0;0 0;0 0" dur="4s" repeatCount="indefinite" calcMode="spline" keyTimes="0;0.37;0.67;0.96;1" keySplines="0.5 0.35 0.15 1;0.5 0.35 0.15 1;0.5 0.35 0.15 1;0.5 0.35 0.15 1" additive="sum" fill="freeze"></animateTransform><animateTransform href="#mavob04u39362152" attributeName="transform" type="translate" values="0 0;0 0;0 0;0 0;0 0;0 0;0 0" dur="4s" repeatCount="indefinite" calcMode="spline" keyTimes="0;0.13;0.28;0.51;0.77;0.98;1" keySplines="0.5 0.35 0.15 1;0.5 0.35 0.15 1;0.5 0.35 0.15 1;0.5 0.35 0.15 1;0.5 0.35 0.15 1;0.5 0.35 0.15 1" additive="sum" fill="freeze"></animateTransform><animateTransform href="#mavob04u39362152" attributeName="transform" type="scale" values="1 1;0.77 0.77;0.68 0.68;0.88 0.88;1.02 1.02;0.79 0.79;0.79 0.79" dur="4s" repeatCount="indefinite" calcMode="spline" keyTimes="0;0.13;0.28;0.51;0.77;0.98;1" keySplines="0.5 0.35 0.15 1;0.5 0.35 0.15 1;0.5 0.35 0.15 1;0.5 0.35 0.15 1;0.5 0.35 0.15 1;0.5 0.35 0.15 1" additive="sum" fill="freeze"></animateTransform><animateTransform href="#mavob04u39362152" attributeName="transform" type="translate" values="0 0;0 0;0 0;0 0;0 0;0 0;0 0" dur="4s" repeatCount="indefinite" calcMode="spline" keyTimes="0;0.13;0.28;0.51;0.77;0.98;1" keySplines="0.5 0.35 0.15 1;0.5 0.35 0.15 1;0.5 0.35 0.15 1;0.5 0.35 0.15 1;0.5 0.35 0.15 1;0.5 0.35 0.15 1" additive="sum" fill="freeze"></animateTransform><animateTransform href="#mavob03z77323286_translate" attributeName="transform" type="translate" values="0 0;0 0;31 0;4 0;25 -1;25 -1" dur="4s" repeatCount="indefinite" calcMode="spline" keyTimes="0;0.01;0.33;0.7;1;1" keySplines="0.5 0.35 0.15 1;0.5 0.35 0.15 1;0.5 0.35 0.15 1;0.5 0.35 0.15 1;0.5 0.35 0.15 1" additive="sum" fill="freeze"></animateTransform><animateTransform href="#mavob04y52038677_translate" attributeName="transform" type="translate" values="0 0;0 0;16 0;-5 0;9 -1;4 7;4 7" dur="4s" repeatCount="indefinite" calcMode="spline" keyTimes="0;0.01;0.34;0.64;0.92;0.99;1" keySplines="0.57 0.25 0.15 1;0.57 0.25 0.15 1;0.5 0.35 0.15 1;0.5 0.35 0.15 1;0.5 0.35 0.15 1;0.5 0.35 0.15 1" additive="sum" fill="freeze"></animateTransform><animateTransform href="#mavob04y52038677" attributeName="transform" type="translate" values="89.4117 37.9228;89.4117 37.9228" dur="4s" repeatCount="indefinite" calcMode="spline" keyTimes="0;1" keySplines="0.5 0.35 0.15 1" additive="sum" fill="freeze"></animateTransform><animateTransform href="#mavob04y52038677" attributeName="transform" type="scale" values="1 1;1 1" dur="4s" repeatCount="indefinite" calcMode="spline" keyTimes="0;1" keySplines="0.5 0.35 0.15 1" additive="sum" fill="freeze"></animateTransform><animateTransform href="#mavob04y52038677" attributeName="transform" type="translate" values="-89.4117 -37.9228;-89.4117 -37.9228" dur="4s" repeatCount="indefinite" calcMode="spline" keyTimes="0;1" keySplines="0.5 0.35 0.15 1" additive="sum" fill="freeze"></animateTransform></svg>