<svg width="138" height="100" viewBox="0 0 138 100" fill="none" xmlns="http://www.w3.org/2000/svg">
<path d="M118.058 21.4039C112.243 26.3237 107.2 32.2036 100.827 36.4755C100.769 36.6609 100.842 36.7058 100.943 36.8248C101.208 37.1351 102.097 37.5703 102.502 37.9196C105.76 40.7142 106.199 45.1403 102.742 47.9954C102.379 48.2959 100.783 49.1429 100.742 49.4473L101.988 54.0939C102.429 56.5489 102.68 59.0801 102.498 61.5858C101.971 68.8767 95.4628 72.7427 91.3913 78.043C90.4019 79.331 89.4686 81.7939 87.4474 81.0328C85.4261 80.2717 86.8503 76.0115 86.7517 74.3917C86.6165 74.2376 83.6445 76.3023 83.2696 76.5169C75.8127 80.7869 66.8697 81.2611 58.5819 79.4716C57.3297 79.2022 55.5597 78.4724 54.3616 78.5173C52.6998 78.5797 51.1906 78.849 49.4341 78.7573C39.2545 78.2187 31.1753 73.3945 24.0102 66.4412C22.8739 65.3386 20.8005 63.3988 19.9967 62.1205C18.8894 60.3622 19.9116 58.6136 21.9715 59.5191C23.1097 60.0187 24.3039 60.9184 25.4923 61.4258C30.6459 63.631 36.2439 62.7977 41.2835 60.6979C41.7008 60.5242 43.7395 59.6265 43.9308 59.4294C43.9984 59.3611 44.097 59.1327 44.0776 59.0469L43.9656 58.9161C42.8235 58.4048 41.697 57.8272 40.6168 57.1968C39.3878 56.4787 36.9859 55.2609 36.9163 53.6782C36.8506 52.1775 37.9598 51.5413 39.2506 51.2408C41.2854 50.7665 43.2332 50.6046 45.2854 49.9313C51.4786 47.8978 55.7336 43.5752 60.8041 39.7502C61.2118 39.4418 61.8128 39.313 61.9809 38.7471L56.5838 34.1591C55.2524 32.6778 51.2409 29.8423 52.9394 27.5766C53.5655 26.7413 55.1964 26.8603 56.149 26.9521C59.1017 27.2389 62.5065 28.4996 65.662 28.8763C70.4021 29.4403 75.2194 29.0382 79.9614 29.6081C82.1508 29.8715 84.4078 30.3828 86.4541 31.1966C87.5227 30.6678 88.5932 29.733 89.8203 29.6081C90.3614 29.5534 91.314 29.5593 91.8609 29.6081C93.5517 29.7623 94.5835 31.0073 95.8087 32.0163C97.828 30.5975 99.7719 29.0734 101.662 27.4848C107.847 22.2821 113.681 16.6187 119.807 11.3399C122.288 9.20293 128.433 3.75622 131.528 3.51618C133.853 3.33664 134.993 4.76126 134.295 7.03674C133.234 10.4948 124.525 16.2889 121.503 18.6347C120.342 19.5363 119.179 20.4535 118.056 21.4039H118.058ZM86.7053 42.8882C86.259 42.3438 85.7372 41.891 85.3372 41.2958C83.8667 39.1101 83.7372 36.6394 84.5566 34.1512C84.5179 33.8995 82.3575 33.3609 81.9769 33.2809C76.4407 32.1178 70.4774 32.7696 64.8234 32.0319C62.4137 31.7177 60.0292 31.1322 57.6698 30.578C57.4669 30.738 59.7645 32.8613 59.9674 33.0467C60.9084 33.9054 62.0253 34.887 63.0224 35.6715C63.3316 35.9154 64.5973 36.9361 64.8504 36.9888C65.3934 37.1039 66.1973 36.4872 66.7248 36.2589C69.0726 35.2461 73.2001 33.7805 75.7334 34.2449C77.2851 34.5298 77.4668 36.8287 76.0677 37.3166C75.26 37.5976 73.6194 37.5781 72.6533 37.7538C64.2591 39.2623 58.7056 46.801 51.581 50.7002C48.5163 52.3785 45.1443 53.5162 41.6873 54.0002L42.1685 54.5408C43.668 55.218 46.5472 57.349 48.182 56.8573C48.5781 56.7382 50.1085 55.5888 50.5703 55.2629C55.3123 51.9101 59.4824 47.9973 64.8408 45.5208C69.6601 43.2942 75.5383 42.4277 80.7807 43.4698C82.9063 43.8913 82.7904 46.6996 80.4426 46.723C78.6552 46.7405 76.8832 46.2488 74.9141 46.3502C64.1335 46.9006 57.5519 54.9311 49.0322 60.2666C43.3047 63.8554 36.6246 66.4978 29.7415 65.7582C29.1096 65.6899 28.0391 65.163 27.6237 65.6489C29.0633 66.7417 30.3715 68.0473 31.8381 69.1031C42.8409 77.0126 56.464 77.2097 68.4504 71.3766C75.2407 68.0727 80.1083 63.4768 83.3604 56.5762C83.8455 55.5478 84.8194 52.4741 85.4512 51.8906C86.4445 50.9715 87.9846 51.391 88.0715 52.8683C88.1778 54.6911 85.5343 59.6714 84.5218 61.3887C80.1102 68.8748 72.5412 73.8687 64.4601 76.5696L63.4456 77.1824C64.0388 77.0829 64.6263 77.2839 65.1828 77.3093C75.5054 77.7893 84.315 74.1049 90.2763 65.4986C91.4415 63.8164 92.5082 61.3087 93.685 59.8372C94.8618 58.3658 96.8869 59.2206 96.5681 61.0433C96.2917 62.624 92.8096 67.657 91.6889 69.107C91.3913 69.4914 89.9826 70.92 89.9053 71.201C89.799 71.5874 90.1816 71.8938 90.2416 72.2743C90.2667 72.4363 90.1179 74.2649 90.6068 73.9039C90.7691 73.5253 91.1981 73.0471 91.4995 72.7368C93.8299 70.3345 96.6415 68.3166 98.2009 65.2449C100.158 61.3868 99.598 56.8826 98.5603 52.8274C98.4598 52.4351 97.9169 50.3879 97.7642 50.2338C97.5439 50.0074 95.857 50.2572 95.3565 50.2357C92.7884 50.1303 89.8783 49.057 88.4657 46.7562C87.6 45.3491 87.8087 44.227 86.7111 42.8863L86.7053 42.8882ZM100.989 45.07C103.107 42.8453 100.854 40.3298 98.655 39.3774C97.5922 38.9169 96.0193 38.952 95.4628 37.8689C95.3314 37.6113 95.3178 37.2561 95.1768 37.0649C94.7594 36.4989 93.8628 36.9868 93.6212 35.4802C93.4782 34.5962 93.5691 34.1083 92.8174 33.3784C92.0039 32.59 90.9005 32.3832 89.857 32.7988C88.6589 33.277 89.0319 33.8 88.4193 34.5025C87.8068 35.2051 87.3507 35.0041 87.2309 36.337C86.8812 40.2439 89.8242 40.2712 90.5932 42.9038C90.9411 44.0962 90.7556 44.7676 91.8493 45.6984C94.1488 47.6558 98.9294 47.2304 100.987 45.07H100.989Z" fill="#422B55"/>
<path d="M22.6421 67.7664C24.4411 68.9724 26.1416 70.3658 27.9657 71.5543C41.5386 80.385 61.0882 83.7552 76.804 79.8151C78.6262 79.3585 80.3963 78.5291 82.1856 78.088C83.2967 77.8148 84.3788 77.7972 85.1981 78.693C86.3576 79.9595 85.7547 82.1667 88.3498 81.7627C91.6464 81.2495 95.8686 74.0854 99.0976 71.9856C99.6695 71.6148 101.921 70.3541 102.454 70.2761C105.917 69.7687 114.004 69.4154 116.106 72.8482C118.098 76.0994 113.555 78.0587 111.181 78.7223C107.559 79.7351 103.679 79.8112 99.9826 80.463L99.971 80.867C104.699 82.6156 110.276 82.2077 114.906 84.2529C119.362 86.222 118.958 89.9553 115.281 92.5703C107.411 98.1653 96.2454 96.2138 87.3025 95.9855C81.6639 95.8411 75.8282 96.2645 70.2243 95.9952C68.7074 95.923 66.2012 95.7064 64.8369 95.1248C62.9258 94.3111 62.3191 92.5176 63.6833 90.8354C63.9713 90.4802 65.4823 89.5532 65.2369 89.2C64.0427 88.7141 62.806 88.2886 61.5442 88.0135C54.3269 86.4386 45.8574 87.0885 38.4951 87.2504C34.8314 87.3304 30.0758 87.7656 26.5165 87.0963C25.3744 86.8816 23.8517 86.3235 23.4479 85.0979C22.53 82.2994 26.6343 80.7187 28.5821 79.8483L28.3387 79.3077C26.4082 78.8608 24.4604 78.4608 22.501 78.1641C17.6972 77.4382 11.5639 77.3016 7.06925 75.6642C5.13883 74.9617 2.33885 73.135 4.0142 70.7581C5.88859 68.0982 11.7494 67.864 14.7001 67.5908C16.389 67.4346 20.7001 66.7984 22.1242 67.38C22.3136 67.458 22.474 67.6532 22.644 67.7664H22.6421Z" fill="#1D9496"/>
<path d="M121.335 78.5544C122.085 79.1964 122.069 81.3919 121.316 82.0378C121.177 82.1569 120.616 82.4223 120.433 82.4808C118.495 83.078 113.604 82.7443 114.614 79.6414C115.24 77.7171 120.025 77.4322 121.335 78.5544Z" fill="#21A9AB"/>
<path d="M53.9191 89.3542C54.8428 89.2702 57.1925 89.3503 58.0292 89.6215C59.0978 89.9689 59.8379 91.0618 59.3819 92.1995C58.8679 93.4816 55.751 93.425 54.607 93.3216C53.2969 93.2026 51.1636 92.4844 51.5964 90.771C51.8785 89.6527 52.9278 89.4459 53.9191 89.3542Z" fill="#21A9AB"/>
<path d="M13.2934 62.5323C14.3678 62.4562 16.4026 62.626 16.5649 64.0096C16.7446 65.5182 16.2538 66.4686 14.6963 66.6188C13.5369 66.7301 11.1987 66.8355 10.449 65.8148C9.03063 63.8789 11.6702 62.6475 13.2915 62.5323H13.2934Z" fill="#21A9AB"/>
<path d="M86.7054 42.8882C87.803 44.2289 87.5962 45.3511 88.46 46.7581C89.8725 49.057 92.7826 50.1323 95.3507 50.2377C95.8512 50.2572 97.5382 50.0094 97.7585 50.2357C97.9092 50.3919 98.4541 52.439 98.5546 52.8293C99.5923 56.8846 100.151 61.3887 98.1952 65.2469C96.6377 68.3186 93.8242 70.3365 91.4938 72.7388C91.1923 73.0491 90.7633 73.5253 90.601 73.9058C90.1121 74.2668 90.2609 72.4363 90.2358 72.2763C90.1759 71.8957 89.7933 71.5893 89.8996 71.2029C89.9769 70.9239 91.3836 69.4954 91.6831 69.1089C92.8039 67.6609 96.286 62.626 96.5623 61.0452C96.8812 59.2225 94.829 58.4009 93.6793 59.8392C92.5295 61.2775 91.4358 63.8184 90.2706 65.5006C84.3093 74.1068 75.4997 77.7913 65.1771 77.3112C64.6205 77.2858 64.0331 77.0848 63.4399 77.1844L64.4544 76.5716C72.5355 73.8707 80.1045 68.8767 84.516 61.3907C85.5286 59.6733 88.1721 54.6911 88.0658 52.8703C87.9788 51.393 86.4387 50.9754 85.4455 51.8926C84.8136 52.4761 83.8397 55.5497 83.3547 56.5782C80.1045 63.4788 75.2369 68.0746 68.4447 71.3786C56.4583 77.2117 42.8352 77.0146 31.8324 69.105C30.3657 68.0512 29.0575 66.7457 27.6179 65.6508C28.0353 65.163 29.1039 65.6918 29.7358 65.7601C36.6188 66.5017 43.299 63.8574 49.0265 60.2685C57.5443 54.9331 64.1278 46.9025 74.9084 46.3522C76.8755 46.2527 78.6494 46.7425 80.4369 46.7249C82.7847 46.7015 82.9006 43.8952 80.775 43.4717C75.5325 42.4296 69.6524 43.2961 64.835 45.5228C59.4766 47.9993 55.3066 51.9121 50.5646 55.2648C50.1028 55.5907 48.5724 56.7402 48.1762 56.8592C46.5415 57.351 43.6622 55.2199 42.1627 54.5428L41.6816 54.0022C45.1386 53.5182 48.5105 52.3785 51.5752 50.7021C58.6998 46.801 64.2534 39.2643 72.6475 37.7557C73.6137 37.582 75.2524 37.6015 76.062 37.3186C77.461 36.8307 77.2813 34.5318 75.7277 34.2469C73.1963 33.7824 69.0669 35.248 66.7191 36.2609C66.1935 36.4872 65.3877 37.1059 64.8447 36.9907C64.5935 36.938 63.3259 35.9154 63.0167 35.6734C62.0196 34.8889 60.9027 33.9093 59.9616 33.0486C59.7587 32.8632 57.4631 30.74 57.6641 30.58C60.0235 31.1342 62.408 31.7196 64.8176 32.0338C70.4717 32.7715 76.4349 32.1197 81.9711 33.2828C82.3518 33.3628 84.5122 33.9015 84.5508 34.1532C83.7315 36.6394 83.861 39.1101 85.3315 41.2977C85.7334 41.8949 86.2552 42.3457 86.6996 42.8902L86.7054 42.8882Z" fill="#EDE52C"/>
<path d="M100.989 45.0701C98.9313 47.2305 94.1507 47.6559 91.8512 45.6985C90.7575 44.7677 90.943 44.0963 90.5951 42.904C89.8261 40.2733 86.8831 40.244 87.2328 36.3371C87.3526 35.0042 87.7932 35.2266 88.4212 34.5026C89.0493 33.7786 88.6609 33.2751 89.8589 32.7989C90.9004 32.3833 92.0058 32.5901 92.8193 33.3786C93.571 34.1084 93.4801 34.5944 93.6231 35.4803C93.8666 36.9869 94.7632 36.4971 95.1787 37.065C95.3197 37.2562 95.3313 37.6114 95.4647 37.869C96.0212 38.9521 97.5961 38.9189 98.6569 39.3775C100.854 40.3299 103.109 42.8474 100.991 45.0701H100.989Z" fill="#EBE216"/>
</svg>
