<svg width="138" height="100" viewBox="0 0 138 100" fill="none" xmlns="http://www.w3.org/2000/svg">
<g clip-path="url(#clip0_115_410)">
<path d="M92.8898 11.2451C94.2646 12.8435 95.0169 14.2924 95.9449 16.2002C98.2001 16.3154 100.429 16.8757 102.615 17.4618C107.755 18.8385 114.977 21.2516 117.631 26.4697C120.023 31.1687 120.033 40.8125 117.147 45.2468C116.835 45.7264 115.759 46.804 115.668 47.134C115.282 48.5485 115.755 53.0482 116.202 54.5676C116.963 57.1491 118.347 59.0603 119.629 61.2809C119.908 61.7639 120.154 62.79 120.381 63.0684C120.571 63.3039 122.69 63.9467 123.239 64.1976C130.77 67.6575 134.901 79.4944 129.41 86.3951C124.39 92.7046 113.921 90.1471 108.514 85.6354C108.21 85.7007 106.901 88.4284 106.577 88.9423C101.383 97.1699 91.763 99.4988 83.2745 95.3618C80.9289 94.2188 78.8988 92.6255 76.9918 90.8295C75.9948 91.4912 75.3312 92.4519 74.3358 93.1463C70.4315 95.8705 65.1853 95.9289 60.8819 94.2411C59.7764 93.808 58.7926 93.0552 57.6543 92.7063C56.7361 93.2683 56.1185 94.1277 55.2381 94.7946C47.1339 100.93 31.929 97.9897 27.5681 88.241C26.6844 86.2645 26.4939 84.2347 26.2262 82.0914C22.289 80.1097 17.8788 77.1122 16.1706 72.7002C12.3468 62.8244 23.0331 51.7076 32.2247 57.4602L32.6928 56.9635C33.8524 53.1702 34.7591 49.5282 35.081 45.5493C32.8242 41.7922 31.1028 34.5512 32.6123 30.2767C32.8127 29.7078 33.2759 29.517 33.5683 29.046C34.0594 28.2571 34.2762 27.1572 34.8379 26.2565C36.6119 23.412 40.2944 21.0505 43.2723 19.8869C42.9685 18.9192 41.7415 18.8127 40.9186 18.3177C36.4739 15.6416 34.1924 10.1004 38.7652 6.16279C44.8163 0.955018 60.3037 1.82126 67.8068 2.55344C75.98 3.35094 87.0917 4.50421 92.8898 11.2451ZM98.6272 23.0958C99.7178 24.4244 102.274 25.667 103.916 25.8853C105.964 26.1551 110.719 25.0569 109.857 29.0392C109.614 30.1615 108.28 30.464 107.354 30.5396C101.999 30.9779 96.8434 29.2196 93.9739 24.2714C92.2459 21.2894 92.016 17.3999 89.9579 14.741C86.0717 9.71885 76.6025 8.24418 70.7781 7.51372C63.6298 6.61654 55.9658 6.10091 48.7896 7.20778C45.7755 7.67184 36.8533 9.8976 42.7993 13.9538C46.9746 16.8035 56.9956 16.9547 62.2074 17.8519C65.8259 18.4741 73.7839 20.2049 76.0884 23.2419C77.0558 24.5172 77.1823 26.7928 76.0917 28.0423C73.2074 31.3474 64.1193 30.4967 60.0885 30.8834L55.8377 30.5242C52.845 30.1873 48.7551 31.0329 45.8954 30.4554C43.9145 30.0549 43.7569 27.2328 45.5062 26.5951C45.8527 26.4697 46.4194 26.4301 46.8005 26.4043C54.0522 25.8939 63.2964 27.4459 70.2311 25.8561C70.6106 25.7684 70.9276 25.6292 71.169 25.2958C71.1526 24.6839 64.3837 23.0373 63.4984 22.8534C59.1671 21.958 54.7979 21.6899 50.4337 21.0728C49.9361 21.0024 49.4729 20.7377 48.962 20.7342C48.5317 22.1436 47.9338 22.6386 46.6526 23.1611C44.0509 24.2198 41.6117 25.0586 39.5241 27.2036C34.2713 32.5952 41.0221 37.3132 45.4684 39.4874C56.9431 45.0956 72.7869 45.0595 85.1995 43.7464C92.1359 43.0125 109.01 40.5324 113.177 34.2229C115.498 30.7098 113.753 27.7054 110.701 25.655C107.988 23.8314 101.991 21.8394 98.7816 21.3049C98.3841 21.2395 97.9882 21.2584 97.5907 21.2653C97.5135 21.3358 98.527 22.9686 98.6321 23.0958H98.6272ZM52.6282 46.8401C48.691 45.9636 44.634 44.4115 41.1666 42.2648C40.0661 41.5842 38.7701 40.3467 37.7846 39.7967C37.5875 39.6867 37.4742 39.563 37.2065 39.63C38.2002 44.5869 42.9257 46.3778 46.9631 48.0175C48.6598 47.4743 50.442 47.4125 52.1797 47.1375C52.3226 47.1151 52.6725 47.0618 52.6282 46.8384V46.8401ZM114.813 39.63C114.576 39.6025 114.386 39.618 114.164 39.7228C113.505 40.0322 112.15 41.2284 111.314 41.7183C106.592 44.4889 100.891 45.8897 95.5819 46.8882L94.304 47.5225C95.2896 47.6995 96.2619 47.9487 97.1785 48.3784C98.6337 49.0607 99.2415 50.2381 101.04 49.8531C104.005 49.2189 111.731 45.5373 113.54 43.0245C114.193 42.117 114.731 40.773 114.811 39.63H114.813ZM85.9354 48.3835C84.4423 48.1395 82.987 48.6225 81.5859 48.7239C76.0785 49.1174 70.5317 48.784 65.0095 48.906L56.7312 47.8714C57.899 48.9353 59.3658 49.5746 60.5813 50.6213C61.9002 51.7557 63.3424 53.6463 64.3148 55.1262C64.6679 55.6641 65.7273 57.9689 66.1675 58.0102C67.25 57.5478 68.1911 56.8604 69.3277 56.5011C71.8227 55.7122 73.6394 55.8446 76.1278 56.5011C76.6699 56.6438 77.0903 57.2179 77.7326 56.8861C77.9182 56.7899 79.5607 53.8698 80.0338 53.2837C81.558 51.3931 83.5093 49.9476 85.5724 48.772C85.7711 48.6585 86.0339 48.894 85.9354 48.387V48.3835ZM38.3546 52.6735L41.3046 50.7004C41.3079 50.4151 39.2859 49.1639 39.01 49.3151C38.4942 49.5953 38.3316 52.0393 38.3546 52.6735ZM111.526 50.4477C111.248 50.4117 110.972 50.4288 110.703 50.5217C108.811 51.1713 106.221 52.7869 104.149 53.6205C103.731 53.789 103.073 53.5466 103.187 54.2702C103.218 54.4696 104.36 56.4204 104.512 56.4977C105.164 56.8329 105.633 56.465 106.201 56.453C109.492 56.3791 111.496 58.2422 113.331 60.8324C113.842 61.5542 114.07 62.8141 115.141 62.8003C115.328 62.6009 113.374 58.8747 113.142 58.2852C112.114 55.671 111.721 53.2699 111.528 50.4495L111.526 50.4477ZM101.743 60.5109C100.606 59.423 99.7507 57.0013 98.8013 55.6074C95.3832 50.5938 90.0302 50.7073 85.459 53.9763C84.0744 54.9663 81.898 57.3313 81.4168 59.0174C80.993 60.5041 82.0524 62.7505 79.628 62.9808C77.8443 63.1492 77.864 62.527 76.5877 61.855C74.2537 60.6278 72.0971 60.126 69.6415 61.4597C67.8889 62.4102 66.8935 64.4537 64.4511 63.395C63.0664 62.7934 60.422 57.1904 59.0258 55.5593C52.9879 48.509 43.8111 53.2132 38.6798 58.9366C37.5744 60.1706 36.1388 62.8605 34.5833 63.2334C32.315 63.7765 31.5332 62.2727 29.8036 61.3652C23.7213 58.1717 17.5733 66.0247 20.8305 71.9543C22.7226 75.3986 26.1112 76.4041 29.0562 78.281C31.9126 80.1028 30.5394 82.2186 31.185 84.9806C33.0755 93.0707 46.4194 95.4563 52.5165 91.0907C54.1229 89.9409 55.2973 87.2132 57.3061 87.2132C58.7351 87.2132 60.2314 88.8031 61.5422 89.439C64.8732 91.0529 69.3163 91.278 72.3566 88.8942C73.8381 87.734 74.7711 84.7417 76.8325 84.7589C78.5538 84.7726 80.1044 87.5793 81.4299 88.7171C89.2746 95.4529 99.2973 93.6757 104.013 84.202C104.603 83.0178 105.33 80.2661 106.534 79.802C109.039 78.8344 110.358 81.2097 112.139 82.5125C114.455 84.2054 118.751 85.9895 121.586 85.5925C130.228 84.3859 128.26 72.5232 122.309 68.9551C119.139 67.0542 117.074 67.7159 113.743 67.4461C109.637 67.1126 110.304 61.1091 106.194 61.2534C104.489 61.3136 103.22 61.9272 101.746 60.5161L101.743 60.5109Z" fill="#422B55"/>
<path d="M19.0992 92.091C16.1427 95.0472 10.8258 95.0696 8.07619 91.8143C2.65421 85.3965 8.69871 75.7785 16.4843 78.7278C21.6402 80.6803 23.0232 88.1689 19.0992 92.091ZM11.4976 88.8357C12.3993 89.671 14.1273 89.824 15.2031 89.3015C18.3863 87.7564 16.8358 81.6428 12.5997 83.145C10.333 83.9494 9.69573 87.1634 11.4976 88.8357Z" fill="#422B55"/>
<path d="M17.3155 39.5045C23.7131 39.367 27.2413 47.562 22.8311 52.4844C17.6916 58.2198 8.69219 52.9777 10.3347 45.4187C11.0131 42.2975 14.2587 39.5715 17.3155 39.5045ZM16.9853 44.3084C14.9946 44.5868 13.9581 47.0016 15.0833 48.7823C17.1939 52.1235 21.6041 49.169 20.0421 45.826C19.4935 44.6521 18.1663 44.1434 16.9853 44.3084Z" fill="#422B55"/>
<path d="M121.437 53.2476C122.365 52.005 124.697 50.7692 126.202 50.9737C126.675 51.0373 127.01 51.3381 127.403 51.4344C128.426 51.6836 128.636 51.3501 129.658 52.1648C133.12 54.9268 132.695 60.8479 128.708 62.8347C122.966 65.6982 117.544 58.4606 121.435 53.2476H121.437ZM126.094 55.6246C123.906 55.8223 124.27 59.1395 126.54 58.6788C128.097 58.3626 127.606 55.4871 126.094 55.6246Z" fill="#422B55"/>
<path d="M101.743 60.5109C103.216 61.922 104.486 61.3084 106.191 61.2482C110.302 61.1039 109.634 67.1074 113.74 67.4408C117.071 67.7107 119.136 67.049 122.306 68.9499C128.257 72.518 130.224 84.3807 121.583 85.5873C118.748 85.9826 114.451 84.1985 112.135 82.5073C110.353 81.2062 109.034 78.8292 106.531 79.7968C105.327 80.2609 104.599 83.0143 104.01 84.1968C99.2956 93.6705 89.2713 95.4477 81.4265 88.7119C80.1027 87.5741 78.5505 84.7674 76.8291 84.7537C74.7677 84.7365 73.8348 87.7288 72.3532 88.889C69.3112 91.2728 64.8682 91.0477 61.5388 89.4338C60.2264 88.7979 58.7301 87.208 57.3027 87.208C55.2939 87.208 54.1195 89.9357 52.5131 91.0855C46.416 95.4511 33.0721 93.0672 31.1816 84.9754C30.5361 82.2151 31.9092 80.0976 29.0529 78.2758C26.1078 76.3972 22.7193 75.3934 20.8271 71.9491C17.57 66.0195 23.7179 58.1665 29.8002 61.36C31.5298 62.2675 32.3116 63.7713 34.58 63.2282C36.1355 62.8553 37.571 60.1654 38.6764 58.9314C43.8077 53.208 52.9862 48.5038 59.0224 55.5541C60.4186 57.1851 63.0631 62.7882 64.4477 63.3898C66.8902 64.4502 67.8855 62.4067 69.6381 61.4545C72.0937 60.1208 74.2503 60.6226 76.5844 61.8498C77.8623 62.5218 77.8409 63.144 79.6247 62.9756C82.0491 62.747 80.9896 60.4989 81.4134 59.0122C81.8947 57.3261 84.071 54.9611 85.4557 53.9711C90.0285 50.7021 95.3798 50.5886 98.7979 55.6022C99.7473 56.9961 100.603 59.4161 101.74 60.5057L101.743 60.5109Z" fill="#21A9AB"/>
<path d="M98.6271 23.0958C98.522 22.9686 97.5086 21.3358 97.5858 21.2653C97.9833 21.2584 98.3791 21.2395 98.7766 21.3048C101.988 21.8394 107.983 23.8331 110.696 25.655C113.748 27.7054 115.493 30.708 113.172 34.2229C109.005 40.5323 92.1309 43.0125 85.1945 43.7464C72.7836 45.0595 56.9398 45.0956 45.4634 39.4873C41.0171 37.3149 34.2663 32.5952 39.5191 27.2035C41.6068 25.0603 44.0459 24.2215 46.6477 23.1611C47.9289 22.6403 48.5267 22.1436 48.9571 20.7342C49.4696 20.7394 49.9327 21.0023 50.4288 21.0728C54.7913 21.6898 59.1621 21.9597 63.4935 22.8534C64.3788 23.0356 71.1476 24.6839 71.1641 25.2957C70.9226 25.6292 70.6056 25.7684 70.2262 25.856C63.2914 27.4459 54.0456 25.8921 46.7955 26.4043C46.4144 26.4318 45.8478 26.4696 45.5012 26.5951C43.7519 27.2328 43.9096 30.0549 45.8905 30.4554C48.7501 31.0329 52.84 30.1873 55.8327 30.5241L60.0836 30.8833C64.116 30.4949 73.2024 31.3474 76.0867 28.0423C77.1774 26.7928 77.0509 24.5171 76.0834 23.2418C73.779 20.2048 65.8209 18.4741 62.2024 17.8519C56.9907 16.9547 46.9696 16.8017 42.7943 13.9538C36.8467 9.89586 45.7706 7.67182 48.7846 7.20776C55.9608 6.10089 63.6265 6.61651 70.7731 7.51369C76.5959 8.24416 86.0667 9.71883 89.9529 14.741C92.011 17.3999 92.2393 21.2894 93.9689 24.2714C96.8384 29.2196 101.994 30.9779 107.349 30.5396C108.275 30.464 109.609 30.1615 109.852 29.0391C110.715 25.0568 105.959 26.1568 103.911 25.8853C102.27 25.6687 99.7129 24.4243 98.6222 23.0958H98.6271Z" fill="#EDE52C"/>
<path d="M85.9354 48.3835C86.0339 48.8888 85.7728 48.6534 85.5724 48.7685C83.5093 49.9442 81.5597 51.3896 80.0338 53.2802C79.5607 53.8663 77.9182 56.7864 77.7326 56.8827C77.0903 57.2144 76.6699 56.6403 76.1278 56.4977C73.6394 55.8429 71.8244 55.7105 69.3278 56.4977C68.1911 56.8569 67.25 57.5444 66.1675 58.0067C65.7273 57.9655 64.6679 55.6607 64.3148 55.1227C63.3424 53.6429 61.9002 51.754 60.5813 50.6179C59.3658 49.5712 57.899 48.9318 56.7312 47.8679L65.0095 48.9026C70.5301 48.7806 76.0785 49.1157 81.5859 48.7204C82.987 48.6207 84.4423 48.1378 85.9354 48.3801V48.3835Z" fill="#EDE52C"/>
<path d="M114.813 39.63C114.732 40.7712 114.195 42.1153 113.541 43.0245C111.733 45.5356 104.006 49.2188 101.042 49.853C99.2431 50.238 98.6354 49.0607 97.1801 48.3783C96.2636 47.9487 95.2912 47.7012 94.3057 47.5224L95.5836 46.8882C100.891 45.8896 106.592 44.4888 111.316 41.7182C112.152 41.2284 113.508 40.0322 114.165 39.7228C114.386 39.6197 114.578 39.6025 114.814 39.63H114.813Z" fill="#EDE52C"/>
<path d="M111.526 50.4477C111.72 53.2682 112.112 55.6693 113.141 58.2835C113.372 58.873 115.327 62.5992 115.14 62.7986C114.07 62.8123 113.842 61.5542 113.329 60.8306C111.495 58.2388 109.491 56.3757 106.199 56.4513C105.631 56.4633 105.163 56.8311 104.511 56.496C104.36 56.4186 103.216 54.4679 103.185 54.2685C103.072 53.5466 103.729 53.7872 104.148 53.6188C106.219 52.7852 108.809 51.1713 110.701 50.5199C110.971 50.4271 111.245 50.4099 111.524 50.446L111.526 50.4477Z" fill="#EDE52C"/>
<path d="M52.6281 46.8401C52.6725 47.0619 52.3226 47.1169 52.1797 47.1392C50.4419 47.4142 48.6598 47.4761 46.963 48.0192C42.9257 46.3795 38.2002 44.5869 37.2064 39.6318C37.4725 39.5647 37.5858 39.6885 37.7846 39.7985C38.7701 40.3485 40.0661 41.586 41.1666 42.2666C44.6339 44.4116 48.6893 45.9636 52.6281 46.8419V46.8401Z" fill="#EDE52C"/>
<path d="M38.3546 52.6735C38.3299 52.0393 38.4925 49.5953 39.0099 49.3151C39.2859 49.1656 41.3078 50.4151 41.3045 50.7004L38.3546 52.6735Z" fill="#EDE52C"/>
<path d="M11.4976 88.8357C9.69577 87.1634 10.3331 83.9493 12.5998 83.1449C16.8358 81.641 18.3864 87.7563 15.2032 89.3015C14.1273 89.824 12.3994 89.6727 11.4976 88.8357Z" fill="#21A9AB"/>
<path d="M16.9853 44.3085C18.1663 44.1435 19.4934 44.6539 20.042 45.8261C21.6041 49.169 17.1939 52.1253 15.0832 48.7823C13.9581 47 14.9945 44.5869 16.9853 44.3085Z" fill="#21A9AB"/>
<path d="M126.093 55.6245C127.606 55.487 128.096 58.3625 126.54 58.6787C124.27 59.1393 123.906 55.8239 126.093 55.6245Z" fill="#21A9AB"/>
</g>
<defs>
<clipPath id="clip0_115_410">
<rect width="126" height="96" fill="white" transform="translate(6 2)"/>
</clipPath>
</defs>
</svg>
