<svg width="138" height="100" viewBox="0 0 138 100" fill="none" xmlns="http://www.w3.org/2000/svg">
<g clip-path="url(#clip0_115_430)">
<path d="M99.4178 38.7227C95.7429 34.3966 90.5678 32.61 89.0358 26.6926C87.7034 21.5465 88.1766 15.486 84.5957 11.138C80.9829 6.74966 76.2894 6.95005 71.1177 6.67052C68.2634 6.5156 65.2362 6.57959 62.4004 6.33878C53.2434 5.55912 47.2326 2.37983 39.7688 9.86832C36.7466 12.9011 34.9276 16.8769 32.3871 20.2835C29.1552 24.618 23.4029 28.7588 22.3139 34.2181C20.5687 42.9612 26.6465 50.6753 27.6097 58.903C28.4991 66.5077 24.6715 76.022 35.4327 77.6218C38.2971 78.0478 41.4384 77.4517 44.1417 77.7935C44.3246 77.8171 44.5176 77.7784 44.6434 77.9636C45.021 78.5058 44.9404 85.1406 44.8951 86.3008C44.818 88.2845 44.2441 90.9535 44.3884 92.8496C44.6048 95.6736 47.674 94.8754 49.6708 94.9462C55.0405 95.1364 60.3716 94.7761 65.7447 94.6094C69.5186 94.4932 72.5508 94.6616 76.318 94.121C77.3097 93.9796 78.7058 94.3315 79.0397 92.816C79.1387 92.3697 79.2193 91.1977 79.2495 90.6723C79.3619 88.6735 78.9323 86.6393 79.7848 84.7347C87.351 83.7109 93.1 78.3307 97.3102 72.3072C103.445 63.5255 106.922 47.5533 99.4228 38.7227H99.4178ZM115.545 16.7068C116.24 15.976 116.138 14.5766 115.252 14.0075C113.909 13.1453 111.998 13.8576 110.499 13.3962C104.975 13.866 98.4714 12.7916 93.0647 13.4029C90.7994 13.6589 90.5544 16.6479 93.402 16.9325C96.201 17.212 99.7366 17.0251 102.624 17.0958C106.323 17.1867 110.501 17.6279 114.188 17.2794C114.669 17.2339 115.203 17.0689 115.545 16.7085V16.7068ZM109.852 23.8821C109.608 23.7036 108.471 23.3853 108.127 23.3415C105.403 23.0014 102.504 23.2405 99.7601 23.1614C97.9092 23.1075 94.4541 22.4272 92.8097 23.0671C91.3917 23.6194 91.1786 25.6081 92.5831 26.3272C93.345 26.7162 94.8334 26.4636 95.7529 26.5107C97.7582 26.6134 99.7752 26.5848 101.785 26.6791C103.865 26.7751 106.568 27.4318 108.649 27.191C110.379 26.9907 111.219 24.8824 109.852 23.8821Z" fill="white"/>
<path d="M99.4177 38.7226C106.917 47.5515 103.44 63.5254 97.3051 72.3071C93.0966 78.3323 87.346 83.7108 79.7797 84.7346C78.9273 86.6392 79.3569 88.6734 79.2444 90.6722C79.2142 91.1976 79.1337 92.3696 79.0347 92.8159C78.7007 94.3314 77.3046 93.9795 76.3129 94.1209C72.5457 94.6615 69.5135 94.4931 65.7396 94.6093C60.3666 94.776 55.0371 95.1363 49.6657 94.9461C47.6689 94.8753 44.5981 95.6735 44.3833 92.8495C44.239 90.9534 44.8129 88.2844 44.8901 86.3007C44.9354 85.1405 45.0176 78.5057 44.6384 77.9635C44.5125 77.7783 44.3212 77.817 44.1366 77.7934C41.4333 77.4516 38.292 78.046 35.4276 77.6217C24.6664 76.0236 28.494 66.5076 27.6047 58.9029C26.6431 50.6752 20.5636 42.9611 22.3088 34.218C23.3995 28.7587 29.1501 24.6179 32.3837 20.2834C34.9242 16.8768 36.7432 12.901 39.7654 9.86822C47.2326 2.37805 53.245 5.55733 62.4003 6.337C65.2362 6.5778 68.2634 6.5155 71.1177 6.66873C76.2894 6.94827 80.9829 6.74788 84.5957 11.1362C88.1766 15.4859 87.7017 21.5447 89.0357 26.6908C90.5678 32.6082 95.7445 34.3948 99.4177 38.7209V38.7226ZM75.051 52.0746C75.3497 52.2867 76.1803 51.0339 76.3582 50.783C78.4339 47.8664 80.1338 43.8957 83.4848 42.1292C87.3141 40.1101 92.6284 41.1643 91.7961 46.4334C91.4773 48.4558 86.6445 55.4795 85.3743 57.9818C82.2515 64.135 79.622 71.9501 79.231 78.888C79.1454 80.4018 79.1505 80.7167 80.7899 80.4524C87.4852 79.3679 94.7864 70.15 97.2464 64.1771C99.26 59.2903 100.29 52.0207 99.1023 46.856C97.2044 38.5997 88.7354 37.2946 85.8223 29.9156C83.6912 24.5168 84.9212 14.1606 78.6991 11.6734C74.5996 10.0349 67.2515 10.7742 62.5665 10.3751C57.977 9.98442 50.691 7.94685 46.5832 9.81097C41.0256 12.3318 37.3507 20.8442 33.3133 25.544C28.5091 31.1381 24.611 32.8439 26.4972 41.3546C27.848 47.4488 31.241 53.122 31.6537 59.5529C31.8719 62.9528 31.1856 67.4085 31.6873 70.6165C31.783 71.2277 32.2847 72.1691 32.7294 72.5968C34.3688 74.1729 41.3712 74.5131 43.6315 74.2723C44.6719 74.1612 44.5813 73.6257 44.5494 72.6776C44.3682 67.1795 42.8949 60.8849 42.2254 55.3347C41.7622 51.4869 41.5105 47.6205 41.1967 43.7559C40.8443 39.4147 39.3005 30.8603 43.0409 27.7786C44.3061 26.7363 45.6586 26.7649 47.1588 26.5292C47.3014 23.0434 47.6202 16.6377 52.3405 16.5855C53.1258 16.5771 53.9699 16.8162 54.7468 16.9172C56.0708 14.6119 57.6549 13.5695 60.39 13.903C62.1033 14.1118 63.33 15.9708 64.3284 17.1951C64.6623 17.3584 65.0902 16.8886 65.4527 16.8061C70.8375 15.5616 72.4299 22.9424 73.0172 26.7902C74.1113 33.9587 73.6482 41.2771 74.5443 48.4625C74.6919 49.6396 74.6517 50.8907 75.0493 52.0762L75.051 52.0746ZM77.6587 55.0316C76.3951 56.1396 74.9889 56.4697 73.3092 56.2608C71.0774 55.983 70.9365 52.6538 70.6948 50.8133C69.7082 43.2979 70.3626 35.3412 69.3323 27.8005C69.0839 25.9802 68.4664 22.3041 67.317 20.9115C66.6776 20.1369 65.7816 20.4299 65.6574 21.3813C65.4342 23.0939 66.0635 24.8957 66.1675 26.6049C66.2749 28.3663 66.092 30.2204 66.1625 31.9902C66.3236 36.0737 66.7431 40.1573 66.3353 44.256C66.0333 47.2871 62.7762 47.0918 62.3903 44.3503C62.0261 37.2323 62.798 29.9913 61.7946 22.9205C61.5714 21.3477 59.8883 15.3191 58.0358 19.1131C56.9434 21.3493 57.1347 27.7955 57.2823 30.4746C57.4803 34.0833 58.1197 37.7796 58.2925 41.4C58.3764 43.1699 58.8312 46.6034 56.1044 45.9484C54.4263 45.5459 54.9146 43.7441 54.7737 42.5771C54.2115 37.9598 53.6091 32.9298 53.4296 28.2889C53.3373 25.8842 53.5135 23.4576 53.4363 21.0513C53.3675 20.4451 52.5838 20.6135 52.119 20.6589C51.3673 22.2385 51.1558 24.0049 51.082 25.7529C50.8202 31.9127 52.1543 38.1281 52.2701 44.2493C52.2969 45.684 52.6073 48.7437 50.5215 48.6966C48.4357 48.6494 48.8838 46.8948 48.7428 45.6032C48.4341 42.8061 48.1421 39.9754 47.9088 37.1919C47.7327 35.092 47.8384 32.977 47.3719 30.9226C45.7861 30.3214 45.0193 31.1903 44.7625 32.6957C44.1652 36.1983 44.8951 42.0871 45.2274 45.7682C46.0412 54.7941 47.9239 64.0137 48.4072 73.011C48.5952 76.5052 47.9676 80.9862 48.4005 84.2833C48.4727 84.834 48.6002 84.967 49.1539 85.0394C52.859 85.5278 57.5575 84.1873 61.4019 84.7026C65.5852 83.9735 70.7083 85.0815 74.8094 84.5359C76.0058 84.3759 75.3967 83.5239 75.3816 82.7695C75.1601 71.7683 78.048 62.584 83.4043 53.1405C84.0755 51.9584 87.8913 46.3205 87.8947 45.6032C87.8947 45.423 87.7554 45.2209 87.6245 45.0963C87.3862 44.9532 86.9869 44.9818 86.7117 45.0222C82.6995 45.6099 80.4644 52.5747 77.6637 55.0299L77.6587 55.0316ZM64.6254 88.4444C59.3816 88.4949 54.089 88.6532 48.8234 88.5622C48.179 88.6431 48.0817 90.9618 48.3955 91.1808C51.0283 91.2835 53.7215 91.2936 56.3728 91.2616C61.7727 91.1959 67.567 91.0646 72.9635 90.7564C73.4317 90.7295 75.2239 90.5729 75.4034 90.3455L75.5309 88.6717L75.2792 88.4191C71.7285 88.3484 68.1761 88.4107 64.6271 88.4444H64.6254Z" fill="#422B55"/>
<path d="M115.545 16.7068C115.201 17.0672 114.669 17.2322 114.188 17.2777C110.501 17.6263 106.321 17.1851 102.624 17.0941C99.7365 17.0234 96.2009 17.2103 93.402 16.9308C90.5543 16.6462 90.7993 13.6589 93.0647 13.4012C98.4713 12.79 104.975 13.8643 110.499 13.3945C111.998 13.8559 113.909 13.1436 115.252 14.0058C116.138 14.575 116.24 15.9743 115.545 16.7051V16.7068Z" fill="#422B55"/>
<path d="M109.852 23.882C111.219 24.8823 110.379 26.9906 108.649 27.191C106.568 27.4318 103.864 26.7767 101.785 26.6791C99.7751 26.5848 97.7581 26.6134 95.7529 26.5107C94.835 26.4635 93.3449 26.7178 92.5831 26.3271C91.1802 25.6081 91.3917 23.6193 92.8096 23.067C94.4541 22.4254 97.9091 23.1074 99.76 23.1613C102.504 23.2404 105.403 23.0013 108.127 23.3415C108.471 23.3836 109.608 23.7035 109.852 23.882Z" fill="#422B55"/>
<path d="M75.0509 52.0747C74.6532 50.8892 74.6918 49.638 74.5458 48.4609C73.6498 41.2772 74.1129 33.9571 73.0188 26.7886C72.4315 22.9408 70.8391 15.56 65.4543 16.8045C65.0918 16.8887 64.6622 17.3585 64.33 17.1935C63.3316 15.9692 62.1049 14.1102 60.3916 13.9014C57.6564 13.5679 56.0724 14.6103 54.7484 16.9156C53.9715 16.8146 53.1274 16.5738 52.3421 16.5839C47.6218 16.6378 47.303 23.0418 47.1604 26.5276C45.6602 26.7633 44.3094 26.7347 43.0425 27.777C39.3021 30.8587 40.8459 39.4131 41.1983 43.7543C41.5121 47.6189 41.7638 51.4853 42.2269 55.3331C42.8965 60.8834 44.3698 67.1779 44.551 72.676C44.5829 73.6241 44.6735 74.1596 43.6331 74.2707C41.3745 74.5132 34.3721 74.1714 32.731 72.5952C32.2846 72.1675 31.7845 71.2261 31.6889 70.6149C31.1872 67.407 31.8735 62.9512 31.6553 59.5514C31.2425 53.1204 27.8496 47.4472 26.4987 41.353C24.6126 32.8423 28.509 31.1382 33.3149 25.5425C37.3523 20.8409 41.0271 12.3302 46.5848 9.80938C50.6926 7.94694 57.9786 9.98283 62.568 10.3735C67.2531 10.7726 74.6012 10.035 78.7006 11.6718C84.9228 14.159 83.6928 24.5153 85.8239 29.914C88.737 37.293 97.206 38.5981 99.1038 46.8544C100.292 52.0191 99.2616 59.2887 97.2479 64.1755C94.7863 70.1467 87.4868 79.3663 80.7915 80.4508C79.152 80.7168 79.1487 80.4003 79.2326 78.8864C79.6219 71.9486 82.253 64.1334 85.3759 57.9802C86.6461 55.4779 91.4772 48.4542 91.7977 46.4318C92.63 41.1627 87.3157 40.1086 83.4864 42.1276C80.1337 43.8957 78.4338 47.8648 76.3598 50.7814C76.1819 51.0323 75.3513 52.2852 75.0526 52.073L75.0509 52.0747Z" fill="#21A9AB"/>
<path d="M77.6587 55.0316C80.461 52.5764 82.6961 45.6117 86.7066 45.024C86.9818 44.9835 87.3795 44.9549 87.6195 45.0981C87.7503 45.2227 87.8896 45.4231 87.8896 45.6049C87.8863 46.3223 84.0704 51.9601 83.3992 53.1423C78.0429 62.5858 75.155 71.77 75.3765 82.7712C75.3916 83.5256 76.0008 84.3777 74.8043 84.5377C70.7032 85.0833 65.5802 83.9752 61.3969 84.7044C57.5525 84.1891 52.854 85.5312 49.1489 85.0412C48.5935 84.9671 48.4676 84.834 48.3955 84.2851C47.9625 80.9896 48.5884 76.507 48.4022 73.0128C47.9189 64.0138 46.0361 54.7959 45.2223 45.7699C44.8901 42.0889 44.1601 36.1984 44.7575 32.6975C45.0142 31.1921 45.7811 30.3231 47.3668 30.9243C47.8333 32.9787 47.7293 35.0938 47.9038 37.1936C48.137 39.9772 48.429 42.8079 48.7378 45.6049C48.8804 46.8982 48.4592 48.6529 50.5165 48.6983C52.5738 48.7438 52.2919 45.6858 52.265 44.251C52.1492 38.1299 50.8169 31.9128 51.077 25.7546C51.1508 24.0067 51.3639 22.2402 52.114 20.6607C52.5788 20.6152 53.3624 20.4468 53.4312 21.053C53.5084 23.4594 53.3306 25.886 53.4245 28.2906C53.6041 32.9316 54.2082 37.9615 54.7686 42.5789C54.9113 43.7459 54.4213 45.5477 56.0993 45.9501C58.8261 46.6035 58.373 43.1699 58.2875 41.4018C58.1146 37.7813 57.4753 34.0851 57.2773 30.4764C57.1313 27.7972 56.9383 21.3511 58.0307 19.1148C59.8833 15.3192 61.5663 21.3477 61.7895 22.9222C62.793 29.9931 62.0211 37.234 62.3852 44.3521C62.7712 47.0935 66.0282 47.2889 66.3303 44.2578C66.738 40.1607 66.3185 36.0755 66.1574 31.9919C66.087 30.2204 66.2699 28.3681 66.1625 26.6067C66.0584 24.8975 65.4292 23.0973 65.6523 21.3831C65.7765 20.43 66.6726 20.1387 67.3119 20.9133C68.4614 22.3059 69.0789 25.9836 69.3272 27.8023C70.3575 35.343 69.7031 43.3013 70.6898 50.815C70.9314 52.6556 71.0724 55.9847 73.3042 56.2626C74.9839 56.4714 76.3901 56.1414 77.6536 55.0333L77.6587 55.0316ZM61.7778 77.684C60.3212 77.7463 58.4771 77.844 57.039 77.9737C54.2921 78.2229 53.9883 81.2691 56.5272 81.5083C58.811 81.7221 62.5765 81.5419 64.9107 81.3314C65.5835 81.2708 67.2549 81.0991 67.8019 80.87C68.9698 80.3817 68.9648 78.2313 67.8019 77.7615C66.9428 77.4163 62.9625 77.6318 61.7778 77.6823V77.684Z" fill="#EDE52C"/>
<path d="M64.6254 88.4444C68.1744 88.4107 71.7268 88.3467 75.2775 88.4191L75.5292 88.6717L75.4017 90.3455C75.2238 90.5746 73.43 90.7295 72.9619 90.7564C67.5653 91.0646 61.7727 91.1942 56.3711 91.2616C53.7199 91.2936 51.0266 91.2852 48.3938 91.1808C48.08 90.9619 48.1773 88.6448 48.8217 88.5622C54.0873 88.6549 59.3799 88.4949 64.6237 88.4444H64.6254Z" fill="#EDE52C"/>
<path d="M61.7778 77.684C62.9608 77.6335 66.9428 77.4163 67.8019 77.7631C68.9648 78.2313 68.9698 80.3817 67.8019 80.8717C67.2549 81.1007 65.5836 81.2725 64.9107 81.3331C62.5765 81.5436 58.811 81.7238 56.5272 81.5099C53.9884 81.2725 54.2921 78.2245 57.039 77.9753C58.4771 77.8457 60.3196 77.748 61.7778 77.6857V77.684Z" fill="#422B55"/>
</g>
<defs>
<clipPath id="clip0_115_430">
<rect width="94" height="90" fill="white" transform="translate(22 5)"/>
</clipPath>
</defs>
</svg>
