<svg width="138" height="100" viewBox="0 0 138 100" fill="none" xmlns="http://www.w3.org/2000/svg">
<path d="M88.9088 34.6024C94.1359 40.8953 102.184 43.4411 108.327 48.5797C110.361 50.2812 111.265 51.8512 112.871 53.8141C113.142 54.145 113.686 54.3236 113.976 54.7786C114.599 55.7582 115.295 60.3007 115.395 61.6263C115.816 67.2386 115.312 70.8655 113.261 76.0172C108.172 88.8006 98.0553 99.0946 83.274 97.9514C71.5158 97.0414 64.83 84.9236 58.2989 76.8369C49.7449 66.2459 34.1616 60.9231 28.5589 48.2676C25.3793 41.0834 27.7475 33.7525 30.5687 26.8541C34.1031 18.2147 39.0528 13.0536 48.3088 10.7353C58.6367 8.15006 70.1835 8.30423 77.8072 16.6541C82.5739 21.8754 84.4213 29.2006 88.9069 34.6024H88.9088ZM72.6235 18.2523V21.4448C72.6235 21.5295 71.9894 22.7553 71.8762 22.9527C68.9305 28.127 61.5295 25.9761 60.9426 20.3167C60.5841 16.8403 61.7805 15.9735 64.1431 13.8433C58.1215 13.1908 52.0282 13.9504 46.3218 15.8983C46.0368 16.2631 47.4049 17.4833 47.6823 17.9439C50.9809 23.4059 44.7366 29.6518 39.2812 26.5025C38.381 25.9836 37.9206 25.0774 37.011 24.7314C35.0259 30.8063 37.7979 36.6029 41.7249 41.1529C42.0872 41.5741 44.3724 43.9807 44.7385 43.8002C48.4485 37.5712 58.4782 42.1983 54.8701 48.8184C54.3606 49.7529 53.636 50.2681 53.0378 51.0822L57.6441 55.1415C58.1404 55.3333 58.0762 53.6844 58.1574 53.408C58.9367 50.725 61.3635 48.7169 64.1318 48.2826C73.3217 46.8424 76.7712 60.7388 66.4849 63.2075C66.0301 63.3165 65.4093 63.012 65.0828 63.5046C68.4776 68.598 69.8986 74.9981 74.6917 79.0857C79.0282 82.784 85.7762 85.3015 91.4299 83.7429C95.6965 82.5678 103.154 76.9328 105.596 73.2627C105.813 72.9375 106.6 71.6721 106.164 71.3863C96.4041 69.5663 100.927 55.2543 110.117 60.5903C110.325 57.1608 108.149 53.9438 105.502 51.9546C103.981 55.0907 101.709 56.311 98.2082 55.8428C93.6019 55.228 91.2298 48.277 95.2304 45.4755C92.0866 43.1271 88.7974 41.0721 86.2008 38.0958C85.731 37.5561 83.6571 34.5892 83.4495 34.5008C83.3646 34.4651 82.9853 34.4219 82.9853 34.5873C83.2231 39.5209 79.7415 42.8846 74.7917 42.3769C71.9196 42.0817 68.3172 38.9061 68.2889 35.9016C68.2814 35.0499 68.4342 32.7071 68.6362 31.9287C69.5684 28.315 74.6766 26.8598 77.945 27.7829C78.6828 27.9916 79.2055 28.6271 79.9717 28.6723C78.4715 24.7145 76.1183 20.9635 73.0009 18.0643L72.6235 18.2542V18.2523ZM65.7056 21.4824C67.7115 22.9791 69.7967 19.6756 67.9096 18.256C66.9416 17.5284 64.6167 17.9891 64.7451 19.3315C64.7866 19.7734 65.3546 21.2211 65.7056 21.4824ZM41.674 18.3745C39.9869 19.403 39.2113 20.2904 40.4342 22.165C42.2533 24.9551 46.3633 21.8904 43.5119 19.4744C43.2496 19.2525 41.8815 18.3256 41.674 18.3745ZM78.0224 37.6182C79.8905 35.8489 78.6413 31.9513 76.1145 31.673C73.033 31.3346 72.214 33.6078 72.6348 36.2663C72.9556 38.2875 76.4636 39.096 78.0224 37.6182ZM32.8633 34.3053C32.4312 34.2263 32.5633 34.3354 32.4463 34.546C31.9443 35.4372 31.0838 38.6166 30.98 39.6544C29.7006 52.4284 48.7108 61.4401 56.7062 68.6581C66.985 77.9369 73.2462 97.7596 90.9015 93.1664C98.3969 91.2166 104.852 84.29 107.859 77.386L107.485 76.9234C106.628 78.1907 105.258 79.5313 104.092 80.5879C96.2966 87.648 88.471 90.7804 78.1771 86.315C65.7244 80.9132 65.9924 70.3917 57.912 61.4928C49.7241 52.4735 36.7827 46.6036 32.8595 34.3053H32.8633ZM47.8559 46.7728C48.0786 47.0304 48.8315 47.8031 49.0731 47.916C50.2695 48.4763 52.5943 46.4739 51.0205 45.2217C49.777 44.2327 48.2239 45.5582 47.5559 46.6017C47.5521 46.7371 47.7672 46.6732 47.854 46.7728H47.8559ZM97.876 46.8856C97.61 48.3634 96.5796 50.3019 98.0515 51.4977C99.7669 52.8909 102.379 51.0371 101.505 49.1832C101.169 48.4706 98.5969 47.4384 97.8779 46.8875L97.876 46.8856ZM67.4718 53.3346C65.3074 51.3416 61.6314 53.2688 62.0862 56.1681C62.4429 58.4487 64.7885 59.5919 66.8831 58.5315C68.8041 57.5594 69.0117 54.7523 67.4718 53.3346ZM108.157 64.4259C107.711 64.1062 106.934 63.5008 106.4 63.4406C104.492 63.2225 104.124 66.8626 106.111 67.3119C106.949 67.5018 107.749 66.9904 108.625 67.248C109.091 67.0826 109.483 65.8774 109.376 65.4186C109.359 65.3415 108.338 64.5556 108.157 64.4259Z" fill="#422B55"/>
<path d="M98.5875 2.06584C109.846 0.567331 116.177 15.6314 107.196 23.0355C97.8666 30.7292 84.3666 21.2287 88.3257 9.86484C89.2239 7.28523 92.5319 3.25223 95.3417 2.77467C96.5192 2.57537 97.6081 2.19557 98.5875 2.06584ZM94.3605 8.27421C88.4917 13.7493 94.0774 23.4041 101.726 21.1516C108.753 19.0815 108.985 9.14849 102.25 6.75878C101.197 6.38462 99.0649 6.12516 97.9591 6.16652C97.4741 6.18532 94.8115 7.85493 94.3623 8.27421H94.3605Z" fill="#422B55"/>
<path d="M118.722 28.9281C122.44 32.6377 120.826 39.4233 115.958 41.1549C108.817 43.6931 103.201 35.2643 108.055 29.5241C109.429 27.8977 111.246 26.9031 113.425 27.1663C114.51 27.2979 114.465 27.375 115.69 27.3525C116.679 27.3337 118.041 28.2474 118.722 28.9281ZM115.709 31.9307C115.552 31.7634 114.163 30.7725 114.022 30.7744C111.657 31.3403 109.648 33.3672 110.931 35.8471C112.973 39.7918 118.754 35.191 115.709 31.9307Z" fill="#422B55"/>
<path d="M26.7594 6.0472C29.139 5.88174 32.2545 7.82397 32.8848 10.1686C34.0226 14.4065 31.377 18.4132 26.8877 18.4132C21.5945 18.4132 18.7262 11.7818 22.4607 7.97627C23.0023 7.42538 25.9706 6.10173 26.7594 6.0472ZM28.2426 10.7571C26.1763 9.16267 24.1213 12.1371 25.6705 13.5999C27.6086 15.4293 30.1542 12.2311 28.2426 10.7571Z" fill="#422B55"/>
<path d="M72.6235 18.2524L73.0009 18.0625C76.1183 20.9617 78.4715 24.7127 79.9717 28.6705C79.2056 28.6254 78.6828 27.9899 77.945 27.7812C74.6785 26.858 69.5684 28.3114 68.6362 31.927C68.4362 32.7054 68.2814 35.0481 68.289 35.8998C68.3173 38.9043 71.9197 42.08 74.7917 42.3752C79.7415 42.8847 83.2231 39.521 82.9853 34.5855C82.9853 34.4201 83.3646 34.4633 83.4495 34.4991C83.6571 34.5874 85.731 37.5544 86.2009 38.094C88.7974 41.0703 92.0866 43.1253 95.2304 45.4737C91.228 48.2733 93.6019 55.2243 98.2082 55.841C101.709 56.3092 103.983 55.089 105.502 51.9528C108.149 53.942 110.325 57.1572 110.117 60.5885C100.927 55.2507 96.4042 69.5626 106.164 71.3845C106.6 71.6722 105.813 72.9357 105.596 73.2609C103.154 76.9311 95.6965 82.566 91.4299 83.7411C85.7744 85.2979 79.0282 82.7822 74.6917 79.0839C69.8986 74.9964 68.4777 68.5962 65.0829 63.5028C65.4093 63.0102 66.0302 63.3148 66.4849 63.2057C76.7694 60.737 73.3217 46.8406 64.1318 48.2808C61.3635 48.7151 58.9367 50.7232 58.1574 53.4062C58.0762 53.6826 58.1404 55.3334 57.6441 55.1397L53.0378 51.0804C53.636 50.2644 54.3606 49.7511 54.8701 48.8167C58.4763 42.1965 48.4485 37.5694 44.7386 43.7985C44.3725 43.9789 42.0872 41.5723 41.7249 41.1512C37.798 36.5992 35.0259 30.8045 37.0111 24.7296C37.9225 25.0756 38.3811 25.9818 39.2812 26.5008C44.7367 29.6501 50.9809 23.4041 47.6824 17.9422C47.4031 17.4815 46.0368 16.2594 46.3218 15.8965C52.0282 13.9486 58.1215 13.1891 64.1431 13.8415C61.7786 15.9717 60.5822 16.8385 60.9427 20.3149C61.5277 25.9743 68.9306 28.1252 71.8762 22.951C71.9895 22.7535 72.6235 21.5277 72.6235 21.4431V18.2505V18.2524ZM53.1661 25.3388C49.6807 25.9179 47.5955 30.1765 49.0354 33.307C50.8394 37.2328 56.2213 37.8646 58.8631 34.3956C62.0183 30.2498 58.3385 24.4777 53.1661 25.3388ZM79.8509 48.4538C78.0073 50.1046 77.1958 53.4288 78.1865 55.7075C80.5265 61.0886 88.637 60.5076 90.0976 54.8144C91.6393 48.8091 84.2364 44.5261 79.8509 48.4538ZM83.693 65.8925C78.028 66.7066 75.5107 73.3173 79.032 77.7696C82.3437 81.9568 90.0599 82.1223 92.6716 77.0928C95.7927 71.0837 89.9919 64.9881 83.693 65.8925Z" fill="#EBE216"/>
<path d="M32.8634 34.3054C36.7866 46.6037 49.728 52.4736 57.9159 61.4929C65.9944 70.3918 65.7283 80.9133 78.1809 86.3151C88.4748 90.7805 96.3004 87.65 104.096 80.588C105.262 79.5314 106.632 78.1927 107.489 76.9235L107.862 77.3861C104.856 84.2882 98.3988 91.2148 90.9053 93.1665C73.2482 97.7598 66.9888 77.937 56.7101 68.6583C48.7146 61.4402 29.7045 52.4285 30.9839 39.6545C31.0877 38.6167 31.9482 35.4373 32.4501 34.5461C32.569 34.3355 32.435 34.2264 32.8672 34.3054H32.8634Z" fill="#EBE216"/>
<path d="M78.0223 37.6182C76.4636 39.0941 72.9556 38.2875 72.6348 36.2663C72.214 33.6078 73.033 31.3346 76.1145 31.6731C78.6413 31.9513 79.8905 35.8489 78.0223 37.6182Z" fill="#F9F6B9"/>
<path d="M67.4719 53.3347C69.0118 54.7505 68.8042 57.5595 66.8832 58.5315C64.7885 59.592 62.4429 58.4488 62.0863 56.1681C61.6315 53.2689 65.3075 51.3417 67.4719 53.3347Z" fill="#F9F6B9"/>
<path d="M41.674 18.3746C41.8797 18.3238 43.2497 19.2526 43.512 19.4745C46.3633 21.8905 42.2533 24.9571 40.4342 22.165C39.2114 20.2905 39.9889 19.4011 41.674 18.3746Z" fill="#F9F6B9"/>
<path d="M97.876 46.8857C98.595 47.4384 101.167 48.4688 101.503 49.1814C102.379 51.0352 99.7669 52.8891 98.0496 51.4959C96.5777 50.3001 97.61 48.3616 97.8741 46.8838L97.876 46.8857Z" fill="#F9F6B9"/>
<path d="M108.157 64.4259C108.338 64.5556 109.359 65.3416 109.376 65.4186C109.483 65.8774 109.089 67.0845 108.625 67.2481C107.749 66.9905 106.949 67.5019 106.111 67.312C104.124 66.8626 104.492 63.2226 106.4 63.4407C106.934 63.5009 107.711 64.1082 108.157 64.4259Z" fill="#F9F6B9"/>
<path d="M65.7056 21.4825C65.3565 21.2212 64.7866 19.7734 64.7451 19.3316C64.6168 17.9891 66.9416 17.5285 67.9097 18.2561C69.7948 19.6738 67.7097 22.9773 65.7056 21.4825Z" fill="#F9F6B9"/>
<path d="M47.8559 46.7729C47.7691 46.6733 47.554 46.7391 47.5578 46.6018C48.2258 45.5583 49.7788 44.2328 51.0224 45.2218C52.5962 46.474 50.2714 48.4764 49.075 47.9161C48.8334 47.8033 48.0805 47.0305 47.8578 46.7729H47.8559Z" fill="#F9F6B9"/>
<path d="M94.3605 8.27425C94.8096 7.85497 97.4723 6.18348 97.9572 6.16656C99.063 6.1252 101.195 6.38466 102.248 6.75882C108.983 9.14853 108.753 19.0815 101.724 21.1516C94.0756 23.4041 88.4899 13.7493 94.3586 8.27425H94.3605ZM98.5818 8.81198C97.1062 9.02256 96.1494 10.4045 97.0326 11.7676C97.7949 12.9446 99.2593 12.4633 100.12 13.1984C101.358 14.2551 100.875 16.9381 103.23 16.831C105.828 16.7125 104.796 12.986 103.869 11.527C102.831 9.8912 100.556 8.52995 98.5818 8.81198Z" fill="#1D9496"/>
<path d="M115.709 31.9307C118.754 35.1891 112.973 39.7899 110.931 35.8472C109.648 33.3672 111.657 31.3403 114.022 30.7744C114.163 30.7744 115.552 31.7634 115.709 31.9307Z" fill="#1D9496"/>
<path d="M29.7223 68.9281C33.4398 72.6377 31.8263 79.4233 26.9577 81.1549C19.8171 83.6931 14.2013 75.2643 19.0548 69.5241C20.4285 67.8977 22.2458 66.9031 24.4253 67.1663C25.5104 67.2979 25.4651 67.375 26.6898 67.3525C27.6786 67.3337 29.041 68.2474 29.7223 68.9281ZM26.7086 71.9307C26.552 71.7634 25.1631 70.7725 25.0216 70.7744C22.6571 71.3403 20.6474 73.3672 21.9306 75.8471C23.9724 79.7918 29.7543 75.191 26.7086 71.9307Z" fill="#422B55"/>
<path d="M26.7088 71.9307C29.7545 75.1891 23.9725 79.7899 21.9307 75.8472C20.6475 73.3672 22.6573 71.3403 25.0217 70.7744C25.1633 70.7744 26.5521 71.7634 26.7088 71.9307Z" fill="#1D9496"/>
<path d="M28.2426 10.7572C30.1541 12.2313 27.6104 15.4314 25.6705 13.6001C24.1193 12.1373 26.1762 9.16282 28.2426 10.7572Z" fill="#1D9496"/>
<path d="M83.693 65.8925C89.992 64.9862 95.7928 71.0837 92.6716 77.0927C90.0581 82.1241 82.3438 81.9586 79.032 77.7696C75.5108 73.3173 78.0281 66.7066 83.693 65.8925ZM88.1974 71.36C84.9385 68.0566 79.3679 71.7004 82.5099 75.2426C85.7707 78.9203 91.764 74.9756 88.1974 71.36Z" fill="#422B55"/>
<path d="M79.851 48.4538C84.2365 44.5261 91.6375 48.8091 90.0977 54.8144C88.6371 60.5076 80.5265 61.0886 78.1866 55.7075C77.1959 53.4306 78.0092 50.1065 79.851 48.4538ZM85.5706 54.5305C86.9217 52.9136 84.88 50.2982 82.8929 51.5786C80.2454 53.2858 83.7383 56.7228 85.5706 54.5305Z" fill="#422B55"/>
<path d="M53.1662 25.3388C58.3405 24.4777 62.0183 30.2499 58.8632 34.3957C56.2232 37.8646 50.8394 37.2329 49.0354 33.307C47.5956 30.1746 49.6789 25.9179 53.1662 25.3388ZM53.921 29.6463C52.2566 29.981 52.7661 32.8013 54.7796 32.2015C56.0703 31.8179 55.8024 29.2684 53.921 29.6463Z" fill="#422B55"/>
<path d="M98.5818 8.812C100.556 8.52997 102.831 9.89122 103.869 11.527C104.794 12.986 105.828 16.7107 103.23 16.831C100.875 16.94 101.358 14.2551 100.12 13.1985C99.2593 12.4633 97.7949 12.9465 97.0325 11.7676C96.1494 10.4026 97.1061 9.0207 98.5818 8.812Z" fill="#422B55"/>
<path d="M88.1974 71.36C91.764 74.9756 85.7726 78.9203 82.5098 75.2426C79.3679 71.7004 84.9366 68.0566 88.1974 71.36Z" fill="#F9F6B9"/>
<path d="M85.5706 54.5305C83.7383 56.7247 80.2453 53.2859 82.8929 51.5787C84.8799 50.2964 86.9217 52.9136 85.5706 54.5305Z" fill="#F9F6B9"/>
<path d="M53.9209 29.6462C55.8023 29.2683 56.0703 31.8179 54.7795 32.2014C52.766 32.8012 52.2565 29.9809 53.9209 29.6462Z" fill="white"/>
</svg>
